<?xml version="1.0" encoding="UTF-8"?>
<svg width="250px" height="33px" viewBox="0 0 250 33" version="1.1" xmlns="http://www.w3.org/2000/svg" xmlns:xlink="http://www.w3.org/1999/xlink">
    <!-- Generator: Sketch 46.2 (44496) - http://www.bohemiancoding.com/sketch -->
    <title>carecredit logo</title>
    <desc>Created with Sketch.</desc>
    <defs>
        <polygon id="path-1" points="0 11.169917 0 0.163805311 40.1408952 0.163805311 40.1408952 11.169917"></polygon>
        <polygon id="path-3" points="0.81235 0.88665 20.6262263 0.88665 20.6262263 22.1179137 0.81235 22.1179137 0.81235 0.88665"></polygon>
        <polygon id="path-5" points="27.893592 30 0.957987776 30 0.957987776 0.622289508 27.893592 0.622289508 27.893592 30"></polygon>
    </defs>
    <g id="Page-1" stroke="none" stroke-width="1" fill="none" fill-rule="evenodd">
        <g id="desktop-canvas" transform="translate(-415.000000, -6061.000000)">
            <g id="financing-row" transform="translate(0.000000, 5911.000000)">
                <g id="carecredit-logo" transform="translate(415.000000, 150.000000)">
                    <path d="M32.8599711,19.2157395 C35.922421,16.68876 35.6652688,8.09702977 32.2989116,10.3827976 C27.6234156,13.5644945 22.8310321,17.0103756 19.733516,18.7907475 C15.1608809,21.3797529 10.3474577,23.5299827 5.35636571,25.2127213 C4.1874917,25.5906196 3.98878312,25.6032545 4.00047186,25.8088588 C4.0121606,26.0156116 4.3628228,26.0282465 5.34467697,25.9696665 C12.7413117,25.6101463 20.0596319,24.3167922 27.1207997,22.1217659 C29.2317862,21.588803 31.1931568,20.5963892 32.8599711,19.2157395" id="Fill-1" fill="#00AC9D"></path>
                    <g id="Group-5" transform="translate(0.000000, 21.000000)">
                        <mask id="mask-2" fill="white">
                            <use xlink:href="#path-1"></use>
                        </mask>
                        <g id="Clip-4"></g>
                        <path d="M34.78686,9.47882727 C39.95286,7.26882727 42.1902886,-1.25208182 37.8091457,0.367009091 C31.83486,2.46828182 25.7153171,4.12400909 19.4997171,5.31764545 C13.4879457,6.34464545 7.38831714,6.74055455 1.29571714,6.49946364 C0.869317143,6.35882727 0.40426,6.39782727 0.00714571429,6.60582727 C-0.06314,6.81973636 0.382002857,7.02064545 1.10828857,7.35037273 C6.67257429,9.92791818 16.1025743,11.5706455 26.2237171,11.0849182 C29.1558029,11.1002818 32.06446,10.5590091 34.7985743,9.49064545" id="Fill-3" fill="#006F60" mask="url(#mask-2)"></path>
                    </g>
                    <g id="Group-8" transform="translate(7.000000, 0.000000)">
                        <mask id="mask-4" fill="white">
                            <use xlink:href="#path-3"></use>
                        </mask>
                        <g id="Clip-7"></g>
                        <path d="M20.0040167,9.49486 C22.1156833,5.32036 18.2890167,-1.03914 16.8890167,1.44486 C14.5591833,5.28931 11.9960167,8.99231 9.21235,12.53086 C6.92335,15.54616 4.41618333,18.39356 1.71068333,21.05236 C1.30001667,21.28696 0.98385,21.65151 0.81235,22.08736 C1.18568333,22.17361 1.57768333,22.07471 1.86235,21.82286 C6.97585,19.65856 11.8105167,16.89741 16.2590167,13.60036 C18.69735,11.70286 19.2456833,10.98986 19.99235,9.50636" id="Fill-6" fill="#7AC143" mask="url(#mask-4)"></path>
                    </g>
                    <path d="M160.114097,26.1619267 C158.91819,27.3507376 157.535787,28.3435274 156.022837,29.1022448 C154.492402,29.7940843 152.822096,30.1330857 151.138968,30.0927284 C149.650495,30.1065652 148.178341,29.8079211 146.814587,29.2163983 C145.498623,28.6571613 144.30971,27.8407907 143.317783,26.8180212 C142.630079,26.0950489 142.042616,25.2844435 141.569382,24.4081135 C141.406197,24.085255 141.254669,23.7635496 141.103141,23.4164768 C140.502857,21.9532361 140.197469,20.3850665 140.205628,18.8053662 L140.205628,18.713121 C140.193972,17.1334207 140.490035,15.5675572 141.079829,14.1008573 C141.219701,13.7664682 141.371229,13.430926 141.535579,13.1092207 C142.004151,12.239809 142.588117,11.4372751 143.271159,10.7212212 C144.26192,9.70421703 145.451999,8.89591783 146.767963,8.34705846 C148.135213,7.77052551 149.607368,7.48110597 151.093509,7.49378969 C151.998016,7.4868713 152.902522,7.58372883 153.784882,7.78205617 C154.586816,7.95962832 155.368935,8.21791508 156.116085,8.55345726 C156.815446,8.86939732 157.478673,9.25682746 158.098773,9.70652317 C158.742184,10.1608311 159.361119,10.6497311 159.950913,11.1720699 L160.335561,11.5295204 L162.526892,9.34907273 L162.120097,8.9916223 C161.417239,8.36320139 160.678248,7.77859697 159.904289,7.23896213 C159.13033,6.70278648 158.307415,6.23925399 157.44487,5.85643611 C156.529873,5.45286304 155.572915,5.15075977 154.590313,4.95589164 C153.464342,4.74026831 152.319722,4.63533931 151.173936,4.64456384 C149.22505,4.63764545 147.297146,5.02968785 145.510279,5.79762975 C143.818992,6.51368367 142.288558,7.55605525 141.009893,8.86593812 C138.425755,11.5456633 136.987403,15.1120961 137.000225,18.8157438 L137.000225,18.8976115 C136.989734,20.7759559 137.346408,22.6393104 138.049266,24.3862052 C139.392039,27.758923 142.057769,30.4513319 145.439178,31.8465416 C147.213223,32.606412 149.124809,32.9984545 151.057376,32.9996075 C152.210155,33.007679 153.358272,32.8912193 154.484243,32.6536877 C155.492488,32.431146 156.472759,32.1013692 157.411068,31.6724287 C158.30625,31.2596311 159.157138,30.7568943 159.950913,30.173443 C160.764503,29.5842263 161.543124,28.948887 162.282115,28.2708842 L162.67842,27.8915256 L160.533714,25.8851909 L160.114097,26.1619267 Z M176.910411,11.9665323 L176.38589,11.9665323 C175.377645,11.9388588 174.370566,12.0668491 173.401951,12.3481972 C172.468304,12.6203207 171.583613,13.0377306 170.779348,13.5808246 C169.97858,14.1319901 169.26057,14.7915438 168.646298,15.5421897 C168.471458,15.7601192 168.297783,15.9792017 168.133433,16.2213455 L168.133433,12.2547988 L165.149494,12.2547988 L165.149494,32.4576665 L168.133433,32.4576665 L168.133433,24.085255 C168.108956,22.7453924 168.333917,21.4136013 168.797826,20.1544533 C169.191799,19.1005511 169.794415,18.136588 170.570706,17.3179112 C171.286385,16.5707245 172.157089,15.983814 173.122207,15.5986899 C174.093153,15.214719 175.130538,15.0198509 176.176082,15.022157 L176.910411,15.022157 L176.910411,11.9665323 Z M193.963157,14.8722584 C193.130917,13.8990708 192.097029,13.1138329 190.932593,12.5661266 C189.676075,12.0080427 188.311156,11.7278477 186.935747,11.7486029 C185.567331,11.7382253 184.215234,12.0253387 182.971537,12.5891879 C181.779127,13.1449657 180.709105,13.9290505 179.824414,14.8953197 C178.923404,15.8662012 178.214718,16.9973589 177.737988,18.2288333 C177.230951,19.5260324 176.974519,20.9062523 176.981512,22.2980029 L176.981512,22.3798705 C176.960532,23.8488765 177.237945,25.3075049 177.796268,26.6681226 C178.312629,27.9122807 179.073767,29.0399792 180.034222,29.9889524 C180.957378,30.9114052 182.054209,31.6447551 183.262937,32.1451857 C184.510131,32.6513816 185.843578,32.9096684 187.191013,32.9073622 C188.937084,32.9419542 190.66334,32.5452996 192.214755,31.7542963 C193.544706,31.0417016 194.752269,30.1273203 195.793151,29.0445915 L196.167308,28.651396 L194.044749,26.8422356 L193.683412,27.2100636 C192.886141,28.0252812 191.966482,28.7148146 190.955905,29.2521433 C189.811285,29.8159926 188.54078,30.0892692 187.26095,30.0466057 C186.362271,30.0500649 185.468255,29.8886357 184.626691,29.5750018 C183.804942,29.2648271 183.053129,28.7989884 182.412048,28.2028534 C181.737165,27.5709732 181.180008,26.8249396 180.769716,25.9993444 C180.393227,25.2383209 180.153113,24.4196441 180.057534,23.5790591 L196.375951,23.5790591 L196.445887,23.140894 C196.459874,22.9944547 196.459874,22.8480153 196.445887,22.702729 L196.445887,22.3556561 C196.456378,20.9523749 196.226754,19.5571652 195.769838,18.2288333 C195.349056,17.0031242 194.697485,15.8685074 193.846596,14.8849421 L193.963157,14.8722584 Z M180.140292,20.9270075 C180.245196,20.1625248 180.461998,19.4164912 180.780207,18.713121 C181.143874,17.8944442 181.645083,17.1414921 182.26052,16.4865507 C182.845652,15.8765788 183.547344,15.3865258 184.3248,15.0452183 C186.016087,14.3210929 187.934667,14.3210929 189.62712,15.0452183 C190.389423,15.4084341 191.065472,15.9284668 191.609808,16.5684184 C192.159971,17.2222067 192.590078,17.9682404 192.879147,18.7696212 C193.125089,19.4499301 193.297598,20.1533003 193.392012,20.8682011 L180.104158,20.8682011 L180.140292,20.9270075 Z M216.27393,15.3461685 L215.796033,14.8157582 C215.22722,14.2300007 214.593133,13.7122741 213.906593,13.2694968 C213.182755,12.8082705 212.398306,12.4473608 211.575391,12.1982986 C209.401545,11.5698777 207.07617,11.6874904 204.978088,12.5326877 C203.753041,13.0169754 202.634064,13.728417 201.679437,14.6312676 C200.692172,15.5767817 199.899564,16.7056332 199.348234,17.9509444 C198.744453,19.3380827 198.442562,20.8347622 198.462377,22.3441255 L198.462377,22.4259932 C198.442562,23.9353564 198.744453,25.432036 199.348234,26.8180212 C199.896067,28.0598732 200.688676,29.1818063 201.679437,30.1169428 C203.567711,31.8903581 206.070256,32.8843009 208.673044,32.8958316 C209.645155,32.90275 210.612604,32.7586167 211.540423,32.4691972 C212.362172,32.2051451 213.146621,31.8373171 213.871625,31.3737846 C214.567489,30.9240889 215.201576,30.3890663 215.759899,29.7825536 C215.935905,29.5865324 216.10958,29.4020419 216.27393,29.2060207 L216.27393,32.4334522 L219.256703,32.4334522 L219.256703,4 L216.27393,4 L216.27393,15.3565461 L216.27393,15.3461685 Z M216.389324,22.3902481 C216.402146,23.4695178 216.184178,24.5384099 215.748243,25.5265874 C215.342614,26.4375095 214.765642,27.2631046 214.047631,27.9607095 C213.352933,28.6352531 212.533515,29.1714287 211.633671,29.5404098 C209.846804,30.2714536 207.837308,30.2714536 206.050441,29.5404098 C205.177406,29.1898778 204.383632,28.6675389 203.719239,28.0068321 C203.036196,27.3069211 202.501186,26.4801729 202.146843,25.57271 C201.745876,24.5441752 201.547724,23.4476096 201.564042,22.3441255 L201.564042,22.2760946 C201.547724,21.1656921 201.741214,20.0633611 202.134021,19.0244487 C202.477874,18.1296696 203.001228,17.3132989 203.672615,16.6249186 C204.334676,15.9699772 205.129616,15.459169 206.003817,15.127086 C206.912986,14.7707886 207.881601,14.5909103 208.85954,14.5966757 C209.824658,14.5989818 210.779285,14.7915438 211.668639,15.1605249 C212.568483,15.5306591 213.390232,16.0622224 214.094255,16.7286945 C214.8111,17.419381 215.384576,18.2426701 215.784377,19.151286 C216.217981,20.1475349 216.435948,21.2244985 216.425458,22.3095335 L216.425458,22.3902481 L216.389324,22.3902481 Z M223.837516,32.4449828 L226.821455,32.4449828 L226.821455,12.2547988 L223.837516,12.2547988 L223.837516,32.4576665 L223.837516,32.4449828 Z M223.605561,8.30093583 L227.102365,8.30093583 L227.102365,4.74949284 L223.605561,4.74949284 L223.605561,8.31246649 L223.605561,8.30093583 Z M243,14.9887181 L243,12.2547988 L236.006393,12.2547988 L236.006393,6.13201886 L233.022454,6.13201886 L233.022454,12.2547988 L230.155075,12.2547988 L230.155075,14.9887181 L233.022454,14.9887181 L233.022454,27.0140424 C233.003804,27.8857602 233.162326,28.7528658 233.488694,29.5623181 C233.784757,30.2703005 234.239341,30.8998745 234.817479,31.4083766 C235.388624,31.8984296 236.061176,32.2604923 236.787345,32.4691972 C237.544986,32.6871267 238.330602,32.7955149 239.118548,32.7920557 C239.725826,32.7943618 240.330773,32.7320962 240.92523,32.6075651 C241.485884,32.4795748 242.032551,32.2973904 242.557072,32.0644711 L242.871784,31.9272562 L242.871784,29.0780304 L242.125799,29.3905112 C241.666552,29.5842263 241.190987,29.7387371 240.704931,29.8505845 C240.281818,29.9370645 239.852877,29.980881 239.421604,29.9785748 C238.522926,30.0200852 237.633572,29.7687169 236.89225,29.2625209 C236.218532,28.6260285 235.886336,27.7116473 235.995902,26.7961129 L235.995902,14.9887181 L242.98951,14.9887181 L243,14.9887181 Z" id="Fill-9" fill="#006F60"></path>
                    <g id="Group-13" transform="translate(45.000000, 3.000000)">
                        <mask id="mask-6" fill="white">
                            <use xlink:href="#path-5"></use>
                        </mask>
                        <g id="Clip-12"></g>
                        <path d="M15.933992,29.9847692 C7.890552,30.2074615 1.188072,23.9028462 0.964192,15.9020769 C0.958392,15.7347692 0.957232,15.5674615 0.958392,15.399 L0.958392,15.3193846 C0.958392,7.24246154 7.210792,0.641307692 16.177592,0.641307692 C20.462632,0.427846154 24.639792,2.019 27.684792,5.02707692 L23.601592,9.64246154 C21.621472,7.65323077 18.944192,6.50284615 16.131192,6.43361538 C11.415792,6.46823077 7.621432,10.2978462 7.656232,14.9882308 C7.657392,15.0828462 7.659712,15.1774615 7.663192,15.2732308 L7.663192,15.3528462 C7.663192,20.2232308 11.143192,24.2732308 16.131192,24.2732308 C19.471992,24.2732308 21.513592,22.9809231 23.810392,20.9501538 L27.893592,24.9643846 C24.871792,28.3463077 20.477712,30.1913077 15.933992,29.9847692" id="Fill-11" fill="#006F60" mask="url(#mask-6)"></path>
                    </g>
                    <path d="M88.7509881,32.5302335 L88.7509881,30.1654189 C86.9782609,32.0726419 84.4549407,33.1060659 81.8498024,32.9913724 C77.5454545,32.9913724 74,30.6265578 74,26.1807064 L74,26.0506416 C74,21.1909476 77.7944664,18.9561979 83.2134387,18.9561979 C85.1142292,18.9384618 87.0019763,19.2470701 88.798419,19.8666515 L88.798419,19.4764571 C88.798419,16.863337 87.1383399,15.408976 83.9011858,15.408976 C81.7418972,15.4054288 79.6027668,15.8062649 77.5928854,16.5913833 L75.944664,11.7908097 C78.7312253,10.5457349 81.7608696,9.9356127 84.8142292,10.0053747 C91.9288538,10.0053747 95,13.5525966 95,19.6053395 L95,32.5302335 L88.7509881,32.5302335 Z M88.8577075,23.5557622 C87.5509881,22.9964836 86.1411067,22.7127058 84.7193676,22.7280771 C81.944664,22.7280771 80.2490119,23.8040677 80.2490119,25.8023361 L80.2490119,25.9205768 C80.2490119,27.6232433 81.6956522,28.615283 83.8063241,28.615283 C86.8300395,28.615283 88.8814229,26.995385 88.8814229,24.7145214 L88.8814229,23.5557622 L88.8577075,23.5557622 Z" id="Fill-14" fill="#006F60"></path>
                    <path d="M110.650602,16.7012358 C106.277108,16.7012358 103.590361,19.2583733 103.590361,24.6355315 L103.590361,33 L97,33 L97,10.4278844 L103.590361,10.4278844 L103.590361,14.9685959 C104.939759,11.8617933 107.096386,9.84237163 111,10.009661 L111,16.7012358 L110.650602,16.7012358 Z" id="Fill-16" fill="#006F60"></path>
                    <path d="M132.919792,23.6079511 L117.319957,23.6079511 C117.767493,26.2577538 120.136529,28.1310318 122.795011,27.9351411 C124.839728,27.9691581 126.807725,27.1504054 128.235192,25.6724278 L131.873604,28.8395227 C129.63011,31.5902033 126.241621,33.1256578 122.71364,32.991936 C115.98316,32.991936 111.006789,28.2999436 111.006789,21.5786644 L111.006789,21.5082845 C110.795227,15.3699854 115.554223,10.2205236 121.636066,10.007038 C121.78602,10.002346 121.935974,10 122.085927,10 C129.570826,10 133,15.7371338 133,22.0009437 L133,22.0818806 C133,22.7035696 133,23.068372 132.919792,23.654871 M122.085927,15.0321619 C119.457669,15.0321619 117.73727,16.8866719 117.238586,19.7241544 L126.804238,19.7241544 C126.433422,16.9218619 124.758358,15.0321619 122.085927,15.0321619" id="Fill-18" fill="#006F60"></path>
                    <path d="M243.117931,6.97345111 C242.80491,6.97572056 242.490574,6.94962189 242.18413,6.89402039 L242.18413,6.07701875 C242.493205,6.17006616 242.816747,6.21999404 243.14555,6.22453293 C243.434897,6.28240388 243.724244,6.1258119 243.79132,5.87503779 C243.79658,5.85574747 243.800526,5.83645715 243.803157,5.81603211 C243.803157,5.16923914 242,5.49830925 242,4.21607056 C242.056554,3.49665522 242.778606,2.95425691 243.612451,3.00305006 C243.676896,3.00645424 243.740026,3.01326258 243.803157,3.02460983 C244.079351,3.02574455 244.356861,3.04957377 244.630425,3.0926933 L244.630425,3.85295872 C244.370013,3.7871447 244.100395,3.75310296 243.828146,3.75083351 C243.394125,3.75083351 243.198159,3.90969494 243.198159,4.1252926 C243.198159,4.71534934 245,4.49975169 245,5.69121242 C244.943446,6.46055563 244.176677,7.04493875 243.283648,6.99728032 C243.237615,6.99501087 243.191583,6.99047198 243.14555,6.98479835" id="Fill-20" fill="#006F60"></path>
                    <path d="M248.988235,7.98813056 L248.729412,6.33827893 C248.729412,6.01780415 248.635294,5.72106825 248.612941,5.41246291 C248.552941,5.70919881 248.482353,6.00593472 248.376471,6.35014837 L247.883529,7.98813056 L246.976471,7.98813056 L246.494118,6.4925816 C246.362353,6.14480712 246.255294,5.78753709 246.176471,5.42433234 C246.176471,5.79228487 246.094118,6.10089021 246.06,6.43323442 L245.858824,8 L245,8 L245.647059,4 L246.717647,4 L247.282353,5.75667656 C247.371765,6.04035608 247.443529,6.32997033 247.494118,6.6231454 C247.550588,6.3264095 247.625882,6.03323442 247.717647,5.74480712 L248.294118,4 L249.354118,4 L250,8 L249.012941,8 L248.988235,7.98813056 Z" id="Fill-22" fill="#006F60"></path>
                </g>
            </g>
        </g>
    </g>
</svg>