<?xml version="1.0" encoding="UTF-8"?>
<svg width="529px" height="267px" viewBox="0 0 529 267" version="1.1" xmlns="http://www.w3.org/2000/svg" xmlns:xlink="http://www.w3.org/1999/xlink">
    <!-- Generator: Sketch 44.1 (41455) - http://www.bohemiancoding.com/sketch -->
    <title>Group 5</title>
    <desc>Created with Sketch.</desc>
    <defs></defs>
    <g id="Page-1" stroke="none" stroke-width="1" fill="none" fill-rule="evenodd">
        <g id="Henningsen-Website" transform="translate(-160.000000, -169.000000)">
            <g id="Slide4-Cosmetic" transform="translate(-5.000000, 81.000000)">
                <g id="Group-5" transform="translate(165.000000, 88.000000)">
                    <g id="Group-4" transform="translate(0.000000, 56.000000)">
                        <path d="M47.3372066,136.054199 C43.9638173,136.054199 41.3008394,137.177479 39.3481929,139.424072 C37.3955464,141.670666 36.4192379,144.746563 36.4192379,148.651855 C36.4192379,152.669128 37.3605533,155.77302 39.2432125,157.963623 C41.1258716,160.154226 43.8098454,161.249512 47.2952144,161.249512 C49.4368267,161.249512 51.8793478,160.864587 54.6228511,160.094727 L54.6228511,163.223145 C52.4952363,164.021 49.8707509,164.419922 46.749316,164.419922 C42.2281345,164.419922 38.7393185,163.048191 36.2827632,160.304688 C33.826208,157.561184 32.5979488,153.662948 32.5979488,148.609863 C32.5979488,145.446436 33.1893328,142.674979 34.3721187,140.29541 C35.5549046,137.915841 37.2625698,136.0822 39.4951656,134.794434 C41.7277614,133.506667 44.3557462,132.862793 47.3791988,132.862793 C50.5986159,132.862793 53.4120644,133.450678 55.8196285,134.626465 L54.3079097,137.691895 C51.9843304,136.600092 49.6607859,136.054199 47.3372066,136.054199 Z M77.0352814,164 L77.0352814,149.11377 C77.0352814,147.238109 76.6083651,145.838384 75.7545197,144.914551 C74.9006743,143.990718 73.5639364,143.528809 71.7442658,143.528809 C69.3227042,143.528809 67.5555507,144.18668 66.4427521,145.502441 C65.3299536,146.818203 64.7735627,148.973781 64.7735627,151.969238 L64.7735627,164 L61.2882111,164 L61.2882111,131.330078 L64.7735627,131.330078 L64.7735627,141.219238 C64.7735627,142.409023 64.7175736,143.395829 64.6055939,144.179688 L64.8155549,144.179688 C65.5014307,143.073888 66.4777393,142.202559 67.7445099,141.565674 C69.0112806,140.928789 70.4564973,140.610352 72.0802033,140.610352 C74.8936939,140.610352 77.0037802,141.278721 78.4105256,142.615479 C79.8172709,143.952237 80.520633,146.07632 80.520633,148.987793 L80.520633,164 L77.0352814,164 Z M108.035114,152.473145 C108.035114,156.224465 107.090299,159.153391 105.200641,161.26001 C103.310984,163.366628 100.700495,164.419922 97.3690984,164.419922 C95.3114709,164.419922 93.4848291,163.937017 91.889118,162.971191 C90.2934069,162.005366 89.0616483,160.619638 88.1938055,158.813965 C87.3259626,157.008292 86.8920476,154.894706 86.8920476,152.473145 C86.8920476,148.721824 87.8298638,145.799897 89.7055242,143.707275 C91.5811846,141.614654 94.1846742,140.568359 97.5160711,140.568359 C100.735488,140.568359 103.293487,141.639149 105.190143,143.780762 C107.0868,145.922374 108.035114,148.819806 108.035114,152.473145 Z M90.5033758,152.473145 C90.5033758,155.412612 91.0912605,157.652173 92.2670476,159.191895 C93.4428348,160.731616 95.1714959,161.501465 97.4530828,161.501465 C99.7346697,161.501465 101.46683,160.735115 102.649616,159.202393 C103.832402,157.66967 104.423786,155.42661 104.423786,152.473145 C104.423786,149.547674 103.832402,147.32561 102.649616,145.806885 C101.46683,144.28816 99.7206725,143.528809 97.4110906,143.528809 C95.1295037,143.528809 93.4078412,144.277662 92.2460515,145.775391 C91.0842619,147.273119 90.5033758,149.505682 90.5033758,152.473145 Z M134.49979,152.473145 C134.49979,156.224465 133.554976,159.153391 131.665318,161.26001 C129.77566,163.366628 127.165172,164.419922 123.833775,164.419922 C121.776147,164.419922 119.949505,163.937017 118.353794,162.971191 C116.758083,162.005366 115.526325,160.619638 114.658482,158.813965 C113.790639,157.008292 113.356724,154.894706 113.356724,152.473145 C113.356724,148.721824 114.29454,145.799897 116.170201,143.707275 C118.045861,141.614654 120.649351,140.568359 123.980747,140.568359 C127.200165,140.568359 129.758163,141.639149 131.65482,143.780762 C133.551476,145.922374 134.49979,148.819806 134.49979,152.473145 Z M116.968052,152.473145 C116.968052,155.412612 117.555937,157.652173 118.731724,159.191895 C119.907511,160.731616 121.636172,161.501465 123.917759,161.501465 C126.199346,161.501465 127.931507,160.735115 129.114292,159.202393 C130.297078,157.66967 130.888462,155.42661 130.888462,152.473145 C130.888462,149.547674 130.297078,147.32561 129.114292,145.806885 C127.931507,144.28816 126.185349,143.528809 123.875767,143.528809 C121.59418,143.528809 119.872518,144.277662 118.710728,145.775391 C117.548938,147.273119 116.968052,149.505682 116.968052,152.473145 Z M155.9464,157.722168 C155.9464,159.86378 155.148557,161.515456 153.552846,162.677246 C151.957135,163.839036 149.717574,164.419922 146.834096,164.419922 C143.782648,164.419922 141.403115,163.937017 139.695424,162.971191 L139.695424,159.737793 C140.801224,160.297692 141.987491,160.738605 143.254262,161.060547 C144.521032,161.382489 145.742293,161.543457 146.91808,161.543457 C148.737751,161.543457 150.137476,161.253014 151.117299,160.672119 C152.097121,160.091224 152.587025,159.205898 152.587025,158.016113 C152.587025,157.120275 152.198602,156.353926 151.421742,155.717041 C150.644883,155.080156 149.12968,154.327804 146.876088,153.459961 C144.734476,152.662105 143.212274,151.965742 142.309438,151.37085 C141.406601,150.775957 140.734733,150.10059 140.293813,149.344727 C139.852892,148.588863 139.632436,147.68604 139.632436,146.63623 C139.632436,144.76057 140.395286,143.28036 141.92101,142.195557 C143.446734,141.110753 145.539323,140.568359 148.198842,140.568359 C150.676393,140.568359 153.097919,141.072261 155.46349,142.080078 L154.224721,144.914551 C151.915139,143.962723 149.822549,143.486816 147.946889,143.486816 C146.295188,143.486816 145.049432,143.745766 144.209584,144.263672 C143.369736,144.781578 142.949818,145.495438 142.949818,146.405273 C142.949818,147.021162 143.107288,147.546059 143.42223,147.97998 C143.737173,148.413902 144.244574,148.826821 144.944447,149.21875 C145.644321,149.610679 146.988057,150.177568 148.975697,150.919434 C151.705203,151.913254 153.549342,152.914057 154.508168,153.921875 C155.466994,154.929693 155.9464,156.196444 155.9464,157.722168 Z M171.829046,164.419922 C168.427661,164.419922 165.743688,163.384125 163.777044,161.3125 C161.8104,159.240875 160.827092,156.364439 160.827092,152.683105 C160.827092,148.973777 161.740413,146.027355 163.567083,143.84375 C165.393752,141.660145 167.846771,140.568359 170.926214,140.568359 C173.809691,140.568359 176.091244,141.516673 177.77094,143.41333 C179.450636,145.309987 180.290471,147.811996 180.290471,150.919434 L180.290471,153.124023 L164.438421,153.124023 C164.508408,155.825534 165.190774,157.876132 166.48554,159.275879 C167.780305,160.675625 169.603448,161.375488 171.955022,161.375488 C174.432574,161.375488 176.882093,160.85759 179.303655,159.821777 L179.303655,162.929199 C178.071878,163.461103 176.906606,163.842528 175.807805,164.073486 C174.709004,164.304445 173.382764,164.419922 171.829046,164.419922 Z M170.884221,143.486816 C169.036556,143.486816 167.563345,144.088698 166.464544,145.29248 C165.365743,146.496263 164.718369,148.161936 164.522405,150.289551 L176.553167,150.289551 C176.553167,148.091949 176.063263,146.408779 175.08344,145.23999 C174.103617,144.071202 172.703892,143.486816 170.884221,143.486816 Z M194.440039,172.083496 C193.124277,172.083496 192.08848,171.894533 191.332617,171.516602 L191.332617,168.472168 C192.326437,168.752117 193.362234,168.89209 194.440039,168.89209 C195.825788,168.89209 196.879082,168.472172 197.599951,167.632324 C198.320821,166.792476 198.68125,165.581714 198.68125,164 L198.68125,133.303711 L202.250586,133.303711 L202.250586,163.706055 C202.250586,166.365573 201.578718,168.426669 200.234961,169.889404 C198.891204,171.352139 196.959583,172.083496 194.440039,172.083496 Z M220.085868,164.419922 C216.684483,164.419922 214.00051,163.384125 212.033866,161.3125 C210.067222,159.240875 209.083915,156.364439 209.083915,152.683105 C209.083915,148.973777 209.997235,146.027355 211.823905,143.84375 C213.650574,141.660145 216.103593,140.568359 219.183036,140.568359 C222.066514,140.568359 224.348066,141.516673 226.027762,143.41333 C227.707458,145.309987 228.547293,147.811996 228.547293,150.919434 L228.547293,153.124023 L212.695243,153.124023 C212.76523,155.825534 213.447596,157.876132 214.742362,159.275879 C216.037127,160.675625 217.86027,161.375488 220.211844,161.375488 C222.689396,161.375488 225.138915,160.85759 227.560477,159.821777 L227.560477,162.929199 C226.3287,163.461103 225.163428,163.842528 224.064627,164.073486 C222.965826,164.304445 221.639586,164.419922 220.085868,164.419922 Z M219.141043,143.486816 C217.293378,143.486816 215.820167,144.088698 214.721366,145.29248 C213.622565,146.496263 212.975192,148.161936 212.779227,150.289551 L224.809989,150.289551 C224.809989,148.091949 224.320085,146.408779 223.340262,145.23999 C222.36044,144.071202 220.960714,143.486816 219.141043,143.486816 Z M259.925056,143.696777 L254.067146,143.696777 L254.067146,164 L250.581794,164 L250.581794,143.696777 L246.46656,143.696777 L246.46656,142.12207 L250.581794,140.862305 L250.581794,139.581543 C250.581794,133.926567 253.05231,131.099121 257.993415,131.099121 C259.211195,131.099121 260.638915,131.344073 262.276618,131.833984 L261.373786,134.626465 C260.030029,134.192543 258.882255,133.975586 257.930427,133.975586 C256.614665,133.975586 255.641856,134.413 255.01197,135.287842 C254.382084,136.162683 254.067146,137.565908 254.067146,139.497559 L254.067146,140.988281 L259.925056,140.988281 L259.925056,143.696777 Z M245.353767,143.696777 L239.495857,143.696777 L239.495857,164 L236.010505,164 L236.010505,143.696777 L231.895271,143.696777 L231.895271,142.12207 L236.010505,140.862305 L236.010505,139.581543 C236.010505,133.926567 238.481021,131.099121 243.422126,131.099121 C244.639906,131.099121 246.067626,131.344073 247.705329,131.833984 L246.802497,134.626465 C245.45874,134.192543 244.310965,133.975586 243.359138,133.975586 C242.043376,133.975586 241.070567,134.413 240.440681,135.287842 C239.810795,136.162683 239.495857,137.565908 239.495857,139.497559 L239.495857,140.988281 L245.353767,140.988281 L245.353767,143.696777 Z M274.35897,164.419922 C270.957586,164.419922 268.273612,163.384125 266.306968,161.3125 C264.340325,159.240875 263.357017,156.364439 263.357017,152.683105 C263.357017,148.973777 264.270338,146.027355 266.097008,143.84375 C267.923677,141.660145 270.376696,140.568359 273.456138,140.568359 C276.339616,140.568359 278.621169,141.516673 280.300865,143.41333 C281.980561,145.309987 282.820396,147.811996 282.820396,150.919434 L282.820396,153.124023 L266.968345,153.124023 C267.038333,155.825534 267.720699,157.876132 269.015465,159.275879 C270.31023,160.675625 272.133373,161.375488 274.484947,161.375488 C276.962498,161.375488 279.412018,160.85759 281.83358,159.821777 L281.83358,162.929199 C280.601803,163.461103 279.436531,163.842528 278.33773,164.073486 C277.238929,164.304445 275.912689,164.419922 274.35897,164.419922 Z M273.414146,143.486816 C271.566481,143.486816 270.09327,144.088698 268.994468,145.29248 C267.895667,146.496263 267.248294,148.161936 267.05233,150.289551 L279.083091,150.289551 C279.083091,148.091949 278.593188,146.408779 277.613365,145.23999 C276.633542,144.071202 275.233817,143.486816 273.414146,143.486816 Z M299.752846,140.568359 C300.774661,140.568359 301.691481,140.652343 302.503334,140.820312 L302.020424,144.053711 C301.068596,143.843749 300.228761,143.73877 299.500893,143.73877 C297.63923,143.73877 296.047042,144.494621 294.724282,146.006348 C293.401521,147.518074 292.740151,149.400705 292.740151,151.654297 L292.740151,164 L289.254799,164 L289.254799,140.988281 L292.131264,140.988281 L292.53019,145.250488 L292.698159,145.250488 C293.552004,143.752759 294.580802,142.597986 295.784584,141.786133 C296.988366,140.97428 298.311107,140.568359 299.752846,140.568359 Z M322.14428,157.722168 C322.14428,159.86378 321.346437,161.515456 319.750726,162.677246 C318.155014,163.839036 315.915453,164.419922 313.031976,164.419922 C309.980528,164.419922 307.600994,163.937017 305.893304,162.971191 L305.893304,159.737793 C306.999103,160.297692 308.185371,160.738605 309.452142,161.060547 C310.718912,161.382489 311.940173,161.543457 313.11596,161.543457 C314.93563,161.543457 316.335356,161.253014 317.315179,160.672119 C318.295001,160.091224 318.784905,159.205898 318.784905,158.016113 C318.784905,157.120275 318.396481,156.353926 317.619622,155.717041 C316.842763,155.080156 315.32756,154.327804 313.073968,153.459961 C310.932355,152.662105 309.410154,151.965742 308.507317,151.37085 C307.604481,150.775957 306.932612,150.10059 306.491692,149.344727 C306.050772,148.588863 305.830315,147.68604 305.830315,146.63623 C305.830315,144.76057 306.593166,143.28036 308.11889,142.195557 C309.644613,141.110753 311.737203,140.568359 314.396722,140.568359 C316.874273,140.568359 319.295798,141.072261 321.66137,142.080078 L320.422601,144.914551 C318.113019,143.962723 316.020429,143.486816 314.144768,143.486816 C312.493068,143.486816 311.247312,143.745766 310.407464,144.263672 C309.567616,144.781578 309.147698,145.495438 309.147698,146.405273 C309.147698,147.021162 309.305167,147.546059 309.62011,147.97998 C309.935053,148.413902 310.442454,148.826821 311.142327,149.21875 C311.8422,149.610679 313.185937,150.177568 315.173577,150.919434 C317.903083,151.913254 319.747221,152.914057 320.706048,153.921875 C321.664874,154.929693 322.14428,156.196444 322.14428,157.722168 Z M348.168039,152.473145 C348.168039,156.224465 347.223224,159.153391 345.333566,161.26001 C343.443908,163.366628 340.83342,164.419922 337.502023,164.419922 C335.444396,164.419922 333.617754,163.937017 332.022043,162.971191 C330.426331,162.005366 329.194573,160.619638 328.32673,158.813965 C327.458887,157.008292 327.024972,154.894706 327.024972,152.473145 C327.024972,148.721824 327.962788,145.799897 329.838449,143.707275 C331.714109,141.614654 334.317599,140.568359 337.648996,140.568359 C340.868413,140.568359 343.426411,141.639149 345.323068,143.780762 C347.219725,145.922374 348.168039,148.819806 348.168039,152.473145 Z M330.6363,152.473145 C330.6363,155.412612 331.224185,157.652173 332.399972,159.191895 C333.575759,160.731616 335.30442,161.501465 337.586007,161.501465 C339.867594,161.501465 341.599755,160.735115 342.782541,159.202393 C343.965326,157.66967 344.55671,155.42661 344.55671,152.473145 C344.55671,149.547674 343.965326,147.32561 342.782541,145.806885 C341.599755,144.28816 339.853597,143.528809 337.544015,143.528809 C335.262428,143.528809 333.540766,144.277662 332.378976,145.775391 C331.217186,147.273119 330.6363,149.505682 330.6363,152.473145 Z M370.517481,164 L370.517481,149.11377 C370.517481,147.238109 370.090564,145.838384 369.236719,144.914551 C368.382873,143.990718 367.046136,143.528809 365.226465,143.528809 C362.818901,143.528809 361.055247,144.179681 359.935449,145.481445 C358.815652,146.78321 358.255762,148.931788 358.255762,151.927246 L358.255762,164 L354.77041,164 L354.77041,140.988281 L357.604883,140.988281 L358.171777,144.137695 L358.339746,144.137695 C359.053617,143.003901 360.054421,142.125573 361.342188,141.502686 C362.629954,140.879798 364.064673,140.568359 365.646387,140.568359 C368.417885,140.568359 370.503476,141.236728 371.903223,142.573486 C373.302969,143.910244 374.002832,146.048325 374.002832,148.987793 L374.002832,164 L370.517481,164 Z M406.985896,136.054199 C403.612507,136.054199 400.949529,137.177479 398.996882,139.424072 C397.044236,141.670666 396.067927,144.746563 396.067927,148.651855 C396.067927,152.669128 397.009243,155.77302 398.891902,157.963623 C400.774561,160.154226 403.458535,161.249512 406.943904,161.249512 C409.085516,161.249512 411.528037,160.864587 414.27154,160.094727 L414.27154,163.223145 C412.143926,164.021 409.51944,164.419922 406.398005,164.419922 C401.876824,164.419922 398.388008,163.048191 395.931453,160.304688 C393.474897,157.561184 392.246638,153.662948 392.246638,148.609863 C392.246638,145.446436 392.838022,142.674979 394.020808,140.29541 C395.203594,137.915841 396.911259,136.0822 399.143855,134.794434 C401.376451,133.506667 404.004435,132.862793 407.027888,132.862793 C410.247305,132.862793 413.060754,133.450678 415.468318,134.626465 L413.956599,137.691895 C411.63302,136.600092 409.309475,136.054199 406.985896,136.054199 Z M424.422252,164 L420.9369,164 L420.9369,140.988281 L424.422252,140.988281 L424.422252,164 Z M420.642955,134.752441 C420.642955,133.954586 420.838917,133.3702 421.230846,132.999268 C421.622775,132.628335 422.112679,132.442871 422.700572,132.442871 C423.260471,132.442871 423.743376,132.631834 424.149303,133.009766 C424.555229,133.387697 424.758189,133.968583 424.758189,134.752441 C424.758189,135.536299 424.555229,136.120685 424.149303,136.505615 C423.743376,136.890546 423.260471,137.083008 422.700572,137.083008 C422.112679,137.083008 421.622775,136.890546 421.230846,136.505615 C420.838917,136.120685 420.642955,135.536299 420.642955,134.752441 Z M439.738003,161.543457 C440.353891,161.543457 440.948774,161.497966 441.522671,161.406982 C442.096567,161.315999 442.551477,161.221517 442.887417,161.123535 L442.887417,163.790039 C442.509485,163.972006 441.953094,164.122477 441.218227,164.241455 C440.48336,164.360434 439.82199,164.419922 439.234096,164.419922 C434.782902,164.419922 432.557338,162.075382 432.557338,157.38623 L432.557338,143.696777 L429.260952,143.696777 L429.260952,142.01709 L432.557338,140.568359 L434.027065,135.655273 L436.04269,135.655273 L436.04269,140.988281 L442.719448,140.988281 L442.719448,143.696777 L436.04269,143.696777 L436.04269,157.239258 C436.04269,158.625007 436.371626,159.688798 437.029506,160.430664 C437.687387,161.17253 438.59021,161.543457 439.738003,161.543457 Z M444.324749,140.988281 L448.062054,140.988281 L453.101116,154.11084 C454.206916,157.106298 454.892782,159.268874 455.158734,160.598633 L455.326702,160.598633 C455.508669,159.884762 455.890095,158.663501 456.470989,156.934814 C457.051884,155.206127 458.952012,149.89067 462.171429,140.988281 L465.908734,140.988281 L456.019573,167.191406 C455.039751,169.780937 453.895475,171.618077 452.586712,172.702881 C451.277949,173.787684 449.671764,174.330078 447.768109,174.330078 C446.704301,174.330078 445.654507,174.211101 444.618695,173.973145 L444.618695,171.180664 C445.388555,171.348634 446.249386,171.432617 447.201214,171.432617 C449.594781,171.432617 451.302446,170.088881 452.324261,167.401367 L453.605023,164.125977 L444.324749,140.988281 Z M474.652707,133.303711 L474.967648,133.765625 C474.603714,135.165372 474.078817,136.792553 473.392941,138.647217 C472.707065,140.501881 471.993205,142.227043 471.25134,143.822754 L468.689816,143.822754 C469.669639,139.833476 470.383499,136.327164 470.831418,133.303711 L474.652707,133.303711 Z M493.222852,157.722168 C493.222852,159.86378 492.425008,161.515456 490.829297,162.677246 C489.233586,163.839036 486.994025,164.419922 484.110547,164.419922 C481.0591,164.419922 478.679566,163.937017 476.971875,162.971191 L476.971875,159.737793 C478.077675,160.297692 479.263943,160.738605 480.530713,161.060547 C481.797484,161.382489 483.018745,161.543457 484.194532,161.543457 C486.014202,161.543457 487.413928,161.253014 488.39375,160.672119 C489.373573,160.091224 489.863477,159.205898 489.863477,158.016113 C489.863477,157.120275 489.475053,156.353926 488.698194,155.717041 C487.921334,155.080156 486.406131,154.327804 484.152539,153.459961 C482.010927,152.662105 480.488726,151.965742 479.585889,151.37085 C478.683053,150.775957 478.011184,150.10059 477.570264,149.344727 C477.129344,148.588863 476.908887,147.68604 476.908887,146.63623 C476.908887,144.76057 477.671738,143.28036 479.197461,142.195557 C480.723185,141.110753 482.815775,140.568359 485.475293,140.568359 C487.952845,140.568359 490.37437,141.072261 492.739942,142.080078 L491.501172,144.914551 C489.19159,143.962723 487.099001,143.486816 485.22334,143.486816 C483.571639,143.486816 482.325884,143.745766 481.486036,144.263672 C480.646188,144.781578 480.22627,145.495438 480.22627,146.405273 C480.22627,147.021162 480.383739,147.546059 480.698682,147.97998 C481.013625,148.413902 481.521026,148.826821 482.220899,149.21875 C482.920772,149.610679 484.264509,150.177568 486.252149,150.919434 C488.981655,151.913254 490.825793,152.914057 491.78462,153.921875 C492.743446,154.929693 493.222852,156.196444 493.222852,157.722168 Z M13.7710514,210 L10.2017155,210 L10.2017155,182.474121 L0.480524063,182.474121 L0.480524063,179.303711 L23.4922428,179.303711 L23.4922428,182.474121 L13.7710514,182.474121 L13.7710514,210 Z M36.4354348,186.568359 C37.4572498,186.568359 38.3740701,186.652343 39.1859231,186.820312 L38.7030129,190.053711 C37.7511853,189.843749 36.9113499,189.73877 36.1834817,189.73877 C34.3218187,189.73877 32.7296309,190.494621 31.4068704,192.006348 C30.0841098,193.518074 29.4227395,195.400705 29.4227395,197.654297 L29.4227395,210 L25.9373879,210 L25.9373879,186.988281 L28.8138528,186.988281 L29.2127786,191.250488 L29.3807473,191.250488 C30.2345927,189.752759 31.263391,188.597986 32.4671731,187.786133 C33.6709552,186.97428 34.9936958,186.568359 36.4354348,186.568359 Z M47.2580214,186.988281 L47.2580214,201.916504 C47.2580214,203.792164 47.6849377,205.19189 48.5387831,206.115723 C49.3926285,207.039555 50.7293664,207.501465 52.549037,207.501465 C54.9566011,207.501465 56.716756,206.843594 57.8295546,205.527832 C58.9423531,204.21207 59.498744,202.063491 59.498744,199.082031 L59.498744,186.988281 L62.9840956,186.988281 L62.9840956,210 L60.1076307,210 L59.6037245,206.913574 L59.4147596,206.913574 C58.7008889,208.047369 57.710583,208.915199 56.4438124,209.51709 C55.1770417,210.118981 53.731825,210.419922 52.108119,210.419922 C49.3086258,210.419922 47.2125368,209.755052 45.8197889,208.425293 C44.4270411,207.095534 43.7306776,204.967951 43.7306776,202.04248 L43.7306776,186.988281 L47.2580214,186.988281 Z M85.7114673,203.722168 C85.7114673,205.86378 84.9136237,207.515456 83.3179126,208.677246 C81.7222015,209.839036 79.4826405,210.419922 76.5991626,210.419922 C73.547715,210.419922 71.1681815,209.937017 69.4604907,208.971191 L69.4604907,205.737793 C70.5662905,206.297692 71.7525579,206.738605 73.0193286,207.060547 C74.2860993,207.382489 75.5073598,207.543457 76.683147,207.543457 C78.5028175,207.543457 79.9025431,207.253014 80.8823657,206.672119 C81.8621883,206.091224 82.3520923,205.205898 82.3520923,204.016113 C82.3520923,203.120275 81.9636684,202.353926 81.1868091,201.717041 C80.4099497,201.080156 78.8947468,200.327804 76.6411548,199.459961 C74.4995425,198.662105 72.9773409,197.965742 72.0745044,197.37085 C71.1716678,196.775957 70.4997995,196.10059 70.0588794,195.344727 C69.6179592,194.588863 69.3975024,193.68604 69.3975024,192.63623 C69.3975024,190.76057 70.1603529,189.28036 71.6860766,188.195557 C73.2118004,187.110753 75.3043902,186.568359 77.9639087,186.568359 C80.4414601,186.568359 82.8629854,187.072261 85.2285571,188.080078 L83.9897876,190.914551 C81.6802057,189.962723 79.587616,189.486816 77.7119555,189.486816 C76.0602546,189.486816 74.8144988,189.745766 73.9746509,190.263672 C73.1348029,190.781578 72.7148852,191.495438 72.7148852,192.405273 C72.7148852,193.021162 72.8723544,193.546059 73.1872973,193.97998 C73.5022403,194.413902 74.0096409,194.826821 74.7095141,195.21875 C75.4093874,195.610679 76.753124,196.177568 78.7407641,196.919434 C81.47027,197.913254 83.3144084,198.914057 84.2732348,199.921875 C85.2320613,200.929693 85.7114673,202.196444 85.7114673,203.722168 Z M99.3055382,207.543457 C99.9214267,207.543457 100.51631,207.497966 101.090206,207.406982 C101.664102,207.315999 102.119013,207.221517 102.454952,207.123535 L102.454952,209.790039 C102.077021,209.972006 101.52063,210.122477 100.785763,210.241455 C100.050896,210.360434 99.3895255,210.419922 98.8016319,210.419922 C94.3504378,210.419922 92.1248741,208.075382 92.1248741,203.38623 L92.1248741,189.696777 L88.8284874,189.696777 L88.8284874,188.01709 L92.1248741,186.568359 L93.5946007,181.655273 L95.6102257,181.655273 L95.6102257,186.988281 L102.286983,186.988281 L102.286983,189.696777 L95.6102257,189.696777 L95.6102257,203.239258 C95.6102257,204.625007 95.9391612,205.688798 96.5970421,206.430664 C97.254923,207.17253 98.157746,207.543457 99.3055382,207.543457 Z M117.266797,210.419922 C113.865412,210.419922 111.181439,209.384125 109.214795,207.3125 C107.248151,205.240875 106.264843,202.364439 106.264843,198.683105 C106.264843,194.973777 107.178164,192.027355 109.004834,189.84375 C110.831503,187.660145 113.284522,186.568359 116.363965,186.568359 C119.247443,186.568359 121.528995,187.516673 123.208691,189.41333 C124.888387,191.309987 125.728222,193.811996 125.728222,196.919434 L125.728222,199.124023 L109.876172,199.124023 C109.946159,201.825534 110.628525,203.876132 111.923291,205.275879 C113.218056,206.675625 115.041199,207.375488 117.392773,207.375488 C119.870325,207.375488 122.319844,206.85759 124.741406,205.821777 L124.741406,208.929199 C123.509629,209.461103 122.344357,209.842528 121.245556,210.073486 C120.146755,210.304445 118.820515,210.419922 117.266797,210.419922 Z M116.321972,189.486816 C114.474307,189.486816 113.001096,190.088698 111.902295,191.29248 C110.803494,192.496263 110.15612,194.161936 109.960156,196.289551 L121.990918,196.289551 C121.990918,194.091949 121.501014,192.408779 120.521191,191.23999 C119.541369,190.071202 118.141643,189.486816 116.321972,189.486816 Z M147.825711,206.913574 L147.636746,206.913574 C146.027038,209.251151 143.61951,210.419922 140.41409,210.419922 C137.404635,210.419922 135.063594,209.391124 133.390897,207.333496 C131.7182,205.275869 130.881864,202.350442 130.881864,198.557129 C130.881864,194.763816 131.721699,191.817393 133.401395,189.717773 C135.081091,187.618154 137.418632,186.568359 140.41409,186.568359 C143.535525,186.568359 145.929056,187.702137 147.594754,189.969727 L147.867703,189.969727 L147.720731,188.311035 L147.636746,186.694336 L147.636746,177.330078 L151.122098,177.330078 L151.122098,210 L148.287625,210 L147.825711,206.913574 Z M140.855008,207.501465 C143.234577,207.501465 144.959739,206.854092 146.030545,205.559326 C147.101351,204.264561 147.636746,202.17547 147.636746,199.291992 L147.636746,198.557129 C147.636746,195.295719 147.094353,192.968676 146.009549,191.575928 C144.924746,190.18318 143.192585,189.486816 140.813016,189.486816 C138.769386,189.486816 137.205193,190.281161 136.120389,191.869873 C135.035585,193.458585 134.493192,195.701646 134.493192,198.599121 C134.493192,201.538589 135.032086,203.757154 136.109891,205.254883 C137.187696,206.752612 138.769386,207.501465 140.855008,207.501465 Z M184.336119,182.054199 C180.962729,182.054199 178.299752,183.177479 176.347105,185.424072 C174.394459,187.670666 173.41815,190.746563 173.41815,194.651855 C173.41815,198.669128 174.359465,201.77302 176.242125,203.963623 C178.124784,206.154226 180.808758,207.249512 184.294127,207.249512 C186.435739,207.249512 188.87826,206.864587 191.621763,206.094727 L191.621763,209.223145 C189.494148,210.021 186.869663,210.419922 183.748228,210.419922 C179.227047,210.419922 175.738231,209.048191 173.281675,206.304688 C170.82512,203.561184 169.596861,199.662948 169.596861,194.609863 C169.596861,191.446436 170.188245,188.674979 171.371031,186.29541 C172.553817,183.915841 174.261482,182.0822 176.494078,180.794434 C178.726673,179.506667 181.354658,178.862793 184.378111,178.862793 C187.597528,178.862793 190.410976,179.450678 192.818541,180.626465 L191.306822,183.691895 C188.983242,182.600092 186.659698,182.054199 184.336119,182.054199 Z M218.149428,198.473145 C218.149428,202.224465 217.204613,205.153391 215.314955,207.26001 C213.425297,209.366628 210.814809,210.419922 207.483412,210.419922 C205.425785,210.419922 203.599143,209.937017 202.003432,208.971191 C200.407721,208.005366 199.175962,206.619638 198.308119,204.813965 C197.440276,203.008292 197.006361,200.894706 197.006361,198.473145 C197.006361,194.721824 197.944178,191.799897 199.819838,189.707275 C201.695498,187.614654 204.298988,186.568359 207.630385,186.568359 C210.849802,186.568359 213.407801,187.639149 215.304457,189.780762 C217.201114,191.922374 218.149428,194.819806 218.149428,198.473145 Z M200.61769,198.473145 C200.61769,201.412612 201.205574,203.652173 202.381361,205.191895 C203.557149,206.731616 205.28581,207.501465 207.567397,207.501465 C209.848984,207.501465 211.581144,206.735115 212.76393,205.202393 C213.946716,203.66967 214.5381,201.42661 214.5381,198.473145 C214.5381,195.547674 213.946716,193.32561 212.76393,191.806885 C211.581144,190.28816 209.834986,189.528809 207.525404,189.528809 C205.243818,189.528809 203.522155,190.277662 202.360365,191.775391 C201.198576,193.273119 200.61769,195.505682 200.61769,198.473145 Z M239.596038,203.722168 C239.596038,205.86378 238.798194,207.515456 237.202483,208.677246 C235.606772,209.839036 233.367211,210.419922 230.483733,210.419922 C227.432286,210.419922 225.052752,209.937017 223.345061,208.971191 L223.345061,205.737793 C224.450861,206.297692 225.637129,206.738605 226.903899,207.060547 C228.17067,207.382489 229.39193,207.543457 230.567718,207.543457 C232.387388,207.543457 233.787114,207.253014 234.766936,206.672119 C235.746759,206.091224 236.236663,205.205898 236.236663,204.016113 C236.236663,203.120275 235.848239,202.353926 235.07138,201.717041 C234.29452,201.080156 232.779317,200.327804 230.525725,199.459961 C228.384113,198.662105 226.861912,197.965742 225.959075,197.37085 C225.056238,196.775957 224.38437,196.10059 223.94345,195.344727 C223.50253,194.588863 223.282073,193.68604 223.282073,192.63623 C223.282073,190.76057 224.044923,189.28036 225.570647,188.195557 C227.096371,187.110753 229.188961,186.568359 231.848479,186.568359 C234.326031,186.568359 236.747556,187.072261 239.113128,188.080078 L237.874358,190.914551 C235.564776,189.962723 233.472187,189.486816 231.596526,189.486816 C229.944825,189.486816 228.699069,189.745766 227.859221,190.263672 C227.019374,190.781578 226.599456,191.495438 226.599456,192.405273 C226.599456,193.021162 226.756925,193.546059 227.071868,193.97998 C227.386811,194.413902 227.894211,194.826821 228.594085,195.21875 C229.293958,195.610679 230.637695,196.177568 232.625335,196.919434 C235.354841,197.913254 237.198979,198.914057 238.157805,199.921875 C239.116632,200.929693 239.596038,202.196444 239.596038,203.722168 Z M275.089035,210 L275.089035,195.029785 C275.089035,193.196117 274.697111,191.820887 273.913253,190.904053 C273.129395,189.987219 271.911634,189.528809 270.259933,189.528809 C268.090326,189.528809 266.48764,190.151686 265.451828,191.397461 C264.416015,192.643235 263.898117,194.560859 263.898117,197.150391 L263.898117,210 L260.412765,210 L260.412765,195.029785 C260.412765,193.196117 260.020842,191.820887 259.236984,190.904053 C258.453126,189.987219 257.228366,189.528809 255.562667,189.528809 C253.379063,189.528809 251.779876,190.18318 250.76506,191.491943 C249.750244,192.800706 249.242843,194.945786 249.242843,197.927246 L249.242843,210 L245.757492,210 L245.757492,186.988281 L248.591964,186.988281 L249.158859,190.137695 L249.326828,190.137695 C249.984708,189.017898 250.912027,188.14307 252.10881,187.513184 C253.305593,186.883298 254.645831,186.568359 256.129562,186.568359 C259.726911,186.568359 262.07845,187.870104 263.184249,190.473633 L263.352218,190.473633 C264.038094,189.269851 265.031899,188.318037 266.333663,187.618164 C267.635428,186.918291 269.119137,186.568359 270.784835,186.568359 C273.388364,186.568359 275.337482,187.236728 276.632247,188.573486 C277.927013,189.910244 278.574386,192.048325 278.574386,194.987793 L278.574386,210 L275.089035,210 Z M295.96875,210.419922 C292.567366,210.419922 289.883392,209.384125 287.916748,207.3125 C285.950104,205.240875 284.966797,202.364439 284.966797,198.683105 C284.966797,194.973777 285.880118,192.027355 287.706787,189.84375 C289.533456,187.660145 291.986475,186.568359 295.065918,186.568359 C297.949396,186.568359 300.230949,187.516673 301.910645,189.41333 C303.59034,191.309987 304.430176,193.811996 304.430176,196.919434 L304.430176,199.124023 L288.578125,199.124023 C288.648112,201.825534 289.330479,203.876132 290.625244,205.275879 C291.92001,206.675625 293.743152,207.375488 296.094727,207.375488 C298.572278,207.375488 301.021798,206.85759 303.443359,205.821777 L303.443359,208.929199 C302.211582,209.461103 301.046311,209.842528 299.94751,210.073486 C298.848709,210.304445 297.522469,210.419922 295.96875,210.419922 Z M295.023926,189.486816 C293.17626,189.486816 291.703049,190.088698 290.604248,191.29248 C289.505447,192.496263 288.858074,194.161936 288.662109,196.289551 L300.692871,196.289551 C300.692871,194.091949 300.202967,192.408779 299.223145,191.23999 C298.243322,190.071202 296.843596,189.486816 295.023926,189.486816 Z M318.297196,207.543457 C318.913084,207.543457 319.507968,207.497966 320.081864,207.406982 C320.65576,207.315999 321.110671,207.221517 321.44661,207.123535 L321.44661,209.790039 C321.068678,209.972006 320.512287,210.122477 319.777421,210.241455 C319.042554,210.360434 318.381183,210.419922 317.79329,210.419922 C313.342096,210.419922 311.116532,208.075382 311.116532,203.38623 L311.116532,189.696777 L307.820145,189.696777 L307.820145,188.01709 L311.116532,186.568359 L312.586258,181.655273 L314.601883,181.655273 L314.601883,186.988281 L321.278641,186.988281 L321.278641,189.696777 L314.601883,189.696777 L314.601883,203.239258 C314.601883,204.625007 314.930819,205.688798 315.5887,206.430664 C316.246581,207.17253 317.149404,207.543457 318.297196,207.543457 Z M330.022614,210 L326.537263,210 L326.537263,186.988281 L330.022614,186.988281 L330.022614,210 Z M326.243318,180.752441 C326.243318,179.954586 326.439279,179.3702 326.831208,178.999268 C327.223137,178.628335 327.713041,178.442871 328.300935,178.442871 C328.860833,178.442871 329.343739,178.631834 329.749665,179.009766 C330.155592,179.387697 330.358552,179.968583 330.358552,180.752441 C330.358552,181.536299 330.155592,182.120685 329.749665,182.505615 C329.343739,182.890546 328.860833,183.083008 328.300935,183.083008 C327.713041,183.083008 327.223137,182.890546 326.831208,182.505615 C326.439279,182.120685 326.243318,181.536299 326.243318,180.752441 Z M347.102037,210.419922 C343.77064,210.419922 341.191646,209.394623 339.364976,207.343994 C337.538307,205.293365 336.624986,202.392434 336.624986,198.641113 C336.624986,194.79181 337.552304,191.817393 339.406969,189.717773 C341.261633,187.618154 343.903615,186.568359 347.332994,186.568359 C348.438794,186.568359 349.544577,186.687336 350.650377,186.925293 C351.756177,187.16325 352.624006,187.443195 353.253892,187.765137 L352.183092,190.725586 C351.413231,190.417642 350.573396,190.162192 349.66356,189.959229 C348.753725,189.756265 347.948883,189.654785 347.24901,189.654785 C342.573856,189.654785 340.236314,192.636201 340.236314,198.599121 C340.236314,201.426609 340.806702,203.596184 341.947496,205.10791 C343.088289,206.619636 344.778458,207.375488 347.018053,207.375488 C348.935705,207.375488 350.90232,206.962569 352.917955,206.136719 L352.917955,209.223145 C351.378234,210.021 349.439614,210.419922 347.102037,210.419922 Z M395.559222,194.35791 C395.559222,199.424993 394.183991,203.298733 391.433489,205.979248 C388.682987,208.659763 384.725263,210 379.560198,210 L371.05678,210 L371.05678,179.303711 L380.46303,179.303711 C385.236166,179.303711 388.945439,180.626452 391.59096,183.271973 C394.236481,185.917494 395.559222,189.612769 395.559222,194.35791 Z M391.779925,194.483887 C391.779925,190.480611 390.775622,187.464203 388.766985,185.43457 C386.758349,183.404938 383.773434,182.390137 379.812151,182.390137 L374.626116,182.390137 L374.626116,206.913574 L378.972308,206.913574 C383.227537,206.913574 386.42591,205.867279 388.567523,203.774658 C390.709135,201.682037 391.779925,198.585144 391.779925,194.483887 Z M412.092746,210.419922 C408.691362,210.419922 406.007388,209.384125 404.040744,207.3125 C402.0741,205.240875 401.090793,202.364439 401.090793,198.683105 C401.090793,194.973777 402.004114,192.027355 403.830783,189.84375 C405.657452,187.660145 408.110471,186.568359 411.189914,186.568359 C414.073392,186.568359 416.354944,187.516673 418.03464,189.41333 C419.714336,191.309987 420.554172,193.811996 420.554172,196.919434 L420.554172,199.124023 L404.702121,199.124023 C404.772108,201.825534 405.454474,203.876132 406.74924,205.275879 C408.044006,206.675625 409.867148,207.375488 412.218722,207.375488 C414.696274,207.375488 417.145794,206.85759 419.567355,205.821777 L419.567355,208.929199 C418.335578,209.461103 417.170307,209.842528 416.071506,210.073486 C414.972704,210.304445 413.646464,210.419922 412.092746,210.419922 Z M411.147922,189.486816 C409.300256,189.486816 407.827045,190.088698 406.728244,191.29248 C405.629443,192.496263 404.98207,194.161936 404.786105,196.289551 L416.816867,196.289551 C416.816867,194.091949 416.326963,192.408779 415.34714,191.23999 C414.367318,190.071202 412.967592,189.486816 411.147922,189.486816 Z M442.735645,210 L442.735645,195.11377 C442.735645,193.238109 442.308729,191.838384 441.454883,190.914551 C440.601038,189.990718 439.2643,189.528809 437.444629,189.528809 C435.037065,189.528809 433.273411,190.179681 432.153614,191.481445 C431.033816,192.78321 430.473926,194.931788 430.473926,197.927246 L430.473926,210 L426.988575,210 L426.988575,186.988281 L429.823047,186.988281 L430.389942,190.137695 L430.55791,190.137695 C431.271781,189.003901 432.272585,188.125573 433.560352,187.502686 C434.848119,186.879798 436.282837,186.568359 437.864551,186.568359 C440.636049,186.568359 442.72164,187.236728 444.121387,188.573486 C445.521134,189.910244 446.220996,192.048325 446.220996,194.987793 L446.220996,210 L442.735645,210 Z M461.30579,207.543457 C461.921678,207.543457 462.516562,207.497966 463.090458,207.406982 C463.664354,207.315999 464.119265,207.221517 464.455204,207.123535 L464.455204,209.790039 C464.077272,209.972006 463.520882,210.122477 462.786015,210.241455 C462.051148,210.360434 461.389777,210.419922 460.801884,210.419922 C456.35069,210.419922 454.125126,208.075382 454.125126,203.38623 L454.125126,189.696777 L450.828739,189.696777 L450.828739,188.01709 L454.125126,186.568359 L455.594852,181.655273 L457.610477,181.655273 L457.610477,186.988281 L464.287235,186.988281 L464.287235,189.696777 L457.610477,189.696777 L457.610477,203.239258 C457.610477,204.625007 457.939413,205.688798 458.597294,206.430664 C459.255175,207.17253 460.157998,207.543457 461.30579,207.543457 Z M473.031209,210 L469.545857,210 L469.545857,186.988281 L473.031209,186.988281 L473.031209,210 Z M469.251912,180.752441 C469.251912,179.954586 469.447873,179.3702 469.839802,178.999268 C470.231731,178.628335 470.721635,178.442871 471.309529,178.442871 C471.869427,178.442871 472.352333,178.631834 472.758259,179.009766 C473.164186,179.387697 473.367146,179.968583 473.367146,180.752441 C473.367146,181.536299 473.164186,182.120685 472.758259,182.505615 C472.352333,182.890546 471.869427,183.083008 471.309529,183.083008 C470.721635,183.083008 470.231731,182.890546 469.839802,182.505615 C469.447873,182.120685 469.251912,181.536299 469.251912,180.752441 Z M495.75858,203.722168 C495.75858,205.86378 494.960737,207.515456 493.365026,208.677246 C491.769314,209.839036 489.529753,210.419922 486.646276,210.419922 C483.594828,210.419922 481.215294,209.937017 479.507604,208.971191 L479.507604,205.737793 C480.613403,206.297692 481.799671,206.738605 483.066442,207.060547 C484.333212,207.382489 485.554473,207.543457 486.73026,207.543457 C488.54993,207.543457 489.949656,207.253014 490.929479,206.672119 C491.909301,206.091224 492.399205,205.205898 492.399205,204.016113 C492.399205,203.120275 492.010781,202.353926 491.233922,201.717041 C490.457063,201.080156 488.94186,200.327804 486.688268,199.459961 C484.546655,198.662105 483.024454,197.965742 482.121617,197.37085 C481.218781,196.775957 480.546912,196.10059 480.105992,195.344727 C479.665072,194.588863 479.444615,193.68604 479.444615,192.63623 C479.444615,190.76057 480.207466,189.28036 481.73319,188.195557 C483.258913,187.110753 485.351503,186.568359 488.011022,186.568359 C490.488573,186.568359 492.910098,187.072261 495.27567,188.080078 L494.036901,190.914551 C491.727319,189.962723 489.634729,189.486816 487.759068,189.486816 C486.107368,189.486816 484.861612,189.745766 484.021764,190.263672 C483.181916,190.781578 482.761998,191.495438 482.761998,192.405273 C482.761998,193.021162 482.919467,193.546059 483.23441,193.97998 C483.549353,194.413902 484.056754,194.826821 484.756627,195.21875 C485.4565,195.610679 486.800237,196.177568 488.787877,196.919434 C491.517383,197.913254 493.361521,198.914057 494.320348,199.921875 C495.279174,200.929693 495.75858,202.196444 495.75858,203.722168 Z M509.352651,207.543457 C509.96854,207.543457 510.563423,207.497966 511.137319,207.406982 C511.711215,207.315999 512.166126,207.221517 512.502065,207.123535 L512.502065,209.790039 C512.124134,209.972006 511.567743,210.122477 510.832876,210.241455 C510.098009,210.360434 509.436638,210.419922 508.848745,210.419922 C504.397551,210.419922 502.171987,208.075382 502.171987,203.38623 L502.171987,189.696777 L498.8756,189.696777 L498.8756,188.01709 L502.171987,186.568359 L503.641714,181.655273 L505.657339,181.655273 L505.657339,186.988281 L512.334096,186.988281 L512.334096,189.696777 L505.657339,189.696777 L505.657339,203.239258 C505.657339,204.625007 505.986274,205.688798 506.644155,206.430664 C507.302036,207.17253 508.204859,207.543457 509.352651,207.543457 Z" id="Choose-Jefferson-Cit" fill="#434444"></path>
                        <path d="M94.1063335,45.464 L105.194333,22.424 C94.2503335,15.368 78.4103335,10.76 63.0023335,10.76 C37.8023335,10.76 21.2423335,23.144 21.2423335,42.584 C21.2423335,78.152 73.9463335,68.504 73.9463335,83.768 C73.9463335,88.376 69.9143335,90.536 63.5783335,90.536 C53.2103335,90.536 36.3623335,83.912 25.9943335,75.128 L14.7623335,97.88 C27.4343335,107.816 46.1543335,113.864 63.2903335,113.864 C85.8983335,113.864 104.906333,103.64 104.906333,82.184 C104.906333,45.752 52.2023335,54.536 52.2023335,39.704 C52.2023335,35.96 55.5143335,34.232 60.5543335,34.232 C69.0503335,34.232 83.7383335,39.56 94.1063335,45.464 Z M222.848222,33.512 C210.608222,33.512 201.392222,39.56 196.352222,50.504 C192.176222,39.848 182.816222,33.512 170.576222,33.512 C159.920222,33.512 151.568222,38.12 146.240222,46.616 L146.240222,34.664 L117.152222,34.664 L117.152222,113 L146.240222,113 L146.240222,74.264 C146.240222,65.336 150.992222,59.144 158.624222,59 C165.104222,59 169.424222,63.896 169.424222,71.672 L169.424222,113 L198.512222,113 L198.512222,74.264 C198.512222,65.336 203.264222,59.144 210.752222,59 C217.232222,59 221.552222,63.896 221.552222,71.672 L221.552222,113 L250.640222,113 L250.640222,63.32 C250.640222,45.176 239.408222,33.512 222.848222,33.512 Z M281.750111,0.248 C274.406111,0.248 269.366111,5.432 269.366111,12.776 C269.366111,19.832 274.406111,25.016 281.750111,25.016 C289.094111,25.016 294.134111,19.832 294.134111,12.776 C294.134111,5.432 289.094111,0.248 281.750111,0.248 Z M267.062111,34.664 L267.062111,113 L296.150111,113 L296.150111,34.664 L267.062111,34.664 Z M315.452,6.152 L315.452,113 L344.54,113 L344.54,6.152 L315.452,6.152 Z M399.265889,33.656 C426.769889,33.656 441.745889,52.088 440.017889,80.888 L387.313889,80.888 C389.617889,88.376 395.089889,92.552 402.577889,92.552 C408.769889,92.552 414.673889,89.816 419.857889,85.064 L434.977889,99.896 C426.769889,108.968 414.961889,114.008 400.129889,114.008 C373.921889,114.008 357.937889,98.168 357.937889,74.12 C357.937889,49.64 374.497889,33.656 399.265889,33.656 Z M411.361889,66.632 C411.505889,58.856 406.609889,53.384 399.553889,53.384 C392.641889,53.384 388.177889,58.712 386.737889,66.632 L411.361889,66.632 Z M507.847778,61.16 L517.495778,42.872 C506.839778,36.68 494.887778,33.368 483.079778,33.368 C463.351778,33.368 449.671778,43.16 449.671778,59.576 C449.671778,86.36 489.703778,82.04 489.703778,90.968 C489.703778,93.416 487.111778,94.568 483.223778,94.568 C474.583778,94.568 464.647778,91.256 454.855778,84.92 L445.927778,103.208 C456.151778,110.552 468.967778,114.296 482.791778,114.296 C503.239778,114.296 517.207778,104.504 517.207778,88.376 C517.207778,61.592 476.311778,65.48 476.311778,56.696 C476.311778,54.248 478.615778,52.952 482.215778,52.952 C488.407778,52.952 497.191778,55.688 507.847778,61.16 Z" id="Smiles" fill="#3FBFD5"></path>
                    </g>
                    <path d="M48.2838307,14.496 L52.1478307,9.68 C48.3398307,5.928 42.7958307,3.632 37.2518307,3.632 C25.6598307,3.632 16.6438307,12.2 16.6438307,23.344 C16.6438307,34.6 25.5478307,43.28 37.0278307,43.28 C42.5718307,43.28 48.2278307,40.76 52.2038307,36.84 L48.2838307,32.472 C45.3158307,35.328 41.2838307,37.12 37.3638307,37.12 C29.5238307,37.12 23.3638307,31.016 23.3638307,23.288 C23.3638307,15.56 29.5238307,9.512 37.3638307,9.512 C41.3398307,9.512 45.4278307,11.416 48.2838307,14.496 Z M65.5758495,19.144 L65.5758495,13.208 L59.1358495,13.208 L59.1358495,43 L65.5758495,43 L65.5758495,27.432 C66.0798495,22.336 69.8878495,18.808 75.8798495,19.144 L75.8798495,12.984 C71.1758495,12.984 67.5918495,15.112 65.5758495,19.144 Z M94.0678683,12.984 C104.539868,12.984 108.795868,19.816 108.011868,30.568 L85.4998683,30.568 C86.5078683,35.16 90.0358683,38.016 94.7398683,38.016 C97.9878683,38.016 100.955868,36.784 103.139868,34.544 L106.555868,38.184 C103.643868,41.376 99.3878683,43.224 94.2358683,43.224 C85.0518683,43.224 79.0038683,37.12 79.0038683,28.16 C79.0038683,19.144 85.2198683,13.04 94.0678683,12.984 Z M85.3878683,25.864 L102.411868,25.864 C102.187868,21.048 98.9958683,18.136 94.1238683,18.136 C89.4198683,18.136 86.0598683,21.104 85.3878683,25.864 Z M139.527887,43 L133.199887,43 L133.199887,39.36 C131.071887,41.992 127.655887,43.28 123.343887,43.28 C116.903887,43.28 112.871887,39.304 112.871887,34.04 C112.871887,28.608 116.959887,25.136 124.127887,25.08 L133.143887,25.08 L133.143887,24.184 C133.143887,20.432 130.735887,18.192 126.031887,18.192 C123.175887,18.192 120.207887,19.2 117.239887,21.216 L114.607887,16.736 C118.751887,14.272 121.775887,12.984 127.431887,12.984 C135.103887,12.984 139.415887,16.904 139.471887,23.456 L139.527887,43 Z M124.687887,38.184 C129.279887,38.184 132.807887,35.776 133.143887,32.528 L133.143887,29.784 L125.079887,29.784 C120.879887,29.784 118.919887,30.904 118.919887,33.76 C118.919887,36.448 121.103887,38.184 124.687887,38.184 Z M163.987906,36.168 C162.251906,37.008 160.851906,37.456 159.507906,37.456 C157.491906,37.456 156.315906,36.504 156.315906,33.424 L156.315906,19.144 L165.107906,19.144 L165.107906,14.328 L156.315906,14.328 L156.315906,6.152 L149.931906,6.152 L149.931906,14.328 L145.731906,14.328 L145.731906,19.144 L149.931906,19.144 L149.931906,34.6 C149.931906,40.704 153.795906,43.28 158.275906,43.28 C160.795906,43.28 163.259906,42.496 165.611906,41.096 L163.987906,36.168 Z M175.343925,0.832 C173.215925,0.832 171.591925,2.456 171.591925,4.696 C171.591925,6.88 173.215925,8.504 175.343925,8.504 C177.471925,8.504 179.095925,6.88 179.095925,4.696 C179.095925,2.456 177.471925,0.832 175.343925,0.832 Z M172.151925,13.208 L172.151925,43 L178.535925,43 L178.535925,13.208 L172.151925,13.208 Z M206.075944,12.984 C201.035944,12.984 197.227944,14.776 195.099944,18.92 L195.099944,13.208 L188.659944,13.208 L188.659944,43 L195.099944,43 L195.099944,27.152 C195.547944,22.504 198.627944,19.088 203.555944,19.032 C208.035944,19.032 210.723944,21.776 210.723944,26.256 L210.723944,43 L217.163944,43 L217.163944,24.464 C217.163944,17.352 213.019944,12.984 206.075944,12.984 Z M246.887962,13.208 L253.271962,13.208 L253.271962,40.088 C253.271962,48.656 247.167962,54.032 237.815962,54.032 C233.167962,54.032 229.079962,52.576 225.439962,50.112 L228.183962,45.464 C230.983962,47.536 233.895962,48.712 237.535962,48.712 C243.191962,48.712 246.887962,45.408 246.887962,40.256 L246.887962,36.504 C244.871962,39.752 241.511962,41.544 237.031962,41.544 C228.967962,41.544 223.591962,35.72 223.591962,27.152 C223.591962,18.752 228.911962,13.04 236.807962,12.984 C241.399962,12.928 244.815962,14.776 246.887962,18.024 L246.887962,13.208 Z M238.319962,36.504 C243.359962,36.504 246.887962,32.696 246.887962,27.32 C246.887962,21.944 243.359962,18.192 238.319962,18.192 C233.223962,18.192 229.695962,22 229.639962,27.32 C229.695962,32.696 233.167962,36.504 238.319962,36.504 Z M297.656,3.8 C305.776,3.8 310.816,7.496 310.816,13.6 C310.816,17.968 308.184,21.272 303.928,22.336 C309.192,23.232 312.328,26.984 312.328,32.248 C312.328,38.968 306.896,43 298.048,43 L280.632,43 L280.632,3.8 L297.656,3.8 Z M297.32,20.04 C301.52,20.04 304.04,18.136 304.04,14.776 C304.04,11.528 301.52,9.68 297.32,9.736 L287.24,9.736 L287.24,20.04 L297.32,20.04 Z M297.32,37.064 C302.472,37.12 305.552,35.048 305.552,31.408 C305.552,27.936 302.472,25.808 297.32,25.864 L287.24,25.864 L287.24,37.064 L297.32,37.064 Z M332.644019,12.984 C343.116019,12.984 347.372019,19.816 346.588019,30.568 L324.076019,30.568 C325.084019,35.16 328.612019,38.016 333.316019,38.016 C336.564019,38.016 339.532019,36.784 341.716019,34.544 L345.132019,38.184 C342.220019,41.376 337.964019,43.224 332.812019,43.224 C323.628019,43.224 317.580019,37.12 317.580019,28.16 C317.580019,19.144 323.796019,13.04 332.644019,12.984 Z M323.964019,25.864 L340.988019,25.864 C340.764019,21.048 337.572019,18.136 332.700019,18.136 C327.996019,18.136 324.636019,21.104 323.964019,25.864 Z M378.104038,43 L371.776038,43 L371.776038,39.36 C369.648038,41.992 366.232038,43.28 361.920038,43.28 C355.480038,43.28 351.448038,39.304 351.448038,34.04 C351.448038,28.608 355.536038,25.136 362.704038,25.08 L371.720038,25.08 L371.720038,24.184 C371.720038,20.432 369.312038,18.192 364.608038,18.192 C361.752038,18.192 358.784038,19.2 355.816038,21.216 L353.184038,16.736 C357.328038,14.272 360.352038,12.984 366.008038,12.984 C373.680038,12.984 377.992038,16.904 378.048038,23.456 L378.104038,43 Z M363.264038,38.184 C367.856038,38.184 371.384038,35.776 371.720038,32.528 L371.720038,29.784 L363.656038,29.784 C359.456038,29.784 357.496038,30.904 357.496038,33.76 C357.496038,36.448 359.680038,38.184 363.264038,38.184 Z M407.940056,13.208 L407.940056,27.88 C407.940056,33.088 404.916056,37.064 399.764056,37.176 C395.452056,37.176 392.820056,34.432 392.820056,29.952 L392.820056,13.208 L386.380056,13.208 L386.380056,31.744 C386.380056,38.856 390.468056,43.224 397.300056,43.224 C402.172056,43.168 405.924056,41.32 407.940056,37.176 L407.940056,43 L414.380056,43 L414.380056,13.208 L407.940056,13.208 Z M439.736075,36.168 C438.000075,37.008 436.600075,37.456 435.256075,37.456 C433.240075,37.456 432.064075,36.504 432.064075,33.424 L432.064075,19.144 L440.856075,19.144 L440.856075,14.328 L432.064075,14.328 L432.064075,6.152 L425.680075,6.152 L425.680075,14.328 L421.480075,14.328 L421.480075,19.144 L425.680075,19.144 L425.680075,34.6 C425.680075,40.704 429.544075,43.28 434.024075,43.28 C436.544075,43.28 439.008075,42.496 441.360075,41.096 L439.736075,36.168 Z M451.092094,0.832 C448.964094,0.832 447.340094,2.456 447.340094,4.696 C447.340094,6.88 448.964094,8.504 451.092094,8.504 C453.220094,8.504 454.844094,6.88 454.844094,4.696 C454.844094,2.456 453.220094,0.832 451.092094,0.832 Z M447.900094,13.208 L447.900094,43 L454.284094,43 L454.284094,13.208 L447.900094,13.208 Z M476.056113,6.768 C477.400113,6.768 478.912113,7.272 480.144113,8.168 L482.608113,3.24 C480.704113,1.84 478.296113,1.168 475.888113,1.168 C470.736113,1.168 465.640113,4.472 465.640113,11.416 L465.640113,14.328 L461.720113,14.328 L461.720113,19.144 L465.640113,19.144 L465.640113,43 L472.024113,43 L472.024113,19.144 L479.808113,19.144 L479.808113,14.328 L472.024113,14.328 L472.024113,10.8 C472.024113,8 473.872113,6.768 476.056113,6.768 Z M505.332132,13.208 L505.332132,27.88 C505.332132,33.088 502.308132,37.064 497.156132,37.176 C492.844132,37.176 490.212132,34.432 490.212132,29.952 L490.212132,13.208 L483.772132,13.208 L483.772132,31.744 C483.772132,38.856 487.860132,43.224 494.692132,43.224 C499.564132,43.168 503.316132,41.32 505.332132,37.176 L505.332132,43 L511.772132,43 L511.772132,13.208 L505.332132,13.208 Z M522.17615,1.448 L522.17615,43 L528.61615,43 L528.61615,1.448 L522.17615,1.448 Z" id="Creating-Beautiful" fill="#076DAD"></path>
                </g>
            </g>
        </g>
    </g>
</svg>