<?xml version="1.0" encoding="utf-8"?>
<!-- Generator: Adobe Illustrator 21.1.0, SVG Export Plug-In . SVG Version: 6.00 Build 0)  -->
<svg version="1.1" id="Layer_1" xmlns="http://www.w3.org/2000/svg" xmlns:xlink="http://www.w3.org/1999/xlink" x="0px" y="0px"
	 viewBox="0 0 599 203" style="enable-background:new 0 0 599 203;" xml:space="preserve">
<style type="text/css">
	.st0{enable-background:new    ;}
	.st1{fill:#066DAD;}
	.st2{fill:#3FBFD5;}
	.st3{fill:#434444;}
</style>
<title>Group 2</title>
<desc>Created with Sketch.</desc>
<g id="Group-2" transform="translate(1309.000000, 148.000000)">
	<g class="st0">
		<path class="st1" d="M-1271.2-83.6c-2.6-1.1-5.2-1.7-8-1.7c-3.6,0-6.9,0.9-9.9,2.6c-3,1.8-5.4,4.1-7.2,7.1c-1.8,3-2.6,6.3-2.6,9.9
			c0,3.6,0.9,6.8,2.6,9.9s4.1,5.4,7.2,7.2c3,1.8,6.3,2.6,9.9,2.6c2.7,0,5.3-0.5,7.9-1.6c2.6-1.1,4.9-2.6,6.9-4.5l4.2,4.6
			c-2.6,2.5-5.6,4.5-9,5.9c-3.4,1.4-6.9,2.2-10.4,2.2c-4.9,0-9.3-1.2-13.4-3.5c-4-2.3-7.2-5.5-9.6-9.5c-2.3-4-3.5-8.4-3.5-13.2
			c0-4.8,1.2-9.1,3.5-13.1c2.4-4,5.6-7.1,9.7-9.4c4.1-2.3,8.6-3.4,13.5-3.4c3.6,0,7,0.7,10.3,2c3.3,1.3,6.2,3.2,8.7,5.7l-4.2,5
			C-1266.4-80.9-1268.6-82.5-1271.2-83.6z"/>
		<path class="st1" d="M-1237.9-76.6c2.3-1.4,5.1-2.2,8.3-2.2v6.6c-3.9-0.1-7.1,0.9-9.6,3.1c-2.4,2.2-3.8,5.1-4.2,8.8V-40h-6.8
			v-38.6h6.8v8.3C-1242-73.1-1240.2-75.2-1237.9-76.6z"/>
		<path class="st1" d="M-1192.2-73.5c3.1,3.5,4.6,8.4,4.6,14.7c0,1,0,1.7-0.1,2.2h-30.5c0.5,3.5,2,6.2,4.3,8.2
			c2.4,2,5.3,3.1,8.7,3.1c2.3,0,4.4-0.4,6.4-1.2c2-0.8,3.7-2,5.1-3.5l3.7,3.9c-1.9,2-4.2,3.6-6.9,4.7c-2.7,1.1-5.6,1.7-8.9,1.7
			c-3.8,0-7.2-0.8-10.1-2.4c-2.9-1.6-5.2-3.9-6.9-6.9c-1.6-3-2.4-6.4-2.4-10.1c0-3.8,0.8-7.2,2.4-10.1c1.6-2.9,3.9-5.3,6.8-6.9
			s6.3-2.5,10-2.5C-1199.8-78.8-1195.3-77.1-1192.2-73.5z M-1193.7-61.9c-0.2-3.5-1.4-6.3-3.5-8.3c-2.1-2-5-3-8.5-3
			c-3.4,0-6.2,1-8.5,3.1s-3.6,4.8-4.1,8.2H-1193.7z"/>
		<path class="st1" d="M-1153.8-40v-5.4c-2.9,3.8-7.4,5.7-13.5,5.7c-2.7,0-5-0.5-7-1.5c-2-1-3.6-2.4-4.7-4.2s-1.6-3.8-1.6-6.1
			c0-3.5,1.3-6.2,3.8-8.2c2.6-2,6.1-3.1,10.7-3.1h12.3v-1.8c0-2.7-0.8-4.8-2.5-6.3c-1.7-1.5-4.1-2.2-7.3-2.2
			c-3.9,0-7.9,1.4-11.9,4.2l-2.8-4.7c2.8-1.8,5.3-3.1,7.7-3.9c2.4-0.8,5.2-1.2,8.4-1.2c4.8,0,8.5,1.2,11.2,3.5c2.6,2.4,4,5.7,4,9.9
			l0.1,25.4H-1153.8z M-1157.9-47.6c2.2-1.5,3.5-3.6,4-6.1v-3.9h-11.3c-3.1,0-5.3,0.5-6.8,1.4c-1.5,0.9-2.2,2.4-2.2,4.4
			c0,2,0.8,3.6,2.3,4.7c1.5,1.2,3.5,1.8,6.1,1.8C-1162.8-45.3-1160.1-46.1-1157.9-47.6z"/>
		<path class="st1" d="M-1113.3-42.6c-3,1.9-6,2.8-9.1,2.8c-3.1,0-5.5-0.9-7.4-2.7s-2.8-4.6-2.8-8.3v-21.4h-5.5v-5.2h5.5v-10.4h6.9
			v10.4h11.8v5.2h-11.8V-52c0,2.1,0.4,3.7,1.2,4.6c0.8,0.9,1.9,1.4,3.5,1.4c1.8,0,3.8-0.6,6-1.8L-1113.3-42.6z"/>
		<path class="st1" d="M-1097.7-92.8c0.8,0.8,1.2,1.9,1.2,3.1s-0.4,2.3-1.2,3.1c-0.8,0.8-1.8,1.2-3,1.2c-1.2,0-2.2-0.4-3-1.2
			c-0.8-0.8-1.2-1.9-1.2-3.1s0.4-2.3,1.2-3.1c0.8-0.8,1.8-1.2,3-1.2C-1099.5-94-1098.5-93.6-1097.7-92.8z M-1104.1-78.6h6.8V-40
			h-6.8V-78.6z"/>
		<path class="st1" d="M-1054-74.9c2.6,2.7,3.9,6.3,3.9,11V-40h-6.8v-22c0-3.3-0.9-5.8-2.7-7.6c-1.8-1.8-4.3-2.7-7.6-2.7
			c-3.5,0-6.3,1.2-8.4,3.3c-2.2,2.2-3.4,5-3.7,8.4V-40h-6.8v-38.6h6.8v8.2c2.6-5.5,7.5-8.3,14.7-8.4
			C-1060.1-78.8-1056.5-77.5-1054-74.9z"/>
		<path class="st1" d="M-1002.9-78.6v34.7c0,3.7-0.8,6.9-2.4,9.7c-1.6,2.8-3.9,4.9-6.9,6.4c-3,1.5-6.4,2.2-10.4,2.2
			c-5.7,0-11-1.8-15.9-5.4l3-5c1.9,1.6,3.9,2.7,5.9,3.5c2,0.8,4.3,1.1,6.7,1.1c4,0,7.2-1.1,9.6-3.4c2.4-2.2,3.6-5.2,3.6-9v-5.4
			c-1.4,2.3-3.2,4.1-5.5,5.4c-2.3,1.3-5,1.9-8,1.9c-3.5,0-6.5-0.8-9.2-2.4c-2.7-1.6-4.7-3.8-6.2-6.6c-1.5-2.8-2.2-6.1-2.2-9.7
			c0-3.6,0.7-6.8,2.2-9.6s3.5-4.9,6.2-6.5c2.7-1.6,5.7-2.3,9.2-2.3c3.1,0,5.8,0.6,8.1,1.9c2.3,1.3,4.1,3.1,5.5,5.4v-7.1H-1002.9z
			 M-1015.6-48.9c1.8-1.1,3.3-2.7,4.3-4.6c1-2,1.6-4.2,1.6-6.7c0-2.5-0.5-4.8-1.6-6.8c-1-2-2.5-3.5-4.3-4.6c-1.9-1.1-4-1.7-6.4-1.7
			c-2.4,0-4.5,0.6-6.4,1.7c-1.9,1.1-3.3,2.7-4.4,4.6c-1.1,2-1.6,4.2-1.6,6.8c0,3.8,1.2,6.9,3.5,9.3c2.3,2.4,5.3,3.7,8.9,3.7
			C-1019.6-47.2-1017.5-47.8-1015.6-48.9z"/>
	</g>
	<g class="st0">
		<path class="st2" d="M-942.6-79.7c-3.1-1-5.7-1.5-7.8-1.5c-1.7,0-3,0.3-3.9,0.9s-1.4,1.5-1.4,2.7c0,1.1,0.4,2.1,1.2,2.8
			c0.8,0.8,1.8,1.4,3.1,1.8c1.2,0.5,3,1.1,5.4,1.8c3.6,1,6.5,2,8.8,3.1c2.3,1,4.3,2.6,5.9,4.7c1.7,2.1,2.5,4.9,2.5,8.3
			s-0.9,6.3-2.7,8.7c-1.8,2.4-4.3,4.2-7.4,5.4c-3.1,1.2-6.6,1.8-10.5,1.8c-4.2,0-8.5-0.7-12.7-2.2c-4.2-1.5-7.8-3.5-10.9-6.1
			l5.2-10.4c2.6,2.3,5.6,4.2,9.2,5.6c3.5,1.5,6.7,2.2,9.4,2.2c2,0,3.6-0.4,4.7-1.1c1.1-0.7,1.7-1.8,1.7-3.2c0-1.2-0.4-2.1-1.3-2.9
			c-0.9-0.8-1.9-1.4-3.2-1.9c-1.3-0.5-3.1-1-5.4-1.6c-3.5-1-6.4-2-8.7-3c-2.3-1-4.2-2.5-5.9-4.5c-1.6-2-2.4-4.7-2.4-8.1
			c0-3.2,0.8-5.9,2.5-8.3c1.7-2.4,4.1-4.2,7.2-5.5c3.1-1.3,6.7-1.9,10.8-1.9c3.7,0,7.3,0.5,11,1.6c3.6,1,6.8,2.4,9.5,4.2l-5,10.7
			C-936.6-77.4-939.5-78.7-942.6-79.7z"/>
		<path class="st2" d="M-858-75.9c2.6,2.7,3.9,6.4,3.9,11V-40h-13v-21.2c0-2.2-0.6-4-1.8-5.3c-1.2-1.3-2.8-1.9-4.7-1.9
			c-2.3,0-4.1,0.9-5.4,2.5c-1.3,1.6-2,3.8-2,6.4V-40h-13v-21.2c0-2.2-0.6-4-1.8-5.3c-1.2-1.3-2.8-1.9-4.7-1.9
			c-2.3,0-4.1,0.9-5.5,2.5c-1.4,1.6-2,3.8-2,6.4V-40H-921v-39.5h12.9v6.5c1.4-2.3,3.1-4,5.3-5.2c2.2-1.2,4.7-1.8,7.6-1.8
			c3.2,0,6,0.8,8.2,2.3c2.3,1.6,3.9,3.7,4.9,6.5c1.3-2.9,3.1-5.1,5.4-6.6c2.4-1.5,5.1-2.2,8.4-2.2C-864-80-860.6-78.6-858-75.9z"/>
		<path class="st2" d="M-833.1-95.7c1.3,1.3,1.9,3,1.9,5c0,2-0.6,3.7-1.9,5c-1.3,1.3-2.9,2-4.9,2c-2,0-3.6-0.7-4.9-2
			c-1.3-1.3-1.9-3-1.9-5c0-2,0.6-3.7,1.9-5c1.3-1.3,2.9-1.9,4.9-1.9C-836-97.7-834.4-97-833.1-95.7z M-844.4-79.5h12.9V-40h-12.9
			V-79.5z"/>
		<path class="st2" d="M-820.2-94.2h13V-40h-13V-94.2z"/>
		<path class="st2" d="M-765.2-74.2c3.5,3.8,5.2,9,5.2,15.6c0,1,0,1.8-0.1,2.3h-27.4c0.6,2.2,1.7,4,3.3,5.1c1.6,1.2,3.5,1.8,5.7,1.8
			c1.7,0,3.3-0.3,4.9-1c1.6-0.7,3-1.7,4.3-3l6.8,6.8c-2,2.3-4.5,4-7.4,5.2c-2.9,1.2-6.2,1.8-9.8,1.8c-4.2,0-7.9-0.8-11.1-2.5
			c-3.2-1.7-5.6-4-7.3-7c-1.7-3-2.5-6.5-2.5-10.5c0-4,0.9-7.6,2.6-10.7c1.7-3.1,4.1-5.5,7.2-7.2c3.1-1.7,6.7-2.5,10.8-2.5
			C-773.6-79.9-768.7-78-765.2-74.2z M-772.7-63.2c0-2.3-0.7-4.1-2-5.5c-1.3-1.4-3.1-2.1-5.3-2.1c-2,0-3.8,0.7-5.1,2
			c-1.4,1.4-2.3,3.2-2.7,5.5H-772.7z"/>
		<path class="st2" d="M-738.7-71c-1.1,0-2,0.2-2.7,0.6c-0.7,0.4-1,1-1,1.9c0,0.9,0.5,1.6,1.6,2.1c1.1,0.5,2.8,1.1,5.1,1.8
			c2.8,0.8,5.2,1.6,7,2.4c1.9,0.8,3.5,2,4.9,3.7c1.4,1.6,2,3.8,2,6.4c0,4-1.5,7.1-4.6,9.4c-3.1,2.3-7.1,3.4-12.1,3.4
			c-3.4,0-6.6-0.5-9.6-1.4c-3.1-0.9-5.8-2.3-8.2-4.2l4.1-8.4c2.2,1.6,4.6,2.8,7,3.6c2.5,0.9,4.8,1.3,7,1.3c1.3,0,2.3-0.2,3-0.6
			c0.8-0.4,1.1-1,1.1-1.8c0-1-0.5-1.7-1.6-2.3c-1.1-0.5-2.8-1.1-5.1-1.8c-2.8-0.8-5.1-1.6-6.9-2.4c-1.8-0.8-3.4-2-4.7-3.6
			c-1.3-1.6-2-3.7-2-6.3c0-4,1.5-7.1,4.5-9.4c3-2.3,6.9-3.4,11.7-3.4c2.9,0,5.7,0.4,8.5,1.2c2.8,0.8,5.4,1.9,7.9,3.4l-4.4,8.5
			C-731.2-69.7-735.4-71-738.7-71z"/>
	</g>
</g>
<g>
	<path class="st3" d="M83.8,33.5c-0.2,0.7-0.3,1.5-0.5,2.2s-0.4,1.5-0.6,2.2c-0.2,0.7-0.4,1.3-0.5,1.9s-0.3,0.9-0.4,1.2H60.1
		l0.2-1.8c1.1-0.2,1.9-0.5,2.5-0.8c0.6-0.3,0.9-0.5,0.9-0.8l3.4-24.6c0-0.2-0.2-0.4-0.6-0.7c-0.5-0.3-1.2-0.6-2.3-0.8l0.2-1.8h20.3
		l0.8,0.8c-0.1,0.4-0.2,1-0.3,1.6c-0.1,0.6-0.3,1.3-0.5,2s-0.4,1.3-0.5,1.9s-0.3,1.1-0.5,1.4h-1.7c0.1-1.5,0.1-2.7-0.1-3.5
		c-0.2-0.8-0.6-1.2-1.2-1.2h-7.7l-1.4,10.1h9.2l0.7,0.9c-0.1,0.2-0.3,0.5-0.6,0.8s-0.5,0.6-0.7,0.9c-0.2,0.3-0.5,0.6-0.7,0.9
		c-0.2,0.3-0.4,0.5-0.6,0.6c-0.2-0.2-0.5-0.5-0.7-0.6c-0.3-0.2-0.6-0.3-0.9-0.4c-0.4-0.1-0.8-0.2-1.3-0.2c-0.5,0-1.1-0.1-1.8-0.1
		h-2.9l-1.5,11c0,0.2,0,0.5,0.1,0.7c0.1,0.2,0.3,0.4,0.6,0.5c0.3,0.1,0.8,0.2,1.4,0.3c0.6,0.1,1.4,0.1,2.4,0.1h2.3
		c0.7,0,1.3-0.1,1.8-0.3s1-0.5,1.4-0.9c0.4-0.4,0.8-0.9,1.2-1.6c0.4-0.7,0.8-1.5,1.3-2.5L83.8,33.5z"/>
	<path class="st3" d="M108.4,38.5c-0.7,0.5-1.4,1-2.1,1.4c-0.7,0.4-1.3,0.8-1.9,1.1c-0.6,0.3-1.2,0.6-1.7,0.8
		c-0.5,0.2-1,0.3-1.4,0.3c-0.5,0-0.9-0.2-1.4-0.6c-0.5-0.4-0.9-1-1.4-1.7c-0.5-0.7-0.9-1.6-1.3-2.5c-0.4-1-0.9-1.9-1.3-3
		c-0.7,0.9-1.4,1.9-2.2,3c-0.8,1.1-1.6,2.3-2.5,3.7c-0.3,0-0.7,0.1-1.3,0.2c-0.6,0.1-1.2,0.2-1.8,0.3c-0.6,0.1-1.2,0.2-1.8,0.3
		c-0.6,0.1-1,0.2-1.3,0.3L84.2,41c0.7-0.6,1.5-1.3,2.4-2.2c0.9-0.8,1.8-1.7,2.7-2.5c0.9-0.9,1.8-1.8,2.7-2.7
		c0.9-0.9,1.7-1.8,2.5-2.7c-0.4-1.2-0.9-2.3-1.3-3.3c-0.4-1.1-0.9-2-1.3-2.8c-0.4-0.8-0.8-1.5-1.2-2c-0.4-0.5-0.8-0.7-1.1-0.7
		c-0.1,0-0.4,0-0.7,0.1c-0.3,0.1-0.7,0.1-1.1,0.2c-0.4,0.1-0.9,0.2-1.4,0.3L85.8,21c0.7-0.3,1.4-0.7,2.2-1.1s1.5-0.7,2.2-1
		c0.7-0.3,1.3-0.6,1.9-0.7s1-0.3,1.2-0.3c0.4,0,0.9,0.2,1.3,0.7c0.4,0.5,0.9,1.2,1.4,2s0.9,1.8,1.4,2.9c0.5,1.1,0.9,2.2,1.4,3.4
		c0.5-0.7,1.1-1.3,1.5-2c0.5-0.6,0.9-1.2,1.2-1.7c0.3-0.5,0.6-0.9,0.8-1.3c0.2-0.3,0.3-0.6,0.3-0.7c0-0.3-0.2-0.6-0.6-0.7
		s-1.1-0.2-2.2,0l-0.1-1.8c0.5-0.1,1.1-0.2,1.8-0.3c0.6-0.1,1.3-0.2,1.9-0.2c0.6-0.1,1.2-0.1,1.7-0.2c0.5,0,1-0.1,1.3-0.1
		c1,0,1.7,0.1,2.1,0.4c0.4,0.3,0.6,0.6,0.6,0.9c0,0.6-0.8,1.8-2.3,3.6c-1.5,1.7-3.8,4.1-6.7,7.2c0.4,1,0.8,2,1.2,3
		c0.4,0.9,0.8,1.8,1.2,2.5s0.8,1.3,1.1,1.7c0.4,0.4,0.7,0.6,1.1,0.6c0.4,0,0.9-0.1,1.4-0.2c0.6-0.1,1.2-0.3,1.8-0.6L108.4,38.5z"/>
	<path class="st3" d="M119.3,19.5c0,0.7-0.1,1.8-0.4,3.5c0.9-1.1,1.8-1.9,2.5-2.6s1.5-1.2,2.2-1.6c0.7-0.4,1.3-0.6,1.9-0.8
		c0.6-0.1,1.2-0.2,1.7-0.2c0.7,0,1.4,0.2,2.1,0.5c0.7,0.3,1.2,0.8,1.7,1.5c0.5,0.7,0.9,1.5,1.2,2.4c0.3,1,0.4,2,0.4,3.3
		c0,1-0.1,2-0.3,3c-0.2,1-0.4,2-0.7,3c-0.3,1-0.6,2-1.1,2.9c-0.4,0.9-0.8,1.8-1.3,2.5c-0.4,0.6-0.8,1.2-1.3,1.9
		c-0.5,0.6-1,1.2-1.6,1.6c-0.6,0.5-1.2,0.9-1.8,1.2c-0.6,0.3-1.3,0.5-2,0.5c-0.4,0-0.9-0.1-1.4-0.3c-0.5-0.2-1-0.5-1.6-0.9
		c-0.5-0.4-1.1-0.9-1.6-1.5s-1.1-1.2-1.6-1.9l-0.6,3.5c-0.3,1.7-0.5,3.2-0.7,4.4c-0.2,1.2-0.3,2.2-0.4,3c-0.1,0.8-0.1,1.4-0.1,1.9
		c0,0.5,0.1,0.8,0.1,1c-0.2,0.1-0.6,0.2-1.2,0.4s-1.1,0.4-1.7,0.7c-0.6,0.2-1.2,0.5-1.7,0.7c-0.5,0.2-0.9,0.4-1.1,0.5l-1-0.9
		c0.1-0.5,0.2-1.2,0.3-2.2c0.2-1,0.4-2.1,0.6-3.4c0.2-1.3,0.5-2.7,0.8-4.2c0.3-1.5,0.6-3,0.8-4.6c0.3-1.6,0.6-3.1,0.8-4.6
		c0.3-1.5,0.5-2.9,0.7-4.2s0.4-2.5,0.5-3.5c0.1-1,0.2-1.8,0.2-2.3c0-0.4,0-0.7-0.1-0.9c-0.1-0.2-0.2-0.4-0.3-0.5s-0.2-0.2-0.4-0.2
		c-0.1,0-0.3,0-0.4,0c-0.1,0-0.4,0-0.6,0.1c-0.3,0.1-0.5,0.1-0.8,0.2c-0.3,0.1-0.6,0.2-0.9,0.3l-0.4-1.7c0.7-0.3,1.5-0.7,2.5-1.1
		s1.8-0.7,2.6-1c0.9-0.3,1.6-0.5,2.3-0.7s1.2-0.3,1.5-0.3c0.4,0,0.8,0.1,1,0.3S119.3,18.8,119.3,19.5z M124.3,22.2
		c-0.3,0-0.7,0.1-1.2,0.4c-0.5,0.3-1,0.7-1.6,1.2c-0.6,0.5-1.2,1.2-1.8,1.9c-0.6,0.8-1.2,1.6-1.7,2.6c-0.1,0.8-0.3,1.7-0.4,2.6
		c-0.2,0.9-0.3,1.9-0.5,3c0.3,0.4,0.6,0.8,1.1,1.2c0.4,0.4,0.9,0.7,1.4,1c0.5,0.3,1,0.5,1.5,0.7c0.5,0.2,1,0.3,1.4,0.3
		c0.7,0,1.3-0.2,1.9-0.6c0.6-0.4,1-1,1.3-1.6c0.4-0.9,0.7-1.9,0.9-3.2c0.2-1.2,0.3-2.4,0.3-3.7c0-0.9-0.1-1.7-0.2-2.4
		c-0.1-0.7-0.3-1.3-0.6-1.8c-0.2-0.5-0.5-0.9-0.8-1.2C124.9,22.3,124.6,22.2,124.3,22.2z"/>
	<path class="st3" d="M152.7,22.2c0,0.5-0.1,1-0.2,1.5c-0.1,0.5-0.3,1.1-0.6,1.6c-0.3,0.6-0.8,1.2-1.4,1.8c-0.6,0.6-1.4,1.3-2.4,1.9
		c-1,0.7-2.2,1.3-3.7,2c-1.4,0.7-3.2,1.4-5.2,2.1c0.1,0.8,0.3,1.5,0.5,2.1c0.2,0.6,0.5,1.2,0.8,1.6s0.7,0.8,1.1,1
		c0.4,0.2,0.8,0.4,1.2,0.4c0.7,0,1.7-0.3,3.1-1c1.3-0.6,3-1.8,5-3.4c0.1,0,0.2,0.2,0.3,0.3s0.2,0.3,0.3,0.5c0.1,0.2,0.2,0.4,0.3,0.5
		c0.1,0.2,0.1,0.3,0.2,0.4c-1.4,1.2-2.6,2.2-3.7,3c-1.1,0.8-2.1,1.5-3,2c-0.9,0.5-1.8,0.9-2.6,1.1c-0.8,0.2-1.6,0.3-2.3,0.3
		c-0.7,0-1.4-0.2-2.3-0.5c-0.8-0.3-1.6-0.8-2.3-1.5c-0.7-0.7-1.3-1.5-1.8-2.6c-0.5-1.1-0.7-2.4-0.7-4c0-1.3,0.2-2.5,0.5-3.7
		c0.3-1.2,0.8-2.3,1.4-3.4c0.6-1.1,1.3-2.1,2.1-3.1c0.8-1,1.8-1.9,2.8-2.8c0.4-0.3,0.8-0.6,1.4-1s1.1-0.6,1.8-0.9
		c0.6-0.3,1.3-0.5,2-0.7s1.3-0.3,2-0.3c0.9,0,1.8,0.1,2.4,0.4c0.7,0.3,1.3,0.6,1.7,1c0.4,0.4,0.8,0.9,1,1.4S152.7,21.7,152.7,22.2z
		 M142.1,22.8c-0.8,1-1.5,2-2,3.3s-0.8,2.6-0.9,4.2c1.6-0.7,2.9-1.4,3.9-2c1-0.6,1.7-1.2,2.2-1.7c0.5-0.5,0.8-1,1-1.5s0.2-1,0.2-1.6
		c0-0.8-0.2-1.3-0.5-1.7c-0.3-0.4-0.7-0.6-1.2-0.6c-0.1,0-0.3,0-0.5,0.1c-0.2,0.1-0.4,0.2-0.7,0.3c-0.2,0.1-0.5,0.3-0.8,0.5
		S142.3,22.5,142.1,22.8z"/>
	<path class="st3" d="M175.9,20c-0.1,0.2-0.3,0.4-0.5,0.8s-0.4,0.7-0.6,1.1c-0.2,0.4-0.5,0.8-0.7,1.2c-0.2,0.4-0.5,0.8-0.7,1.1
		c-0.2,0.3-0.4,0.6-0.6,0.8c-0.2,0.2-0.3,0.3-0.4,0.3c-0.3,0-0.6-0.1-0.9-0.3c-0.3-0.2-0.6-0.4-0.8-0.7c-0.3-0.2-0.5-0.5-0.8-0.7
		c-0.2-0.2-0.5-0.3-0.7-0.3c-0.4,0-0.9,0.2-1.4,0.6c-0.5,0.4-1.1,1-1.6,1.7s-1,1.6-1.5,2.6c-0.5,1-0.9,2.1-1.2,3.3
		c-0.3,1.2-0.6,2.5-0.9,3.9c-0.2,1.4-0.3,2.7-0.3,4c-0.3,0.1-0.7,0.3-1.2,0.5c-0.5,0.2-1.1,0.5-1.7,0.8c-0.6,0.3-1.1,0.5-1.6,0.8
		c-0.5,0.2-0.9,0.4-1.1,0.5l-1-0.9c0.4-1.8,0.7-3.5,1-5.3s0.6-3.4,0.8-5c0.2-1.6,0.4-3,0.6-4.2c0.1-1.2,0.2-2.2,0.2-3
		c0-0.4,0-0.7-0.1-0.9s-0.1-0.4-0.2-0.5c-0.1-0.1-0.2-0.2-0.3-0.2c-0.1,0-0.3,0-0.4,0c-0.2,0-0.4,0-0.6,0.1
		c-0.3,0.1-0.5,0.1-0.8,0.2c-0.3,0.1-0.6,0.2-0.9,0.3l-0.4-1.7c0.7-0.3,1.5-0.7,2.4-1c0.9-0.4,1.8-0.7,2.6-1
		c0.9-0.3,1.6-0.6,2.3-0.8c0.7-0.2,1.2-0.3,1.5-0.3c0.2,0,0.4,0,0.6,0.1c0.1,0.1,0.3,0.2,0.4,0.4c0.1,0.2,0.2,0.4,0.2,0.8
		s0,0.7,0,1.2c0,0.2,0,0.4,0,0.7c0,0.3-0.1,0.6-0.1,1c0,0.4-0.1,0.7-0.1,1.1c0,0.4-0.1,0.7-0.1,1c0.8-1.3,1.5-2.4,2.2-3.2
		s1.3-1.5,2-2c0.6-0.5,1.2-0.8,1.8-1s1.1-0.3,1.6-0.3c0.3,0,0.6,0.1,1,0.2c0.4,0.2,0.7,0.4,1.1,0.6c0.4,0.2,0.8,0.5,1.2,0.7
		S175.5,19.8,175.9,20z"/>
	<path class="st3" d="M190.9,37.2c-0.9,0.7-1.8,1.4-2.7,2c-0.9,0.6-1.8,1.1-2.6,1.5c-0.8,0.4-1.6,0.8-2.3,1
		c-0.7,0.2-1.3,0.4-1.7,0.4c-0.5,0-1-0.1-1.5-0.4c-0.5-0.2-1-0.6-1.4-1s-0.7-1-1-1.6c-0.2-0.6-0.4-1.3-0.4-2c0-0.3,0-0.6,0-0.9
		c0-0.3,0-0.6,0-1s0.1-0.7,0.1-1.1c0-0.4,0.1-0.8,0.2-1.3l1.8-11.3h-3.4l-0.6-1l3-2h1.4l0.1-0.9c0.1-0.7,0.2-1.2,0.3-1.6
		c0.1-0.4,0.2-0.7,0.4-0.9c0.1-0.2,0.3-0.4,0.5-0.5c0.2-0.1,0.4-0.3,0.6-0.4l4.7-2.3l0.7,0.6c-0.1,0.1-0.3,0.4-0.4,0.8
		c-0.1,0.3-0.3,0.8-0.4,1.4c-0.1,0.6-0.3,1.4-0.5,2.5l-0.2,1.4h6l0.7,0.9c-0.2,0.2-0.4,0.5-0.7,0.8c-0.3,0.3-0.7,0.7-1,1
		s-0.7,0.6-1,0.9c-0.3,0.3-0.5,0.4-0.7,0.5c-0.2-0.5-0.6-0.8-1.2-0.9c-0.6-0.1-1.4-0.2-2.5-0.2h-0.1l-1.4,9c0,0.3-0.1,0.6-0.1,1
		c0,0.4-0.1,0.7-0.1,1s0,0.6,0,0.9c0,0.3,0,0.5,0,0.7c0,1,0.2,1.8,0.5,2.2c0.3,0.4,0.7,0.6,1.2,0.6c0.6,0,1.3-0.1,2-0.4
		c0.8-0.2,1.8-0.7,3-1.2L190.9,37.2z"/>
	<path class="st3" d="M205,38.3c-0.8,0.5-1.6,0.9-2.4,1.4c-0.8,0.4-1.6,0.8-2.3,1.2c-0.8,0.4-1.5,0.6-2.1,0.9
		c-0.7,0.2-1.2,0.3-1.7,0.3c-0.6,0-1-0.3-1.4-0.8c-0.4-0.5-0.6-1.2-0.6-2.1c0-0.5,0.1-1.2,0.2-2c0.1-0.8,0.3-1.8,0.4-2.8
		s0.3-2.1,0.5-3.2s0.4-2.1,0.5-3.1s0.3-1.9,0.4-2.6c0.1-0.8,0.2-1.4,0.2-1.8c0-0.4,0-0.7-0.1-0.9c0-0.2-0.1-0.4-0.2-0.5
		s-0.2-0.2-0.3-0.2c-0.1,0-0.3,0-0.4,0c-0.1,0-0.3,0-0.6,0.1s-0.5,0.1-0.8,0.2c-0.3,0.1-0.6,0.2-0.9,0.3l-0.4-1.7
		c0.7-0.3,1.5-0.7,2.4-1c0.9-0.4,1.7-0.7,2.6-1c0.8-0.3,1.6-0.6,2.3-0.8c0.7-0.2,1.2-0.3,1.5-0.3c0.5,0,0.8,0.2,1.1,0.5
		c0.3,0.3,0.4,0.9,0.4,1.6c0,0.5-0.1,1.1-0.2,2c-0.1,0.9-0.3,1.8-0.4,2.8c-0.2,1-0.4,2.1-0.6,3.2c-0.2,1.1-0.4,2.2-0.6,3.2
		c-0.2,1-0.3,2-0.4,2.8c-0.1,0.9-0.2,1.5-0.2,2c0,0.5,0.1,0.9,0.2,1.1c0.1,0.2,0.3,0.3,0.6,0.3c0.2,0,0.5,0,0.7,0
		c0.2,0,0.5-0.1,0.7-0.1c0.2-0.1,0.5-0.1,0.7-0.2c0.3-0.1,0.6-0.2,0.9-0.4L205,38.3z M205.6,9.7c0,0.5-0.1,0.9-0.3,1.4
		c-0.2,0.5-0.5,1-0.8,1.4s-0.8,0.8-1.4,1c-0.5,0.3-1.2,0.4-1.9,0.4c-0.9,0-1.5-0.2-1.9-0.6c-0.4-0.4-0.6-0.9-0.6-1.5
		c0-0.4,0.1-0.9,0.3-1.4s0.5-1,0.8-1.4s0.8-0.8,1.4-1.1c0.5-0.3,1.2-0.4,1.9-0.4c0.9,0,1.5,0.2,1.9,0.6
		C205.4,8.7,205.6,9.2,205.6,9.7z"/>
	<path class="st3" d="M225.4,20.1c-0.3,0.4-0.6,0.8-1,1.2s-0.7,0.9-1.1,1.2c-0.4,0.4-0.7,0.7-1,1s-0.5,0.4-0.7,0.4
		c-0.3,0-0.6-0.2-0.9-0.5s-0.7-0.7-1.1-1.1c-0.4-0.4-0.9-0.8-1.3-1.1c-0.5-0.3-1-0.5-1.6-0.5c-0.9,0-1.6,0.2-2.1,0.7
		c-0.5,0.5-0.7,1.1-0.7,1.9c0,0.8,0.3,1.5,1,2c0.7,0.6,1.7,1.2,3,1.9c0.7,0.3,1.3,0.7,2,1.1c0.7,0.4,1.2,0.9,1.8,1.4
		c0.5,0.5,0.9,1.1,1.3,1.8c0.3,0.7,0.5,1.5,0.5,2.3c0,0.8-0.2,1.5-0.5,2.2c-0.3,0.7-0.8,1.4-1.3,2c-0.5,0.6-1.2,1.2-1.9,1.7
		c-0.7,0.5-1.5,0.9-2.3,1.3s-1.6,0.6-2.4,0.8c-0.8,0.2-1.6,0.3-2.3,0.3c-1.1,0-2-0.1-3-0.4c-0.9-0.3-1.7-0.6-2.4-1
		c-0.7-0.4-1.2-0.8-1.6-1.3c-0.4-0.4-0.6-0.8-0.6-1.2c0-0.2,0.1-0.6,0.4-1.1c0.2-0.5,0.5-1,0.8-1.5c0.3-0.5,0.6-1,1-1.4
		c0.3-0.4,0.6-0.6,0.8-0.6c0.1,0,0.3,0.1,0.5,0.4c0.2,0.3,0.4,0.6,0.6,1c0.2,0.4,0.5,0.8,0.8,1.3c0.3,0.5,0.7,0.9,1.1,1.3
		s0.9,0.7,1.4,1c0.5,0.3,1.2,0.4,1.9,0.4c1.1,0,2-0.3,2.6-0.9c0.6-0.6,0.9-1.4,0.9-2.4c0-0.6-0.1-1.1-0.4-1.6
		c-0.3-0.5-0.7-0.9-1.1-1.4c-0.5-0.4-1-0.8-1.6-1.2c-0.6-0.4-1.2-0.7-1.8-1c-0.9-0.4-1.6-0.9-2.2-1.4c-0.6-0.5-1-0.9-1.4-1.4
		c-0.3-0.5-0.6-1-0.7-1.5c-0.1-0.5-0.2-1-0.2-1.6c0-1,0.3-2,0.9-2.9c0.6-0.9,1.4-1.6,2.3-2.2c0.9-0.6,2-1.1,3.1-1.4
		c1.1-0.3,2.2-0.5,3.2-0.5c0.9,0,1.7,0.1,2.4,0.3c0.7,0.2,1.3,0.4,1.9,0.7c0.6,0.3,1.1,0.5,1.6,0.8C224.3,19.8,224.8,20,225.4,20.1z
		"/>
	<path class="st3" d="M245.8,22.2c0,0.5-0.1,1-0.2,1.5c-0.1,0.5-0.3,1.1-0.6,1.6c-0.3,0.6-0.8,1.2-1.4,1.8c-0.6,0.6-1.4,1.3-2.4,1.9
		c-1,0.7-2.2,1.3-3.7,2c-1.4,0.7-3.2,1.4-5.2,2.1c0.1,0.8,0.3,1.5,0.5,2.1c0.2,0.6,0.5,1.2,0.8,1.6s0.7,0.8,1.1,1
		c0.4,0.2,0.8,0.4,1.2,0.4c0.7,0,1.7-0.3,3.1-1c1.3-0.6,3-1.8,5-3.4c0.1,0,0.2,0.2,0.3,0.3s0.2,0.3,0.3,0.5c0.1,0.2,0.2,0.4,0.3,0.5
		c0.1,0.2,0.1,0.3,0.2,0.4c-1.4,1.2-2.6,2.2-3.7,3c-1.1,0.8-2.1,1.5-3,2c-0.9,0.5-1.8,0.9-2.6,1.1c-0.8,0.2-1.6,0.3-2.3,0.3
		c-0.7,0-1.4-0.2-2.3-0.5c-0.8-0.3-1.6-0.8-2.3-1.5c-0.7-0.7-1.3-1.5-1.8-2.6c-0.5-1.1-0.7-2.4-0.7-4c0-1.3,0.2-2.5,0.5-3.7
		c0.3-1.2,0.8-2.3,1.4-3.4c0.6-1.1,1.3-2.1,2.1-3.1c0.8-1,1.8-1.9,2.8-2.8c0.4-0.3,0.8-0.6,1.4-1s1.1-0.6,1.8-0.9
		c0.6-0.3,1.3-0.5,2-0.7s1.3-0.3,2-0.3c0.9,0,1.8,0.1,2.4,0.4c0.7,0.3,1.3,0.6,1.7,1c0.4,0.4,0.8,0.9,1,1.4S245.8,21.7,245.8,22.2z
		 M235.2,22.8c-0.8,1-1.5,2-2,3.3s-0.8,2.6-0.9,4.2c1.6-0.7,2.9-1.4,3.9-2c1-0.6,1.7-1.2,2.2-1.7c0.5-0.5,0.8-1,1-1.5s0.2-1,0.2-1.6
		c0-0.8-0.2-1.3-0.5-1.7c-0.3-0.4-0.7-0.6-1.2-0.6c-0.1,0-0.3,0-0.5,0.1c-0.2,0.1-0.4,0.2-0.7,0.3c-0.2,0.1-0.5,0.3-0.8,0.5
		S235.4,22.5,235.2,22.8z"/>
	<path class="st3" d="M278.9,41.1h-13l0.2-1.8c0.7-0.1,1.3-0.3,1.8-0.5c0.5-0.2,0.9-0.3,1.2-0.5c0.3-0.2,0.5-0.3,0.6-0.4
		c0.1-0.1,0.2-0.3,0.2-0.4l1.3-9.6c-0.3-1.3-0.8-2.6-1.3-4c-0.5-1.4-1-2.7-1.5-4c-0.5-1.3-1.1-2.5-1.6-3.7c-0.5-1.1-1-2.1-1.5-2.9
		c-0.1-0.2-0.2-0.4-0.4-0.5c-0.1-0.1-0.3-0.3-0.6-0.3c-0.2-0.1-0.6-0.2-1-0.2c-0.4,0-0.9,0-1.5,0l0.1-1.8c0.5-0.1,1-0.2,1.6-0.3
		c0.6-0.1,1.2-0.2,1.8-0.3c0.6-0.1,1.2-0.2,1.7-0.2c0.5-0.1,1-0.1,1.3-0.1c0.4,0,0.8,0.1,1.2,0.3s0.7,0.5,0.9,0.9
		c0.5,0.8,1,1.8,1.5,2.9s1,2.3,1.5,3.5c0.5,1.2,0.9,2.5,1.4,3.7c0.4,1.3,0.8,2.4,1.1,3.5l6.9-11c0.3-0.4,0.2-0.8-0.1-1
		c-0.3-0.2-1.1-0.4-2.3-0.6l0.2-1.8h9.6l-0.2,1.8c-0.5,0.1-1,0.2-1.4,0.3s-0.7,0.2-1,0.3c-0.3,0.1-0.5,0.3-0.7,0.4
		c-0.2,0.2-0.4,0.3-0.5,0.6L277,28.1l-1.3,9.4c0,0.1,0,0.2,0.1,0.4c0.1,0.1,0.3,0.3,0.5,0.5c0.3,0.2,0.6,0.3,1.1,0.5
		c0.4,0.2,1,0.3,1.7,0.5L278.9,41.1z"/>
	<path class="st3" d="M302.6,27.2c0,1.1-0.1,2.2-0.4,3.4c-0.3,1.1-0.7,2.2-1.2,3.3c-0.5,1.1-1.2,2.1-1.9,3.1c-0.7,1-1.6,1.8-2.5,2.6
		c-0.4,0.3-0.9,0.7-1.4,1c-0.5,0.3-1.1,0.6-1.6,0.8c-0.6,0.2-1.1,0.4-1.7,0.6c-0.6,0.1-1.1,0.2-1.6,0.2c-1.3,0-2.5-0.2-3.5-0.7
		c-1-0.5-1.9-1.2-2.6-2c-0.7-0.9-1.3-1.9-1.6-3c-0.4-1.2-0.6-2.4-0.6-3.8c0-1.2,0.1-2.3,0.3-3.5c0.2-1.1,0.6-2.2,1.1-3.2
		c0.5-1,1.1-2,1.9-3c0.8-1,1.7-1.9,2.8-2.7c0.4-0.3,0.9-0.6,1.4-0.9c0.5-0.3,1.1-0.5,1.6-0.8c0.6-0.2,1.1-0.4,1.7-0.5
		c0.6-0.1,1.2-0.2,1.7-0.2c1.3,0,2.4,0.2,3.4,0.7s1.8,1.1,2.5,1.9c0.7,0.8,1.2,1.8,1.5,3S302.6,25.8,302.6,27.2z M296.8,29.1
		c0-1.3-0.1-2.4-0.3-3.4c-0.2-1-0.5-1.8-0.9-2.5c-0.4-0.7-0.8-1.2-1.3-1.5s-1-0.5-1.5-0.5c-1,0-1.8,0.3-2.4,0.9
		c-0.7,0.6-1.2,1.3-1.6,2.2c-0.4,0.9-0.7,1.9-0.9,3s-0.3,2.2-0.3,3.2c0,1.1,0.1,2.2,0.4,3.1c0.2,1,0.6,1.8,0.9,2.6s0.8,1.3,1.3,1.8
		c0.5,0.4,1,0.6,1.5,0.6c0.6,0,1.2-0.1,1.6-0.4c0.5-0.3,0.9-0.7,1.3-1.2c0.4-0.5,0.7-1.1,0.9-1.7c0.3-0.6,0.5-1.3,0.6-2
		s0.3-1.4,0.3-2.2C296.7,30.5,296.8,29.8,296.8,29.1z"/>
	<path class="st3" d="M330.1,38.4c-0.7,0.4-1.3,0.9-2,1.3c-0.7,0.4-1.3,0.8-1.9,1.2c-0.6,0.3-1.2,0.6-1.7,0.8
		c-0.5,0.2-1,0.3-1.4,0.3c-0.4,0-0.7-0.1-1.1-0.4c-0.4-0.2-0.7-0.6-1-1.1c-0.3-0.5-0.6-1.2-0.8-1.9c-0.2-0.8-0.3-1.7-0.4-2.7
		c-0.6,0.9-1.3,1.7-2,2.5c-0.7,0.8-1.5,1.4-2.3,1.9s-1.6,1-2.4,1.3c-0.8,0.3-1.6,0.5-2.3,0.5c-0.5,0-1-0.1-1.5-0.4
		c-0.5-0.3-1-0.6-1.4-1.2s-0.8-1.2-1.1-1.9c-0.3-0.8-0.4-1.6-0.4-2.7c0-0.5,0-1.1,0.1-1.8c0.1-0.7,0.2-1.4,0.3-2.2
		c0.1-0.8,0.2-1.6,0.4-2.4c0.1-0.8,0.3-1.6,0.4-2.3c0.1-0.8,0.2-1.4,0.3-2.1c0.1-0.6,0.1-1.1,0.1-1.6c0-0.4,0-0.7-0.1-0.9
		s-0.1-0.4-0.2-0.5c-0.1-0.1-0.2-0.2-0.3-0.2c-0.1,0-0.3,0-0.4,0c-0.1,0-0.4,0-0.6,0.1s-0.5,0.1-0.8,0.2c-0.3,0.1-0.6,0.2-1,0.3
		l-0.4-1.7c0.7-0.3,1.5-0.7,2.4-1c0.9-0.4,1.8-0.7,2.7-1s1.7-0.6,2.4-0.8c0.7-0.2,1.2-0.3,1.5-0.3c0.5,0,0.8,0.2,1,0.5
		c0.2,0.3,0.2,0.9,0.2,1.6c0,0.5,0,1.1-0.1,1.9c-0.1,0.8-0.2,1.6-0.4,2.5c-0.1,0.9-0.3,1.9-0.5,2.8c-0.2,1-0.3,1.9-0.5,2.8
		c-0.1,0.9-0.3,1.8-0.4,2.5c-0.1,0.8-0.1,1.4-0.1,1.9c0,0.9,0.1,1.7,0.4,2.1c0.3,0.5,0.6,0.7,0.9,0.7c0.3,0,0.6-0.1,1.1-0.3
		c0.4-0.2,0.9-0.6,1.5-1.1s1.2-1.1,1.8-1.9c0.7-0.8,1.4-1.7,2.1-2.8c0.1-0.7,0.2-1.4,0.3-2.1c0.1-0.7,0.2-1.4,0.3-2
		c0.1-0.6,0.2-1.2,0.3-1.8c0.1-0.6,0.1-1,0.1-1.4c0-0.4,0-0.7-0.1-0.9s-0.1-0.4-0.2-0.5s-0.2-0.2-0.3-0.2c-0.1,0-0.2,0-0.4,0
		c-0.1,0-0.3,0-0.6,0.1s-0.5,0.1-0.7,0.2c-0.3,0.1-0.6,0.2-0.9,0.3l-0.4-1.7c0.7-0.3,1.5-0.7,2.4-1c0.9-0.4,1.7-0.7,2.6-1
		s1.6-0.6,2.3-0.8c0.7-0.2,1.2-0.3,1.5-0.3c0.5,0,0.8,0.2,0.9,0.5c0.1,0.3,0.2,0.9,0.2,1.6c0,0.5,0,1.1-0.1,1.8
		c-0.1,0.7-0.2,1.5-0.3,2.3c-0.1,0.8-0.3,1.7-0.4,2.6c-0.1,0.9-0.3,1.7-0.4,2.6c-0.1,0.8-0.2,1.6-0.3,2.4c-0.1,0.7-0.1,1.4-0.1,1.9
		c0,1.5,0.1,2.6,0.3,3.2c0.2,0.6,0.6,0.9,1,0.9c0.4,0,0.8-0.1,1.2-0.2c0.4-0.1,0.9-0.3,1.5-0.5L330.1,38.4z"/>
	<path class="st3" d="M369.8,11.5c0,0,0,0.2-0.1,0.4c-0.1,0.2-0.2,0.6-0.4,0.9c-0.2,0.4-0.4,0.7-0.6,1.2c-0.2,0.4-0.5,0.8-0.7,1.2
		s-0.5,0.7-0.7,1c-0.2,0.3-0.4,0.5-0.6,0.6l-1.5-0.4c-0.2-0.5-0.5-1-0.8-1.5s-0.7-0.9-1.1-1.3c-0.4-0.4-0.9-0.7-1.5-0.9
		s-1.2-0.3-1.9-0.3c-0.7,0-1.3,0.1-1.9,0.3c-0.6,0.2-1.2,0.5-1.9,1.1c-1,0.8-1.9,1.8-2.6,3.1c-0.7,1.2-1.3,2.5-1.7,3.9
		c-0.4,1.4-0.7,2.7-0.9,4c-0.2,1.3-0.3,2.5-0.3,3.6c0,1.8,0.2,3.3,0.7,4.5c0.5,1.2,1,2.2,1.8,2.9c0.7,0.7,1.5,1.3,2.3,1.6
		c0.8,0.3,1.6,0.5,2.4,0.5c0.4,0,0.9,0,1.4-0.1s1.1-0.3,1.8-0.5c0.7-0.3,1.4-0.6,2.2-1.1c0.8-0.5,1.8-1.1,2.8-1.8
		c0.1,0,0.2,0.1,0.3,0.3c0.1,0.2,0.2,0.3,0.3,0.5c0.1,0.2,0.2,0.4,0.2,0.5c0.1,0.2,0.1,0.3,0.1,0.3c-1.1,1.1-2.2,2.1-3.3,2.8
		c-1.1,0.8-2.1,1.4-3.1,1.8c-1,0.5-2,0.8-2.9,1c-0.9,0.2-1.8,0.3-2.5,0.3c-1.4,0-2.8-0.3-4-0.8c-1.3-0.5-2.4-1.3-3.3-2.3
		c-0.9-1-1.7-2.3-2.2-3.8c-0.5-1.5-0.8-3.2-0.8-5.1c0-1.6,0.2-3.1,0.5-4.8s0.8-3.2,1.5-4.7c0.7-1.5,1.5-3,2.5-4.4
		c1-1.4,2.2-2.6,3.6-3.7c0.6-0.5,1.3-0.9,2-1.3c0.7-0.4,1.5-0.7,2.3-1c0.8-0.3,1.6-0.5,2.4-0.6c0.8-0.1,1.6-0.2,2.4-0.2
		c0.8,0,1.6,0.1,2.4,0.2c0.8,0.1,1.5,0.3,2.2,0.5c0.7,0.2,1.3,0.5,1.9,0.8C368.9,10.9,369.4,11.2,369.8,11.5z"/>
	<path class="st3" d="M391.2,38.4c-0.7,0.5-1.4,1-2.1,1.4c-0.7,0.4-1.3,0.8-1.9,1.2c-0.6,0.3-1.1,0.6-1.6,0.8
		c-0.5,0.2-0.9,0.3-1.2,0.3c-0.3,0-0.6-0.1-1-0.3c-0.4-0.2-0.7-0.5-1-1c-0.3-0.5-0.6-1.1-0.9-1.8c-0.3-0.8-0.4-1.7-0.5-2.9
		c-0.5,0.7-1.1,1.4-1.7,2.2c-0.6,0.7-1.2,1.3-1.9,1.9c-0.7,0.6-1.3,1-2,1.4c-0.7,0.3-1.4,0.5-2,0.5c-0.6,0-1.2-0.2-1.9-0.5
		c-0.7-0.3-1.3-0.8-1.8-1.5s-1-1.6-1.4-2.7c-0.4-1.1-0.6-2.4-0.6-4c0-1.3,0.2-2.6,0.5-3.8c0.3-1.2,0.8-2.4,1.4-3.6
		c0.6-1.1,1.4-2.2,2.3-3.2c0.9-1,2-1.9,3.1-2.7c0.4-0.3,0.9-0.6,1.5-0.9c0.5-0.3,1.1-0.5,1.7-0.7c0.6-0.2,1.3-0.4,1.9-0.5
		c0.7-0.1,1.4-0.2,2-0.2s1.4,0.2,2,0.5c0.7,0.3,1.3,0.7,1.9,1c0.6-0.3,1.1-0.5,1.7-0.8c0.6-0.2,1.1-0.5,1.5-0.7l0.8,1.6
		c-0.3,0.2-0.5,0.4-0.7,0.6c-0.2,0.2-0.3,0.4-0.5,0.6c-0.1,0.2-0.3,0.5-0.4,0.9c-0.1,0.3-0.2,0.8-0.3,1.4c-0.2,1.2-0.5,2.3-0.7,3.5
		c-0.2,1.1-0.4,2.1-0.5,3.1c-0.1,0.9-0.2,1.8-0.3,2.5c-0.1,0.7-0.1,1.3-0.1,1.6c0,1.1,0.1,2.1,0.4,2.8c0.2,0.7,0.6,1.1,0.9,1.1
		c0.3,0,0.7,0,1.1-0.1c0.4-0.1,0.9-0.3,1.6-0.6L391.2,38.4z M381.3,31.7c0.1-0.7,0.2-1.4,0.3-2.2c0.1-0.8,0.2-1.6,0.4-2.3
		c0.1-0.8,0.2-1.5,0.4-2.2c0.1-0.7,0.2-1.3,0.3-1.8c-0.5-0.4-1-0.8-1.5-1.2c-0.5-0.3-1.1-0.5-1.6-0.5c-0.7,0-1.3,0.2-1.9,0.5
		c-0.6,0.3-1.1,0.8-1.6,1.3c-0.5,0.5-0.9,1.2-1.2,1.9c-0.3,0.7-0.6,1.4-0.9,2.2s-0.4,1.5-0.5,2.3c-0.1,0.8-0.2,1.5-0.2,2.1
		c0,0.9,0.1,1.7,0.2,2.4c0.1,0.7,0.3,1.3,0.5,1.7c0.2,0.5,0.5,0.8,0.8,1c0.3,0.2,0.6,0.3,0.9,0.3c0.5,0,1.3-0.5,2.2-1.4
		S380.1,33.5,381.3,31.7z"/>
	<path class="st3" d="M417.6,38.3c-0.7,0.4-1.5,0.9-2.4,1.3c-0.8,0.4-1.6,0.8-2.4,1.2c-0.8,0.4-1.5,0.6-2.1,0.9
		c-0.7,0.2-1.2,0.3-1.6,0.3c-0.6,0-1.1-0.3-1.4-0.8s-0.6-1.2-0.6-2.1c0-0.3,0-0.8,0.1-1.5c0.1-0.7,0.2-1.5,0.4-2.4
		c0.1-0.9,0.3-1.9,0.5-2.9c0.2-1,0.3-2,0.5-2.9c0.1-0.9,0.3-1.8,0.4-2.5c0.1-0.8,0.1-1.3,0.1-1.7c0-1-0.1-1.7-0.3-2
		c-0.2-0.4-0.5-0.6-1.1-0.6c-0.2,0-0.5,0.1-0.9,0.2c-0.4,0.1-0.8,0.4-1.3,0.7s-1,0.7-1.5,1.3s-1,1.2-1.5,1.9
		c-0.5,0.8-0.9,1.7-1.2,2.9c-0.3,1.1-0.6,2.5-0.8,4.1c-0.1,0.7-0.2,1.4-0.3,1.9c-0.1,0.6-0.1,1.1-0.2,1.5c0,0.5-0.1,0.9-0.1,1.3
		c0,0.4,0,0.8,0,1.2c-0.2,0.1-0.6,0.3-1.1,0.5c-0.5,0.2-1.1,0.5-1.7,0.8c-0.6,0.3-1.2,0.5-1.7,0.8c-0.5,0.2-0.9,0.4-1.1,0.5l-1-0.9
		c0.2-1.1,0.5-2.3,0.7-3.4c0.2-1.2,0.4-2.4,0.6-3.5c0.2-1.2,0.4-2.3,0.5-3.4c0.2-1.1,0.3-2.1,0.4-3c0.1-0.9,0.2-1.7,0.3-2.4
		c0.1-0.7,0.1-1.3,0.1-1.7c0-0.4,0-0.7-0.1-0.9c0-0.2-0.1-0.4-0.2-0.5c-0.1-0.1-0.2-0.2-0.3-0.2c-0.1,0-0.2,0-0.4,0
		c-0.1,0-0.4,0-0.6,0.1c-0.3,0.1-0.5,0.1-0.8,0.2c-0.3,0.1-0.7,0.2-1,0.3l-0.5-1.7c0.7-0.3,1.5-0.6,2.4-1c0.9-0.4,1.8-0.7,2.7-1
		c0.9-0.3,1.6-0.6,2.3-0.8c0.7-0.2,1.2-0.3,1.4-0.3c0.2,0,0.4,0,0.6,0.1c0.1,0.1,0.3,0.2,0.4,0.4c0.1,0.2,0.2,0.5,0.2,0.8
		c0,0.4,0,0.8,0,1.4c0,0.3,0,0.7,0,1.2c0,0.4-0.1,0.9-0.1,1.3c1.8-1.8,3.6-3.1,5.3-4c1.8-0.9,3.4-1.3,4.9-1.3c0.5,0,1,0.1,1.4,0.2
		c0.4,0.1,0.8,0.3,1,0.6c0.3,0.3,0.5,0.7,0.6,1.2s0.2,1.2,0.2,2c0,0.6-0.1,1.3-0.2,2.1c-0.1,0.8-0.2,1.6-0.4,2.5
		c-0.1,0.9-0.3,1.8-0.5,2.8s-0.4,1.9-0.5,2.7c-0.1,0.9-0.3,1.7-0.4,2.4c-0.1,0.7-0.2,1.3-0.2,1.8c0,0.6,0.1,0.9,0.2,1.2
		s0.4,0.3,0.7,0.3c0.4,0,0.8-0.1,1.1-0.2c0.4-0.1,0.9-0.3,1.6-0.6L417.6,38.3z"/>
	<path class="st3" d="M449.2,41.1h-12.9l0.2-1.8c0.7-0.1,1.3-0.3,1.8-0.5c0.5-0.2,0.9-0.3,1.2-0.5s0.5-0.3,0.6-0.4
		c0.1-0.1,0.2-0.3,0.2-0.4l3.4-24.7h-5.8c-0.2,0-0.5,0.1-0.7,0.3c-0.2,0.2-0.5,0.5-0.7,0.9c-0.3,0.4-0.6,1-0.9,1.6
		c-0.3,0.7-0.8,1.5-1.2,2.4l-1.6-0.7c0.1-0.5,0.2-1,0.4-1.7c0.2-0.7,0.3-1.4,0.5-2.1s0.4-1.4,0.6-2c0.2-0.7,0.3-1.2,0.5-1.6h24.6
		l0.7,0.8c-0.1,0.4-0.2,0.9-0.3,1.5c-0.1,0.6-0.3,1.3-0.5,1.9s-0.4,1.3-0.5,2c-0.2,0.6-0.3,1.2-0.5,1.7h-1.7c0-0.8-0.1-1.5-0.1-2.1
		c0-0.6-0.1-1.1-0.1-1.6c-0.1-0.4-0.2-0.7-0.4-1c-0.2-0.2-0.4-0.3-0.7-0.3h-5.6l-3.4,24.7c0,0.1,0,0.2,0.1,0.4
		c0.1,0.1,0.3,0.3,0.5,0.5c0.2,0.2,0.6,0.3,1,0.5c0.4,0.2,1,0.3,1.7,0.5L449.2,41.1z"/>
	<path class="st3" d="M479,20c-0.1,0.2-0.3,0.4-0.5,0.8c-0.2,0.3-0.4,0.7-0.6,1.1c-0.2,0.4-0.5,0.8-0.7,1.2
		c-0.2,0.4-0.5,0.8-0.7,1.1c-0.2,0.3-0.4,0.6-0.6,0.8c-0.2,0.2-0.3,0.3-0.4,0.3c-0.3,0-0.6-0.1-0.9-0.3c-0.3-0.2-0.5-0.4-0.8-0.7
		c-0.3-0.2-0.5-0.5-0.8-0.7c-0.2-0.2-0.5-0.3-0.7-0.3c-0.4,0-0.9,0.2-1.4,0.6c-0.5,0.4-1.1,1-1.6,1.7c-0.5,0.7-1,1.6-1.5,2.6
		c-0.5,1-0.9,2.1-1.2,3.3c-0.3,1.2-0.6,2.5-0.9,3.9c-0.2,1.4-0.3,2.7-0.3,4c-0.3,0.1-0.7,0.3-1.2,0.5c-0.5,0.2-1.1,0.5-1.7,0.8
		c-0.6,0.3-1.1,0.5-1.6,0.8c-0.5,0.2-0.9,0.4-1.1,0.5l-1-0.9c0.4-1.8,0.7-3.5,1-5.3s0.6-3.4,0.8-5c0.2-1.6,0.4-3,0.6-4.2
		c0.1-1.2,0.2-2.2,0.2-3c0-0.4,0-0.7-0.1-0.9c-0.1-0.2-0.1-0.4-0.2-0.5c-0.1-0.1-0.2-0.2-0.3-0.2c-0.1,0-0.3,0-0.4,0
		c-0.2,0-0.4,0-0.6,0.1c-0.3,0.1-0.5,0.1-0.8,0.2c-0.3,0.1-0.6,0.2-0.9,0.3l-0.4-1.7c0.7-0.3,1.5-0.7,2.4-1c0.9-0.4,1.8-0.7,2.6-1
		c0.9-0.3,1.6-0.6,2.3-0.8c0.7-0.2,1.2-0.3,1.5-0.3c0.2,0,0.4,0,0.6,0.1c0.1,0.1,0.3,0.2,0.4,0.4c0.1,0.2,0.2,0.4,0.2,0.8
		c0,0.3,0,0.7,0,1.2c0,0.2,0,0.4,0,0.7c0,0.3-0.1,0.6-0.1,1s-0.1,0.7-0.1,1.1c0,0.4-0.1,0.7-0.1,1c0.8-1.3,1.5-2.4,2.2-3.2
		c0.7-0.8,1.3-1.5,2-2c0.6-0.5,1.2-0.8,1.8-1c0.6-0.2,1.1-0.3,1.6-0.3c0.3,0,0.6,0.1,1,0.2c0.4,0.2,0.7,0.4,1.1,0.6
		c0.4,0.2,0.8,0.5,1.2,0.7S478.7,19.8,479,20z"/>
	<path class="st3" d="M506.2,38.4c-0.7,0.4-1.3,0.9-2,1.3c-0.7,0.4-1.3,0.8-1.9,1.2c-0.6,0.3-1.2,0.6-1.7,0.8
		c-0.5,0.2-1,0.3-1.4,0.3c-0.4,0-0.7-0.1-1.1-0.4c-0.4-0.2-0.7-0.6-1-1.1c-0.3-0.5-0.6-1.2-0.8-1.9c-0.2-0.8-0.3-1.7-0.4-2.7
		c-0.6,0.9-1.3,1.7-2,2.5c-0.7,0.8-1.5,1.4-2.3,1.9s-1.6,1-2.4,1.3c-0.8,0.3-1.6,0.5-2.3,0.5c-0.5,0-1-0.1-1.5-0.4
		c-0.5-0.3-1-0.6-1.4-1.2s-0.8-1.2-1.1-1.9c-0.3-0.8-0.4-1.6-0.4-2.7c0-0.5,0-1.1,0.1-1.8c0.1-0.7,0.2-1.4,0.3-2.2
		c0.1-0.8,0.2-1.6,0.4-2.4c0.1-0.8,0.3-1.6,0.4-2.3c0.1-0.8,0.2-1.4,0.3-2.1c0.1-0.6,0.1-1.1,0.1-1.6c0-0.4,0-0.7-0.1-0.9
		s-0.1-0.4-0.2-0.5c-0.1-0.1-0.2-0.2-0.3-0.2c-0.1,0-0.3,0-0.4,0c-0.1,0-0.4,0-0.6,0.1s-0.5,0.1-0.8,0.2c-0.3,0.1-0.6,0.2-1,0.3
		l-0.4-1.7c0.7-0.3,1.5-0.7,2.4-1c0.9-0.4,1.8-0.7,2.7-1s1.7-0.6,2.4-0.8c0.7-0.2,1.2-0.3,1.5-0.3c0.5,0,0.8,0.2,1,0.5
		c0.2,0.3,0.2,0.9,0.2,1.6c0,0.5,0,1.1-0.1,1.9c-0.1,0.8-0.2,1.6-0.4,2.5c-0.1,0.9-0.3,1.9-0.5,2.8c-0.2,1-0.3,1.9-0.5,2.8
		c-0.1,0.9-0.3,1.8-0.4,2.5c-0.1,0.8-0.1,1.4-0.1,1.9c0,0.9,0.1,1.7,0.4,2.1c0.3,0.5,0.6,0.7,0.9,0.7c0.3,0,0.6-0.1,1.1-0.3
		c0.4-0.2,0.9-0.6,1.5-1.1s1.2-1.1,1.8-1.9c0.7-0.8,1.4-1.7,2.1-2.8c0.1-0.7,0.2-1.4,0.3-2.1c0.1-0.7,0.2-1.4,0.3-2
		c0.1-0.6,0.2-1.2,0.3-1.8c0.1-0.6,0.1-1,0.1-1.4c0-0.4,0-0.7-0.1-0.9s-0.1-0.4-0.2-0.5s-0.2-0.2-0.3-0.2c-0.1,0-0.2,0-0.4,0
		c-0.1,0-0.3,0-0.6,0.1s-0.5,0.1-0.7,0.2c-0.3,0.1-0.6,0.2-0.9,0.3l-0.4-1.7c0.7-0.3,1.5-0.7,2.4-1c0.9-0.4,1.7-0.7,2.6-1
		s1.6-0.6,2.3-0.8c0.7-0.2,1.2-0.3,1.5-0.3c0.5,0,0.8,0.2,0.9,0.5c0.1,0.3,0.2,0.9,0.2,1.6c0,0.5,0,1.1-0.1,1.8
		c-0.1,0.7-0.2,1.5-0.3,2.3c-0.1,0.8-0.3,1.7-0.4,2.6c-0.1,0.9-0.3,1.7-0.4,2.6c-0.1,0.8-0.2,1.6-0.3,2.4c-0.1,0.7-0.1,1.4-0.1,1.9
		c0,1.5,0.1,2.6,0.3,3.2c0.2,0.6,0.6,0.9,1,0.9c0.4,0,0.8-0.1,1.2-0.2c0.4-0.1,0.9-0.3,1.5-0.5L506.2,38.4z"/>
	<path class="st3" d="M527.6,20.1c-0.3,0.4-0.6,0.8-1,1.2s-0.7,0.9-1.1,1.2c-0.4,0.4-0.7,0.7-1,1s-0.5,0.4-0.7,0.4
		c-0.3,0-0.6-0.2-0.9-0.5c-0.3-0.3-0.7-0.7-1.1-1.1c-0.4-0.4-0.9-0.8-1.3-1.1c-0.5-0.3-1-0.5-1.6-0.5c-0.9,0-1.6,0.2-2.1,0.7
		c-0.5,0.5-0.7,1.1-0.7,1.9c0,0.8,0.3,1.5,1,2s1.7,1.2,3,1.9c0.7,0.3,1.3,0.7,2,1.1c0.7,0.4,1.2,0.9,1.8,1.4
		c0.5,0.5,0.9,1.1,1.3,1.8c0.3,0.7,0.5,1.5,0.5,2.3c0,0.8-0.2,1.5-0.5,2.2c-0.3,0.7-0.8,1.4-1.3,2c-0.5,0.6-1.2,1.2-1.9,1.7
		c-0.7,0.5-1.5,0.9-2.3,1.3c-0.8,0.4-1.6,0.6-2.4,0.8c-0.8,0.2-1.6,0.3-2.3,0.3c-1.1,0-2-0.1-3-0.4c-0.9-0.3-1.7-0.6-2.4-1
		c-0.7-0.4-1.2-0.8-1.6-1.3c-0.4-0.4-0.6-0.8-0.6-1.2c0-0.2,0.1-0.6,0.4-1.1c0.2-0.5,0.5-1,0.8-1.5c0.3-0.5,0.6-1,1-1.4
		c0.3-0.4,0.6-0.6,0.8-0.6c0.1,0,0.3,0.1,0.5,0.4c0.2,0.3,0.4,0.6,0.6,1s0.5,0.8,0.8,1.3s0.7,0.9,1.1,1.3c0.4,0.4,0.9,0.7,1.4,1
		c0.5,0.3,1.2,0.4,1.9,0.4c1.1,0,2-0.3,2.6-0.9c0.6-0.6,0.9-1.4,0.9-2.4c0-0.6-0.1-1.1-0.4-1.6c-0.3-0.5-0.7-0.9-1.1-1.4
		c-0.5-0.4-1-0.8-1.6-1.2c-0.6-0.4-1.2-0.7-1.8-1c-0.9-0.4-1.6-0.9-2.2-1.4c-0.6-0.5-1-0.9-1.4-1.4c-0.3-0.5-0.6-1-0.7-1.5
		s-0.2-1-0.2-1.6c0-1,0.3-2,0.9-2.9c0.6-0.9,1.4-1.6,2.3-2.2s2-1.1,3.1-1.4s2.2-0.5,3.2-0.5c0.9,0,1.7,0.1,2.4,0.3s1.3,0.4,1.9,0.7
		c0.6,0.3,1.1,0.5,1.6,0.8C526.6,19.8,527.1,20,527.6,20.1z"/>
	<path class="st3" d="M544,37.2c-0.9,0.7-1.8,1.4-2.7,2c-0.9,0.6-1.8,1.1-2.6,1.5c-0.8,0.4-1.6,0.8-2.3,1c-0.7,0.2-1.3,0.4-1.7,0.4
		c-0.5,0-1-0.1-1.5-0.4c-0.5-0.2-1-0.6-1.4-1c-0.4-0.4-0.7-1-1-1.6c-0.2-0.6-0.4-1.3-0.4-2c0-0.3,0-0.6,0-0.9c0-0.3,0-0.6,0-1
		c0-0.3,0.1-0.7,0.1-1.1c0-0.4,0.1-0.8,0.2-1.3l1.8-11.3h-3.4l-0.6-1l3-2h1.4l0.1-0.9c0.1-0.7,0.2-1.2,0.3-1.6
		c0.1-0.4,0.2-0.7,0.4-0.9c0.1-0.2,0.3-0.4,0.5-0.5c0.2-0.1,0.4-0.3,0.6-0.4l4.7-2.3l0.7,0.6c-0.1,0.1-0.3,0.4-0.4,0.8
		c-0.1,0.3-0.3,0.8-0.4,1.4c-0.1,0.6-0.3,1.4-0.5,2.5l-0.2,1.4h6l0.7,0.9c-0.2,0.2-0.4,0.5-0.7,0.8c-0.3,0.3-0.7,0.7-1,1
		s-0.7,0.6-1,0.9c-0.3,0.3-0.5,0.4-0.7,0.5c-0.2-0.5-0.6-0.8-1.2-0.9c-0.6-0.1-1.4-0.2-2.5-0.2h-0.1l-1.4,9c0,0.3-0.1,0.6-0.1,1
		c0,0.4-0.1,0.7-0.1,1c0,0.3,0,0.6,0,0.9c0,0.3,0,0.5,0,0.7c0,1,0.2,1.8,0.5,2.2c0.3,0.4,0.7,0.6,1.2,0.6c0.6,0,1.3-0.1,2-0.4
		c0.8-0.2,1.8-0.7,3-1.2L544,37.2z"/>
</g>
<g>
	<path class="st3" d="M94.6,129.3c-0.3,0.2-0.7,0.5-1.2,0.9c-0.5,0.4-1,0.8-1.5,1.2c-0.5,0.4-1,0.7-1.4,1c-0.4,0.3-0.7,0.4-0.9,0.4
		c-0.2,0-0.5-0.1-0.7-0.4c-0.2-0.3-0.5-0.6-0.7-0.9c-0.3-0.3-0.5-0.6-0.9-0.9c-0.3-0.3-0.7-0.4-1-0.4c-0.6,0-1.2,0.3-1.6,0.9
		c-0.4,0.6-0.8,1.3-1.1,2.2s-0.5,1.9-0.7,2.9c-0.2,1.1-0.3,2.1-0.4,3l-0.1,1.1h5.6l0.6,0.8c-0.1,0.2-0.4,0.5-0.7,0.8
		s-0.6,0.6-0.9,0.9c-0.3,0.3-0.6,0.6-0.9,0.8c-0.3,0.2-0.5,0.4-0.7,0.5c-0.2-0.4-0.5-0.7-1-0.8s-1.2-0.2-2.1-0.2h-0.2l-1.5,13.3
		c-0.2,1.6-0.6,3.2-1.3,4.8c-0.6,1.5-1.4,3-2.4,4.3s-1.9,2.5-3,3.6c-1.1,1.1-2.2,1.9-3.3,2.6l-0.9-1.9c0.7-0.4,1.4-1.1,2-1.9
		c0.6-0.9,1.1-1.8,1.6-2.9c0.5-1.1,0.8-2.3,1.1-3.5c0.3-1.3,0.5-2.5,0.6-3.7l1.7-14.5h-3.1l-0.5-0.9l2.9-1.8h1
		c0.1-1.2,0.4-2.3,0.6-3.5c0.3-1.1,0.6-2.2,1.1-3.1s1-1.9,1.7-2.8c0.7-0.9,1.5-1.6,2.4-2.3c0.8-0.6,1.6-1.1,2.5-1.5s1.7-0.6,2.7-0.6
		c0.7,0,1.4,0.1,2.2,0.4c0.7,0.3,1.3,0.6,1.9,0.9c0.6,0.3,1.1,0.6,1.6,0.9S94.3,129.2,94.6,129.3z"/>
	<path class="st3" d="M105.1,148c0,1-0.1,2-0.4,3c-0.3,1-0.6,2-1.1,3c-0.5,1-1.1,1.9-1.7,2.8c-0.7,0.9-1.4,1.7-2.3,2.3
		c-0.4,0.3-0.8,0.6-1.3,0.9c-0.5,0.3-1,0.5-1.5,0.8c-0.5,0.2-1,0.4-1.5,0.5c-0.5,0.1-1,0.2-1.4,0.2c-1.2,0-2.2-0.2-3.1-0.7
		c-0.9-0.4-1.7-1-2.4-1.8c-0.6-0.8-1.1-1.7-1.5-2.7s-0.5-2.2-0.5-3.4c0-1.1,0.1-2.1,0.3-3.1c0.2-1,0.5-2,1-2.9
		c0.4-0.9,1-1.8,1.7-2.7c0.7-0.9,1.6-1.7,2.6-2.4c0.4-0.3,0.8-0.6,1.3-0.8c0.5-0.3,1-0.5,1.5-0.7c0.5-0.2,1-0.3,1.6-0.5
		c0.5-0.1,1-0.2,1.5-0.2c1.2,0,2.2,0.2,3.1,0.6c0.9,0.4,1.7,1,2.3,1.7c0.6,0.7,1.1,1.6,1.4,2.7C105,145.7,105.1,146.8,105.1,148z
		 M99.9,149.8c0-1.1-0.1-2.1-0.3-3c-0.2-0.9-0.5-1.6-0.8-2.2s-0.7-1.1-1.1-1.4c-0.4-0.3-0.9-0.5-1.4-0.5c-0.9,0-1.6,0.3-2.2,0.8
		c-0.6,0.5-1.1,1.2-1.4,2c-0.4,0.8-0.6,1.7-0.8,2.7c-0.2,1-0.2,2-0.2,2.9c0,1,0.1,1.9,0.3,2.8c0.2,0.9,0.5,1.7,0.9,2.3
		s0.8,1.2,1.2,1.6s0.9,0.6,1.4,0.6c0.6,0,1-0.1,1.5-0.4c0.4-0.3,0.8-0.6,1.1-1c0.3-0.4,0.6-0.9,0.8-1.5c0.2-0.6,0.4-1.2,0.6-1.8
		s0.2-1.3,0.3-2S99.9,150.4,99.9,149.8z"/>
	<path class="st3" d="M126,141.5c-0.1,0.2-0.3,0.4-0.4,0.7c-0.2,0.3-0.4,0.6-0.6,1c-0.2,0.4-0.4,0.7-0.6,1.1c-0.2,0.4-0.4,0.7-0.6,1
		c-0.2,0.3-0.4,0.5-0.5,0.7c-0.2,0.2-0.3,0.3-0.4,0.3c-0.3,0-0.6-0.1-0.8-0.3c-0.3-0.2-0.5-0.4-0.7-0.6s-0.5-0.4-0.7-0.6
		c-0.2-0.2-0.4-0.3-0.7-0.3c-0.4,0-0.8,0.2-1.3,0.6c-0.5,0.4-1,0.9-1.4,1.6c-0.5,0.7-0.9,1.5-1.4,2.4c-0.4,0.9-0.8,1.9-1.1,3
		c-0.3,1.1-0.6,2.3-0.8,3.5c-0.2,1.2-0.3,2.4-0.2,3.6c-0.2,0.1-0.6,0.3-1.1,0.5s-1,0.4-1.5,0.7c-0.5,0.2-1,0.5-1.5,0.7
		c-0.5,0.2-0.8,0.4-1,0.5l-0.9-0.9c0.3-1.6,0.6-3.2,0.9-4.8c0.3-1.6,0.5-3.1,0.8-4.5s0.4-2.7,0.5-3.8s0.2-2,0.2-2.7
		c0-0.3,0-0.6-0.1-0.8c-0.1-0.2-0.1-0.4-0.2-0.4c-0.1-0.1-0.2-0.2-0.3-0.2c-0.1,0-0.2,0-0.3,0c-0.1,0-0.3,0-0.6,0.1
		c-0.2,0.1-0.5,0.1-0.7,0.2c-0.3,0.1-0.6,0.2-0.9,0.3l-0.4-1.5c0.6-0.3,1.3-0.6,2.2-0.9s1.6-0.6,2.4-0.9c0.8-0.3,1.5-0.5,2.1-0.7
		c0.6-0.2,1.1-0.3,1.3-0.3c0.2,0,0.4,0,0.5,0.1c0.1,0.1,0.2,0.2,0.3,0.4c0.1,0.2,0.1,0.4,0.2,0.7c0,0.3,0,0.7,0,1.1
		c0,0.2,0,0.4,0,0.7s-0.1,0.6-0.1,0.9c0,0.3-0.1,0.7-0.1,1c0,0.3-0.1,0.7-0.1,0.9c0.7-1.2,1.4-2.1,2-2.9c0.6-0.8,1.2-1.3,1.8-1.8
		s1.1-0.7,1.6-0.9s1-0.2,1.5-0.2c0.3,0,0.6,0.1,0.9,0.2c0.3,0.2,0.7,0.3,1,0.5c0.4,0.2,0.7,0.4,1.1,0.6
		C125.3,141.2,125.6,141.4,126,141.5z"/>
	<path class="st3" d="M151.1,134c-0.9,0.2-1.7,0.4-2.2,0.7s-0.8,0.5-0.8,0.7l-2.8,20.6c-0.2,1.7-0.6,3.1-1,4.3c-0.5,1.2-1,2.2-1.6,3
		c-0.6,0.8-1.2,1.6-1.9,2.2c-0.7,0.6-1.3,1.1-1.9,1.6c-0.4,0.3-0.9,0.6-1.4,0.9c-0.5,0.3-1.1,0.5-1.6,0.8c-0.6,0.2-1.1,0.4-1.7,0.5
		c-0.6,0.1-1.1,0.2-1.5,0.2c-0.6,0-1.1-0.1-1.6-0.2c-0.5-0.2-1-0.3-1.4-0.6c-0.4-0.2-0.8-0.5-1-0.7c-0.3-0.2-0.4-0.4-0.4-0.6
		c0-0.1,0.1-0.3,0.2-0.5c0.2-0.2,0.4-0.5,0.6-0.7c0.2-0.3,0.5-0.5,0.8-0.8c0.3-0.3,0.6-0.5,0.9-0.8c0.3-0.2,0.6-0.4,0.8-0.6
		c0.2-0.2,0.4-0.2,0.5-0.2c0.1,0,0.3,0.1,0.6,0.3c0.2,0.2,0.5,0.4,0.8,0.7c0.3,0.2,0.7,0.5,1,0.7s0.8,0.3,1.3,0.3
		c0.4,0,0.7-0.1,1.1-0.3c0.4-0.2,0.8-0.6,1.1-1.1c0.4-0.6,0.7-1.4,1-2.5c0.3-1.1,0.6-2.5,0.9-4.2l3-22.2c0-0.1,0-0.2-0.1-0.3
		c-0.1-0.1-0.3-0.2-0.5-0.3c-0.3-0.1-0.6-0.2-1.1-0.4c-0.5-0.1-1.1-0.3-1.9-0.4l0.2-1.6h12L151.1,134z"/>
	<path class="st3" d="M165.7,143.5c0,0.4,0,0.9-0.1,1.3c-0.1,0.5-0.3,0.9-0.6,1.5c-0.3,0.5-0.7,1-1.3,1.6c-0.5,0.6-1.3,1.1-2.2,1.7
		c-0.9,0.6-2,1.2-3.3,1.8c-1.3,0.6-2.9,1.3-4.7,1.9c0.1,0.7,0.3,1.4,0.5,1.9c0.2,0.6,0.5,1.1,0.8,1.5c0.3,0.4,0.6,0.7,1,0.9
		c0.3,0.2,0.7,0.3,1.1,0.3c0.6,0,1.6-0.3,2.8-0.9c1.2-0.6,2.7-1.6,4.5-3c0.1,0,0.2,0.1,0.3,0.3c0.1,0.1,0.2,0.3,0.3,0.5
		s0.2,0.3,0.3,0.5c0.1,0.2,0.1,0.3,0.2,0.3c-1.2,1.1-2.3,2-3.3,2.7c-1,0.7-1.9,1.3-2.7,1.8c-0.8,0.5-1.6,0.8-2.3,1
		c-0.7,0.2-1.4,0.3-2.1,0.3c-0.6,0-1.3-0.1-2-0.4s-1.4-0.7-2.1-1.3c-0.6-0.6-1.2-1.4-1.6-2.4c-0.4-1-0.7-2.2-0.7-3.6
		c0-1.2,0.1-2.3,0.4-3.4s0.7-2.1,1.2-3.1c0.5-1,1.2-1.9,1.9-2.8c0.7-0.9,1.6-1.7,2.5-2.5c0.3-0.3,0.7-0.6,1.2-0.9
		c0.5-0.3,1-0.6,1.6-0.8c0.6-0.2,1.2-0.4,1.8-0.6s1.2-0.2,1.8-0.2c0.9,0,1.6,0.1,2.2,0.3c0.6,0.2,1.1,0.5,1.5,0.9
		c0.4,0.4,0.7,0.8,0.9,1.3S165.7,143.1,165.7,143.5z M156.2,144.1c-0.7,0.9-1.4,1.8-1.8,2.9c-0.5,1.1-0.7,2.4-0.8,3.8
		c1.5-0.7,2.7-1.3,3.5-1.8s1.5-1,2-1.5c0.4-0.5,0.7-0.9,0.9-1.4c0.1-0.4,0.2-0.9,0.2-1.4c0-0.7-0.2-1.2-0.5-1.6
		c-0.3-0.4-0.7-0.5-1.1-0.5c-0.1,0-0.3,0-0.5,0.1c-0.2,0.1-0.4,0.2-0.6,0.3c-0.2,0.1-0.5,0.3-0.7,0.4
		C156.6,143.6,156.4,143.8,156.2,144.1z"/>
	<path class="st3" d="M188.5,129.3c-0.3,0.2-0.7,0.5-1.2,0.9c-0.5,0.4-1,0.8-1.5,1.2c-0.5,0.4-1,0.7-1.4,1c-0.4,0.3-0.7,0.4-0.9,0.4
		c-0.2,0-0.5-0.1-0.7-0.4c-0.2-0.3-0.5-0.6-0.7-0.9c-0.3-0.3-0.5-0.6-0.9-0.9c-0.3-0.3-0.7-0.4-1-0.4c-0.6,0-1.2,0.3-1.6,0.9
		c-0.4,0.6-0.8,1.3-1.1,2.2s-0.5,1.9-0.7,2.9c-0.2,1.1-0.3,2.1-0.4,3l-0.1,1.1h5.6l0.6,0.8c-0.1,0.2-0.4,0.5-0.7,0.8
		s-0.6,0.6-0.9,0.9c-0.3,0.3-0.6,0.6-0.9,0.8c-0.3,0.2-0.5,0.4-0.7,0.5c-0.2-0.4-0.5-0.7-1-0.8s-1.2-0.2-2.1-0.2h-0.2l-1.5,13.3
		c-0.2,1.6-0.6,3.2-1.3,4.8c-0.6,1.5-1.4,3-2.4,4.3s-1.9,2.5-3,3.6c-1.1,1.1-2.2,1.9-3.3,2.6l-0.9-1.9c0.7-0.4,1.4-1.1,2-1.9
		c0.6-0.9,1.1-1.8,1.6-2.9c0.5-1.1,0.8-2.3,1.1-3.5c0.3-1.3,0.5-2.5,0.6-3.7l1.7-14.5h-3.1l-0.5-0.9l2.9-1.8h1
		c0.1-1.2,0.4-2.3,0.6-3.5c0.3-1.1,0.6-2.2,1.1-3.1s1-1.9,1.7-2.8c0.7-0.9,1.5-1.6,2.4-2.3c0.8-0.6,1.6-1.1,2.5-1.5s1.7-0.6,2.7-0.6
		c0.7,0,1.4,0.1,2.2,0.4c0.7,0.3,1.3,0.6,1.9,0.9c0.6,0.3,1.1,0.6,1.6,0.9S188.3,129.2,188.5,129.3z"/>
	<path class="st3" d="M203.2,129.3c-0.3,0.2-0.7,0.5-1.2,0.9c-0.5,0.4-1,0.8-1.5,1.2c-0.5,0.4-1,0.7-1.4,1c-0.4,0.3-0.7,0.4-0.9,0.4
		c-0.2,0-0.5-0.1-0.7-0.4c-0.2-0.3-0.5-0.6-0.7-0.9c-0.3-0.3-0.5-0.6-0.9-0.9c-0.3-0.3-0.7-0.4-1-0.4c-0.6,0-1.2,0.3-1.6,0.9
		c-0.4,0.6-0.8,1.3-1.1,2.2s-0.5,1.9-0.7,2.9c-0.2,1.1-0.3,2.1-0.4,3l-0.1,1.1h5.6l0.6,0.8c-0.1,0.2-0.4,0.5-0.7,0.8
		s-0.6,0.6-0.9,0.9c-0.3,0.3-0.6,0.6-0.9,0.8c-0.3,0.2-0.5,0.4-0.7,0.5c-0.2-0.4-0.5-0.7-1-0.8s-1.2-0.2-2.1-0.2h-0.2l-1.5,13.3
		c-0.2,1.6-0.6,3.2-1.3,4.8c-0.6,1.5-1.4,3-2.4,4.3s-1.9,2.5-3,3.6c-1.1,1.1-2.2,1.9-3.3,2.6l-0.9-1.9c0.7-0.4,1.4-1.1,2-1.9
		c0.6-0.9,1.1-1.8,1.6-2.9c0.5-1.1,0.8-2.3,1.1-3.5c0.3-1.3,0.5-2.5,0.6-3.7l1.7-14.5h-3.1l-0.5-0.9l2.9-1.8h1
		c0.1-1.2,0.4-2.3,0.6-3.5c0.3-1.1,0.6-2.2,1.1-3.1s1-1.9,1.7-2.8c0.7-0.9,1.5-1.6,2.4-2.3c0.8-0.6,1.6-1.1,2.5-1.5s1.7-0.6,2.7-0.6
		c0.7,0,1.4,0.1,2.2,0.4c0.7,0.3,1.3,0.6,1.9,0.9c0.6,0.3,1.1,0.6,1.6,0.9S203,129.2,203.2,129.3z"/>
	<path class="st3" d="M211.8,143.5c0,0.4,0,0.9-0.1,1.3c-0.1,0.5-0.3,0.9-0.6,1.5c-0.3,0.5-0.7,1-1.3,1.6c-0.5,0.6-1.3,1.1-2.2,1.7
		c-0.9,0.6-2,1.2-3.3,1.8c-1.3,0.6-2.9,1.3-4.7,1.9c0.1,0.7,0.3,1.4,0.5,1.9c0.2,0.6,0.5,1.1,0.8,1.5c0.3,0.4,0.6,0.7,1,0.9
		c0.3,0.2,0.7,0.3,1.1,0.3c0.6,0,1.6-0.3,2.8-0.9c1.2-0.6,2.7-1.6,4.5-3c0.1,0,0.2,0.1,0.3,0.3c0.1,0.1,0.2,0.3,0.3,0.5
		s0.2,0.3,0.3,0.5c0.1,0.2,0.1,0.3,0.2,0.3c-1.2,1.1-2.3,2-3.3,2.7c-1,0.7-1.9,1.3-2.7,1.8c-0.8,0.5-1.6,0.8-2.3,1
		c-0.7,0.2-1.4,0.3-2.1,0.3c-0.6,0-1.3-0.1-2-0.4s-1.4-0.7-2.1-1.3c-0.6-0.6-1.2-1.4-1.6-2.4c-0.4-1-0.7-2.2-0.7-3.6
		c0-1.2,0.1-2.3,0.4-3.4s0.7-2.1,1.2-3.1c0.5-1,1.2-1.9,1.9-2.8c0.7-0.9,1.6-1.7,2.5-2.5c0.3-0.3,0.7-0.6,1.2-0.9
		c0.5-0.3,1-0.6,1.6-0.8c0.6-0.2,1.2-0.4,1.8-0.6s1.2-0.2,1.8-0.2c0.9,0,1.6,0.1,2.2,0.3c0.6,0.2,1.1,0.5,1.5,0.9
		c0.4,0.4,0.7,0.8,0.9,1.3S211.8,143.1,211.8,143.5z M202.3,144.1c-0.7,0.9-1.4,1.8-1.8,2.9c-0.5,1.1-0.7,2.4-0.8,3.8
		c1.5-0.7,2.7-1.3,3.5-1.8s1.5-1,2-1.5c0.4-0.5,0.7-0.9,0.9-1.4c0.1-0.4,0.2-0.9,0.2-1.4c0-0.7-0.2-1.2-0.5-1.6
		c-0.3-0.4-0.7-0.5-1.1-0.5c-0.1,0-0.3,0-0.5,0.1c-0.2,0.1-0.4,0.2-0.6,0.3c-0.2,0.1-0.5,0.3-0.7,0.4
		C202.7,143.6,202.5,143.8,202.3,144.1z"/>
	<path class="st3" d="M232.7,141.5c-0.1,0.2-0.3,0.4-0.4,0.7c-0.2,0.3-0.4,0.6-0.6,1c-0.2,0.4-0.4,0.7-0.6,1.1
		c-0.2,0.4-0.4,0.7-0.6,1c-0.2,0.3-0.4,0.5-0.5,0.7c-0.2,0.2-0.3,0.3-0.4,0.3c-0.3,0-0.6-0.1-0.8-0.3c-0.3-0.2-0.5-0.4-0.7-0.6
		s-0.5-0.4-0.7-0.6c-0.2-0.2-0.4-0.3-0.7-0.3c-0.4,0-0.8,0.2-1.3,0.6c-0.5,0.4-1,0.9-1.4,1.6c-0.5,0.7-0.9,1.5-1.4,2.4
		c-0.4,0.9-0.8,1.9-1.1,3c-0.3,1.1-0.6,2.3-0.8,3.5c-0.2,1.2-0.3,2.4-0.2,3.6c-0.2,0.1-0.6,0.3-1.1,0.5s-1,0.4-1.5,0.7
		c-0.5,0.2-1,0.5-1.5,0.7c-0.5,0.2-0.8,0.4-1,0.5l-0.9-0.9c0.3-1.6,0.6-3.2,0.9-4.8c0.3-1.6,0.5-3.1,0.8-4.5s0.4-2.7,0.5-3.8
		s0.2-2,0.2-2.7c0-0.3,0-0.6-0.1-0.8c-0.1-0.2-0.1-0.4-0.2-0.4c-0.1-0.1-0.2-0.2-0.3-0.2c-0.1,0-0.2,0-0.3,0c-0.1,0-0.3,0-0.6,0.1
		c-0.2,0.1-0.5,0.1-0.7,0.2c-0.3,0.1-0.6,0.2-0.9,0.3l-0.4-1.5c0.6-0.3,1.3-0.6,2.2-0.9s1.6-0.6,2.4-0.9c0.8-0.3,1.5-0.5,2.1-0.7
		c0.6-0.2,1.1-0.3,1.3-0.3c0.2,0,0.4,0,0.5,0.1c0.1,0.1,0.2,0.2,0.3,0.4c0.1,0.2,0.1,0.4,0.2,0.7c0,0.3,0,0.7,0,1.1
		c0,0.2,0,0.4,0,0.7s-0.1,0.6-0.1,0.9c0,0.3-0.1,0.7-0.1,1c0,0.3-0.1,0.7-0.1,0.9c0.7-1.2,1.4-2.1,2-2.9c0.6-0.8,1.2-1.3,1.8-1.8
		s1.1-0.7,1.6-0.9s1-0.2,1.5-0.2c0.3,0,0.6,0.1,0.9,0.2c0.3,0.2,0.7,0.3,1,0.5c0.4,0.2,0.7,0.4,1.1,0.6
		C232,141.2,232.4,141.4,232.7,141.5z"/>
	<path class="st3" d="M249.1,141.7c-0.3,0.3-0.5,0.7-0.9,1.1s-0.6,0.8-1,1.1c-0.3,0.3-0.6,0.6-0.9,0.9c-0.3,0.2-0.5,0.4-0.6,0.4
		c-0.2,0-0.5-0.2-0.8-0.5c-0.3-0.3-0.6-0.6-1-1s-0.8-0.7-1.2-1s-0.9-0.5-1.5-0.5c-0.8,0-1.5,0.2-1.9,0.6c-0.4,0.4-0.6,1-0.6,1.7
		c0,0.7,0.3,1.3,0.9,1.8c0.6,0.5,1.5,1.1,2.7,1.7c0.6,0.3,1.2,0.7,1.8,1c0.6,0.4,1.1,0.8,1.6,1.3c0.5,0.5,0.8,1,1.1,1.6
		s0.4,1.3,0.4,2.1c0,0.7-0.1,1.3-0.4,2c-0.3,0.6-0.7,1.2-1.2,1.8c-0.5,0.5-1.1,1-1.7,1.5s-1.3,0.8-2,1.2c-0.7,0.3-1.4,0.6-2.2,0.7
		s-1.4,0.3-2.1,0.3c-1,0-1.8-0.1-2.7-0.4c-0.8-0.2-1.5-0.5-2.1-0.9c-0.6-0.4-1.1-0.7-1.4-1.1c-0.3-0.4-0.5-0.8-0.5-1.1
		c0-0.2,0.1-0.5,0.3-1c0.2-0.5,0.5-0.9,0.8-1.4c0.3-0.5,0.6-0.9,0.9-1.2c0.3-0.4,0.5-0.5,0.7-0.5c0.1,0,0.3,0.1,0.4,0.4
		c0.1,0.2,0.3,0.5,0.5,0.9c0.2,0.4,0.4,0.7,0.7,1.1c0.3,0.4,0.6,0.8,1,1.1c0.4,0.4,0.8,0.6,1.3,0.9c0.5,0.2,1,0.4,1.7,0.4
		c1,0,1.8-0.3,2.3-0.8c0.6-0.5,0.9-1.3,0.9-2.1c0-0.5-0.1-1-0.4-1.4c-0.3-0.4-0.6-0.8-1-1.2c-0.4-0.4-0.9-0.7-1.4-1.1
		c-0.5-0.3-1.1-0.6-1.6-0.9c-0.8-0.4-1.4-0.8-2-1.2c-0.5-0.4-0.9-0.8-1.2-1.3c-0.3-0.4-0.5-0.9-0.6-1.3c-0.1-0.5-0.2-0.9-0.2-1.4
		c0-0.9,0.3-1.8,0.8-2.6c0.6-0.8,1.3-1.4,2.1-2c0.8-0.6,1.8-1,2.8-1.3s2-0.5,2.9-0.5c0.8,0,1.5,0.1,2.1,0.3s1.2,0.4,1.7,0.6
		s1,0.5,1.4,0.7C248.2,141.4,248.7,141.6,249.1,141.7z"/>
	<path class="st3" d="M268.6,148c0,1-0.1,2-0.4,3c-0.3,1-0.6,2-1.1,3c-0.5,1-1.1,1.9-1.7,2.8c-0.7,0.9-1.4,1.7-2.3,2.3
		c-0.4,0.3-0.8,0.6-1.3,0.9c-0.5,0.3-1,0.5-1.5,0.8c-0.5,0.2-1,0.4-1.5,0.5c-0.5,0.1-1,0.2-1.4,0.2c-1.2,0-2.2-0.2-3.1-0.7
		c-0.9-0.4-1.7-1-2.4-1.8c-0.6-0.8-1.1-1.7-1.5-2.7s-0.5-2.2-0.5-3.4c0-1.1,0.1-2.1,0.3-3.1c0.2-1,0.5-2,1-2.9
		c0.4-0.9,1-1.8,1.7-2.7c0.7-0.9,1.6-1.7,2.6-2.4c0.4-0.3,0.8-0.6,1.3-0.8c0.5-0.3,1-0.5,1.5-0.7c0.5-0.2,1-0.3,1.6-0.5
		c0.5-0.1,1-0.2,1.5-0.2c1.2,0,2.2,0.2,3.1,0.6c0.9,0.4,1.7,1,2.3,1.7c0.6,0.7,1.1,1.6,1.4,2.7C268.4,145.7,268.6,146.8,268.6,148z
		 M263.4,149.8c0-1.1-0.1-2.1-0.3-3c-0.2-0.9-0.5-1.6-0.8-2.2s-0.7-1.1-1.1-1.4c-0.4-0.3-0.9-0.5-1.4-0.5c-0.9,0-1.6,0.3-2.2,0.8
		c-0.6,0.5-1.1,1.2-1.4,2c-0.4,0.8-0.6,1.7-0.8,2.7c-0.2,1-0.2,2-0.2,2.9c0,1,0.1,1.9,0.3,2.8c0.2,0.9,0.5,1.7,0.9,2.3
		s0.8,1.2,1.2,1.6s0.9,0.6,1.4,0.6c0.6,0,1-0.1,1.5-0.4c0.4-0.3,0.8-0.6,1.1-1c0.3-0.4,0.6-0.9,0.8-1.5c0.2-0.6,0.4-1.2,0.6-1.8
		s0.2-1.3,0.3-2S263.4,150.4,263.4,149.8z"/>
	<path class="st3" d="M293.1,158.1c-0.7,0.4-1.4,0.8-2.1,1.2c-0.7,0.4-1.5,0.8-2.2,1.1s-1.3,0.6-1.9,0.8c-0.6,0.2-1.1,0.3-1.4,0.3
		c-0.5,0-1-0.2-1.3-0.7c-0.3-0.5-0.5-1.1-0.5-1.9c0-0.3,0-0.7,0.1-1.4c0.1-0.6,0.2-1.4,0.3-2.2c0.1-0.8,0.3-1.7,0.4-2.6
		c0.2-0.9,0.3-1.8,0.4-2.7c0.1-0.8,0.2-1.6,0.3-2.3c0.1-0.7,0.1-1.2,0.1-1.5c0-0.9-0.1-1.5-0.2-1.8c-0.2-0.4-0.5-0.5-1-0.5
		c-0.2,0-0.5,0.1-0.8,0.2c-0.4,0.1-0.8,0.3-1.2,0.6c-0.4,0.3-0.9,0.7-1.4,1.1s-0.9,1.1-1.4,1.8c-0.4,0.7-0.8,1.6-1,2.6
		s-0.5,2.2-0.8,3.7c-0.1,0.7-0.2,1.3-0.3,1.8c-0.1,0.5-0.1,1-0.2,1.4c0,0.4-0.1,0.8-0.1,1.1c0,0.4,0,0.7,0,1.1
		c-0.2,0.1-0.5,0.3-1,0.5s-1,0.4-1.5,0.7c-0.5,0.2-1,0.5-1.5,0.7c-0.5,0.2-0.8,0.4-1,0.5l-0.9-0.9c0.2-1,0.4-2,0.6-3.1
		s0.4-2.1,0.6-3.2s0.3-2.1,0.5-3.1c0.1-1,0.3-1.9,0.4-2.7c0.1-0.8,0.2-1.6,0.2-2.2c0.1-0.6,0.1-1.1,0.1-1.5c0-0.3,0-0.6-0.1-0.8
		c0-0.2-0.1-0.4-0.2-0.4c-0.1-0.1-0.2-0.2-0.3-0.2c-0.1,0-0.2,0-0.4,0c-0.1,0-0.3,0-0.6,0.1c-0.2,0.1-0.5,0.1-0.7,0.2
		c-0.3,0.1-0.6,0.2-0.9,0.3l-0.4-1.5c0.6-0.3,1.4-0.6,2.2-0.9c0.8-0.3,1.6-0.6,2.4-0.9c0.8-0.3,1.5-0.5,2.1-0.7
		c0.6-0.2,1-0.3,1.3-0.3c0.2,0,0.4,0,0.5,0.1c0.1,0.1,0.2,0.2,0.3,0.4s0.1,0.4,0.2,0.8c0,0.3,0,0.8,0,1.3c0,0.3,0,0.7,0,1.1
		c0,0.4-0.1,0.8-0.1,1.2c1.6-1.6,3.2-2.8,4.8-3.6c1.6-0.8,3-1.2,4.4-1.2c0.5,0,0.9,0,1.3,0.1c0.4,0.1,0.7,0.3,0.9,0.5
		c0.2,0.3,0.4,0.6,0.6,1.1c0.1,0.5,0.2,1.1,0.2,1.8c0,0.5,0,1.1-0.1,1.9s-0.2,1.5-0.3,2.3s-0.3,1.7-0.5,2.5
		c-0.2,0.9-0.3,1.7-0.5,2.5c-0.1,0.8-0.3,1.5-0.3,2.1s-0.1,1.2-0.1,1.6c0,0.5,0.1,0.9,0.2,1c0.1,0.2,0.3,0.3,0.6,0.3
		c0.3,0,0.7-0.1,1-0.2c0.3-0.1,0.8-0.3,1.4-0.6L293.1,158.1z"/>
	<path class="st3" d="M328.8,133.9c0,0,0,0.2-0.1,0.4c-0.1,0.2-0.2,0.5-0.4,0.8s-0.4,0.7-0.6,1c-0.2,0.4-0.4,0.7-0.7,1.1
		c-0.2,0.3-0.4,0.6-0.6,0.9c-0.2,0.3-0.4,0.5-0.5,0.6l-1.3-0.3c-0.2-0.5-0.5-0.9-0.8-1.4c-0.3-0.4-0.6-0.8-1-1.2
		c-0.4-0.3-0.8-0.6-1.3-0.8c-0.5-0.2-1.1-0.3-1.7-0.3c-0.6,0-1.2,0.1-1.7,0.3c-0.6,0.2-1.1,0.5-1.7,1c-0.9,0.7-1.7,1.7-2.4,2.8
		c-0.6,1.1-1.1,2.3-1.5,3.5c-0.4,1.2-0.6,2.4-0.8,3.6c-0.2,1.2-0.2,2.3-0.2,3.2c0,1.6,0.2,3,0.6,4.1c0.4,1.1,0.9,2,1.6,2.6
		c0.6,0.7,1.3,1.1,2.1,1.4c0.7,0.3,1.5,0.4,2.1,0.4c0.4,0,0.8,0,1.3-0.1c0.5-0.1,1-0.2,1.6-0.5c0.6-0.2,1.3-0.6,2-1
		c0.7-0.4,1.6-1,2.5-1.6c0.1,0,0.2,0.1,0.2,0.3s0.2,0.3,0.2,0.5c0.1,0.2,0.1,0.3,0.2,0.5s0.1,0.2,0.1,0.3c-1,1-2,1.9-3,2.5
		c-1,0.7-1.9,1.2-2.8,1.6s-1.8,0.7-2.6,0.9c-0.8,0.2-1.6,0.3-2.3,0.3c-1.3,0-2.5-0.2-3.7-0.7s-2.1-1.2-3-2.1s-1.5-2.1-2-3.4
		s-0.7-2.9-0.7-4.6c0-1.4,0.1-2.8,0.4-4.3c0.3-1.5,0.8-2.9,1.4-4.3c0.6-1.4,1.4-2.7,2.3-3.9c0.9-1.2,2-2.4,3.3-3.4
		c0.5-0.4,1.1-0.8,1.8-1.1s1.4-0.6,2.1-0.9c0.7-0.2,1.4-0.4,2.2-0.5c0.7-0.1,1.5-0.2,2.2-0.2c0.7,0,1.5,0.1,2.2,0.2
		c0.7,0.1,1.4,0.3,2,0.5c0.6,0.2,1.2,0.4,1.7,0.7C328,133.3,328.5,133.6,328.8,133.9z"/>
	<path class="st3" d="M339.1,158.1c-0.7,0.4-1.4,0.8-2.2,1.2s-1.4,0.8-2.1,1.1c-0.7,0.3-1.3,0.6-1.9,0.8c-0.6,0.2-1.1,0.3-1.5,0.3
		c-0.5,0-0.9-0.2-1.3-0.7c-0.4-0.5-0.5-1.1-0.5-1.9c0-0.4,0.1-1.1,0.2-1.8c0.1-0.8,0.2-1.6,0.4-2.5c0.1-0.9,0.3-1.9,0.5-2.8
		c0.2-1,0.3-1.9,0.5-2.8c0.1-0.9,0.3-1.7,0.4-2.4s0.2-1.2,0.2-1.6c0-0.3,0-0.6-0.1-0.8c0-0.2-0.1-0.4-0.2-0.4
		c-0.1-0.1-0.2-0.2-0.3-0.2c-0.1,0-0.2,0-0.4,0c-0.1,0-0.3,0-0.5,0.1c-0.2,0.1-0.5,0.1-0.7,0.2c-0.3,0.1-0.6,0.2-0.9,0.3l-0.4-1.5
		c0.6-0.3,1.3-0.6,2.1-0.9c0.8-0.3,1.6-0.6,2.3-0.9c0.8-0.3,1.4-0.5,2.1-0.7s1.1-0.3,1.3-0.3c0.4,0,0.7,0.1,1,0.4
		c0.2,0.3,0.3,0.8,0.3,1.5c0,0.4-0.1,1-0.2,1.8c-0.1,0.8-0.2,1.6-0.4,2.6c-0.2,0.9-0.3,1.9-0.5,2.9c-0.2,1-0.4,2-0.5,2.9
		c-0.2,0.9-0.3,1.8-0.4,2.6c-0.1,0.8-0.2,1.4-0.2,1.8c0,0.5,0,0.8,0.1,1s0.3,0.3,0.5,0.3c0.2,0,0.4,0,0.6,0c0.2,0,0.4-0.1,0.6-0.1
		c0.2-0.1,0.4-0.1,0.7-0.2c0.2-0.1,0.5-0.2,0.8-0.3L339.1,158.1z M339.6,132.3c0,0.4-0.1,0.9-0.3,1.3c-0.2,0.4-0.4,0.9-0.8,1.2
		c-0.3,0.4-0.7,0.7-1.2,0.9c-0.5,0.2-1,0.4-1.7,0.4c-0.8,0-1.4-0.2-1.7-0.6s-0.5-0.8-0.5-1.3c0-0.4,0.1-0.8,0.3-1.3
		c0.2-0.4,0.4-0.9,0.8-1.2c0.3-0.4,0.7-0.7,1.2-1c0.5-0.3,1-0.4,1.7-0.4c0.8,0,1.4,0.2,1.7,0.6C339.4,131.3,339.6,131.8,339.6,132.3
		z"/>
	<path class="st3" d="M354.6,157.1c-0.8,0.7-1.6,1.3-2.5,1.8c-0.8,0.5-1.6,1-2.4,1.4c-0.8,0.4-1.4,0.7-2.1,0.9s-1.1,0.3-1.6,0.3
		c-0.4,0-0.9-0.1-1.4-0.3c-0.5-0.2-0.9-0.5-1.2-0.9s-0.7-0.9-0.9-1.4c-0.2-0.6-0.3-1.2-0.3-1.8c0-0.3,0-0.6,0-0.9c0-0.3,0-0.6,0-0.9
		c0-0.3,0.1-0.6,0.1-1c0-0.3,0.1-0.7,0.2-1.1l1.6-10.2h-3l-0.5-0.9l2.7-1.8h1.3l0.1-0.8c0.1-0.6,0.2-1.1,0.3-1.4
		c0.1-0.4,0.2-0.6,0.3-0.8c0.1-0.2,0.3-0.4,0.4-0.5c0.1-0.1,0.3-0.3,0.5-0.4l4.3-2.1l0.6,0.6c-0.1,0.1-0.2,0.4-0.4,0.7
		c-0.1,0.3-0.2,0.7-0.4,1.3s-0.3,1.3-0.4,2.2l-0.2,1.3h5.4l0.6,0.8c-0.1,0.2-0.4,0.5-0.7,0.8c-0.3,0.3-0.6,0.6-0.9,0.9
		c-0.3,0.3-0.6,0.6-0.9,0.8c-0.3,0.2-0.5,0.4-0.6,0.5c-0.2-0.4-0.5-0.7-1.1-0.8c-0.5-0.1-1.3-0.2-2.2-0.2h-0.1l-1.3,8.1
		c0,0.3-0.1,0.6-0.1,0.9c0,0.3-0.1,0.6-0.1,0.9c0,0.3,0,0.6,0,0.8c0,0.3,0,0.5,0,0.6c0,0.9,0.1,1.6,0.4,2c0.3,0.4,0.6,0.6,1,0.6
		c0.5,0,1.1-0.1,1.8-0.3c0.7-0.2,1.6-0.6,2.7-1.1L354.6,157.1z"/>
	<path class="st3" d="M377.8,141.3c0,0.5-0.2,1.3-0.6,2.3c-0.4,1.1-0.9,2.3-1.7,3.8c-0.7,1.5-1.5,3.2-2.5,5.1c-1,1.9-2,3.9-3.2,6.1
		c-1,1.9-2.1,3.7-3.1,5.3c-1,1.6-2,3-3.1,4.1c-1.1,1.2-2.2,2-3.3,2.7s-2.4,1-3.7,1c-0.6,0-1.2-0.1-1.7-0.2c-0.6-0.1-1.1-0.3-1.5-0.5
		s-0.8-0.4-1.1-0.6c-0.3-0.2-0.4-0.4-0.4-0.6c0-0.2,0.1-0.6,0.4-1c0.2-0.4,0.5-0.9,0.9-1.3c0.3-0.5,0.7-0.9,1-1.3
		c0.4-0.4,0.6-0.6,0.8-0.7c0.7,0.7,1.4,1.2,2.2,1.5c0.7,0.3,1.4,0.5,1.9,0.5c0.9,0,1.7-0.4,2.6-1.3c0.9-0.9,1.9-2.1,2.9-3.8
		c-0.2-0.9-0.4-1.9-0.6-2.9c-0.2-1.1-0.5-2.2-0.7-3.3c-0.3-1.1-0.5-2.2-0.8-3.3s-0.6-2.1-0.9-3.1c-0.3-1-0.6-1.9-0.8-2.6
		c-0.3-0.8-0.5-1.4-0.7-1.8c-0.3-0.8-0.6-1.3-0.9-1.5c-0.2-0.2-0.5-0.3-0.7-0.3c-0.1,0-0.3,0-0.6,0.1c-0.2,0.1-0.5,0.1-0.7,0.2
		c-0.3,0.1-0.6,0.2-0.9,0.3l-0.4-1.5c0.7-0.3,1.4-0.7,2.1-1c0.7-0.3,1.4-0.6,2-0.9c0.6-0.3,1.2-0.5,1.7-0.7s0.9-0.3,1.2-0.3
		c0.4,0,0.8,0.2,1.1,0.7c0.3,0.4,0.6,1.2,1,2.2c0.3,0.7,0.6,1.6,0.9,2.6s0.6,2,0.9,3.2c0.3,1.1,0.6,2.3,0.9,3.5
		c0.3,1.2,0.6,2.5,0.9,3.7c0.6-1.2,1.2-2.4,1.7-3.6c0.5-1.2,1-2.3,1.4-3.3s0.7-1.9,1-2.6c0.2-0.8,0.4-1.3,0.4-1.7
		c0-0.7-0.4-1.1-1.2-1.2c-0.3,0-0.5,0-0.8,0.1c-0.3,0.1-0.6,0.2-1.1,0.4l-0.6-1.5c0.5-0.3,1.1-0.6,1.7-0.9c0.6-0.3,1.2-0.5,1.8-0.8
		c0.6-0.2,1.2-0.4,1.7-0.5c0.5-0.1,1-0.2,1.4-0.2c0.3,0,0.5,0,0.7,0.1c0.2,0,0.5,0.1,0.6,0.2c0.2,0.1,0.3,0.3,0.5,0.5
		C377.7,140.6,377.8,140.9,377.8,141.3z"/>
	<path class="st3" d="M407.5,144.9c-0.2,0.3-0.3,0.5-0.5,0.8c-0.2,0.3-0.4,0.6-0.6,0.8c-0.2,0.3-0.4,0.5-0.6,0.7
		c-0.2,0.2-0.4,0.4-0.5,0.5c-0.2-0.2-0.4-0.4-0.6-0.6c-0.2-0.2-0.5-0.3-0.8-0.4c-0.3-0.1-0.7-0.2-1.1-0.2c-0.4,0-0.9-0.1-1.5-0.1
		H399l-1.5,11c0,0.1,0,0.2,0.1,0.3c0.1,0.1,0.3,0.2,0.5,0.3c0.3,0.1,0.6,0.2,1,0.4s1,0.3,1.6,0.4l-0.2,1.6H389l0.2-1.6
		c1-0.2,1.7-0.4,2.2-0.7c0.5-0.2,0.8-0.5,0.8-0.7l3-22.2c0-0.2-0.2-0.4-0.6-0.7c-0.4-0.3-1.1-0.5-2.1-0.7l0.2-1.6h18.5l0.7,0.7
		c-0.1,0.4-0.2,0.9-0.3,1.5c-0.1,0.6-0.3,1.2-0.4,1.8c-0.2,0.6-0.3,1.2-0.5,1.7c-0.2,0.5-0.3,1-0.4,1.2h-1.6
		c0.1-1.4,0.1-2.4-0.1-3.2c-0.2-0.7-0.5-1.1-1.1-1.1h-7.1l-1.3,9.1h7.5L407.5,144.9z"/>
	<path class="st3" d="M427.9,158.2c-0.6,0.4-1.3,0.9-1.9,1.3c-0.6,0.4-1.2,0.7-1.7,1.1c-0.5,0.3-1,0.5-1.4,0.7
		c-0.4,0.2-0.8,0.3-1,0.3c-0.3,0-0.5-0.1-0.9-0.2c-0.3-0.2-0.6-0.5-0.9-0.9c-0.3-0.4-0.6-1-0.8-1.6s-0.4-1.6-0.5-2.6
		c-0.5,0.7-1,1.3-1.5,1.9c-0.5,0.6-1.1,1.2-1.7,1.7c-0.6,0.5-1.2,0.9-1.8,1.2c-0.6,0.3-1.2,0.5-1.8,0.5c-0.5,0-1.1-0.1-1.7-0.4
		c-0.6-0.3-1.1-0.7-1.6-1.4c-0.5-0.6-0.9-1.4-1.3-2.4c-0.3-1-0.5-2.2-0.5-3.6c0-1.2,0.1-2.3,0.4-3.5s0.7-2.2,1.3-3.2
		c0.6-1,1.3-2,2.1-2.9c0.8-0.9,1.8-1.7,2.8-2.4c0.4-0.3,0.9-0.5,1.3-0.8s1-0.5,1.6-0.7s1.1-0.4,1.7-0.5c0.6-0.1,1.2-0.2,1.8-0.2
		c0.6,0,1.2,0.1,1.8,0.4c0.6,0.3,1.2,0.6,1.7,0.9c0.5-0.3,1-0.5,1.5-0.7s1-0.4,1.4-0.6l0.7,1.5c-0.3,0.2-0.5,0.4-0.6,0.6
		c-0.2,0.2-0.3,0.4-0.4,0.6c-0.1,0.2-0.2,0.5-0.3,0.8c-0.1,0.3-0.2,0.7-0.3,1.2c-0.2,1.1-0.4,2.1-0.6,3.1c-0.2,1-0.3,1.9-0.5,2.8
		c-0.1,0.8-0.2,1.6-0.3,2.2s-0.1,1.1-0.1,1.5c0,1,0.1,1.9,0.3,2.5c0.2,0.7,0.5,1,0.9,1c0.3,0,0.6,0,1-0.1c0.4-0.1,0.8-0.2,1.4-0.5
		L427.9,158.2z M419,152.1c0.1-0.6,0.2-1.3,0.3-2s0.2-1.4,0.3-2.1c0.1-0.7,0.2-1.4,0.3-2c0.1-0.6,0.2-1.2,0.3-1.6
		c-0.4-0.4-0.9-0.8-1.4-1.1c-0.5-0.3-0.9-0.5-1.4-0.5c-0.6,0-1.2,0.2-1.7,0.5c-0.5,0.3-1,0.7-1.4,1.2s-0.8,1.1-1.1,1.7
		c-0.3,0.6-0.6,1.3-0.8,2c-0.2,0.7-0.4,1.4-0.5,2.1c-0.1,0.7-0.2,1.3-0.2,1.9c0,0.8,0.1,1.6,0.2,2.2c0.1,0.6,0.3,1.1,0.5,1.6
		s0.4,0.7,0.7,0.9c0.3,0.2,0.5,0.3,0.8,0.3c0.5,0,1.2-0.4,2-1.3C417,154.9,417.9,153.7,419,152.1z"/>
	<path class="st3" d="M462,158.1c-0.7,0.4-1.4,0.8-2.1,1.2c-0.7,0.4-1.5,0.8-2.1,1.1s-1.3,0.6-1.9,0.8c-0.6,0.2-1.1,0.3-1.5,0.3
		c-0.2,0-0.4-0.1-0.6-0.2c-0.2-0.1-0.4-0.3-0.5-0.5s-0.3-0.5-0.4-0.8c-0.1-0.3-0.1-0.7-0.1-1.1c0-0.3,0-0.7,0.1-1.3
		c0.1-0.6,0.2-1.3,0.3-2.1c0.1-0.8,0.3-1.7,0.5-2.6c0.2-0.9,0.3-1.8,0.5-2.7c0.1-0.9,0.2-1.7,0.3-2.5c0.1-0.8,0.1-1.4,0.1-1.9
		c0-0.7-0.1-1.2-0.2-1.5c-0.2-0.3-0.4-0.4-0.6-0.4c-0.2,0-0.4,0-0.7,0.1c-0.3,0.1-0.6,0.3-1,0.5c-0.4,0.2-0.8,0.6-1.2,1
		c-0.4,0.4-0.8,0.9-1.3,1.6c-0.3,0.4-0.5,0.8-0.7,1.3c-0.2,0.4-0.4,0.9-0.5,1.5c-0.2,0.5-0.3,1.1-0.4,1.8c-0.1,0.7-0.3,1.4-0.4,2.3
		c-0.2,1.4-0.3,2.5-0.4,3.3c-0.1,0.8-0.1,1.5,0,1.9c-0.2,0.1-0.6,0.3-1,0.5s-1,0.4-1.5,0.7c-0.5,0.2-1.1,0.5-1.5,0.7
		c-0.5,0.2-0.8,0.4-1,0.5l-0.9-0.9c0.3-1.5,0.6-3,0.9-4.6c0.3-1.5,0.5-2.9,0.8-4.3c0.2-1.3,0.4-2.5,0.5-3.5s0.2-1.8,0.2-2.4
		c0-0.7-0.1-1.2-0.2-1.5c-0.2-0.3-0.4-0.5-0.7-0.5c-0.1,0-0.3,0-0.6,0.1c-0.3,0.1-0.6,0.3-0.9,0.5c-0.4,0.2-0.8,0.6-1.2,1
		c-0.4,0.4-0.9,0.9-1.3,1.6c-0.3,0.4-0.5,0.8-0.7,1.3s-0.4,1-0.6,1.5c-0.2,0.6-0.3,1.2-0.5,1.8c-0.1,0.7-0.3,1.4-0.4,2.3
		c-0.2,1.4-0.4,2.5-0.4,3.3c-0.1,0.8-0.1,1.5-0.1,1.9c-0.2,0.1-0.5,0.3-1,0.5s-1,0.4-1.5,0.7c-0.5,0.2-1,0.5-1.5,0.7
		c-0.5,0.2-0.8,0.4-1,0.5l-0.9-0.9c0.3-1.6,0.6-3.2,0.9-4.8c0.3-1.6,0.5-3.1,0.8-4.5s0.4-2.7,0.5-3.8s0.2-2,0.2-2.7
		c0-0.3,0-0.6-0.1-0.8c0-0.2-0.1-0.4-0.2-0.5c-0.1-0.1-0.2-0.2-0.3-0.2c-0.1,0-0.2,0-0.3,0c-0.1,0-0.3,0-0.6,0.1s-0.5,0.1-0.7,0.2
		c-0.3,0.1-0.6,0.2-0.9,0.3l-0.4-1.5c0.6-0.3,1.3-0.6,2.1-0.9c0.8-0.3,1.6-0.6,2.3-0.9c0.8-0.3,1.4-0.5,2.1-0.7
		c0.6-0.2,1.1-0.3,1.3-0.3c0.2,0,0.4,0,0.6,0.1c0.2,0.1,0.3,0.2,0.4,0.4c0.1,0.2,0.2,0.4,0.2,0.8c0,0.3,0.1,0.8,0.1,1.3
		c0,0.2,0,0.6-0.1,1c0,0.4-0.1,0.8-0.1,1.2c0.9-0.9,1.7-1.7,2.5-2.3c0.8-0.6,1.5-1.1,2.2-1.5c0.7-0.4,1.3-0.6,2-0.8
		c0.6-0.1,1.2-0.2,1.8-0.2c0.6,0,1,0.1,1.4,0.3c0.4,0.2,0.7,0.5,1,0.8c0.2,0.3,0.4,0.7,0.5,1.2c0.1,0.5,0.2,0.9,0.2,1.4
		c0,0.1,0,0.2,0,0.3c0,0.1,0,0.3,0,0.4c0.9-0.9,1.7-1.6,2.4-2.2c0.7-0.6,1.4-1.1,2-1.4c0.6-0.3,1.2-0.6,1.8-0.7
		c0.6-0.1,1.1-0.2,1.7-0.2c0.4,0,0.8,0.1,1.2,0.2c0.4,0.1,0.7,0.4,1,0.7s0.5,0.7,0.7,1.2c0.2,0.5,0.2,1.1,0.2,1.8
		c0,0.6,0,1.2-0.1,1.9c-0.1,0.7-0.2,1.5-0.3,2.3c-0.1,0.8-0.3,1.6-0.4,2.4c-0.2,0.8-0.3,1.6-0.4,2.3s-0.2,1.4-0.3,2
		s-0.1,1.1-0.1,1.6c0,0.5,0.1,0.8,0.2,1c0.1,0.2,0.4,0.3,0.6,0.3c0.4,0,0.8-0.1,1.2-0.2c0.4-0.1,0.9-0.3,1.5-0.5L462,158.1z"/>
	<path class="st3" d="M474.2,158.1c-0.7,0.4-1.4,0.8-2.2,1.2s-1.4,0.8-2.1,1.1c-0.7,0.3-1.3,0.6-1.9,0.8c-0.6,0.2-1.1,0.3-1.5,0.3
		c-0.5,0-0.9-0.2-1.3-0.7c-0.4-0.5-0.5-1.1-0.5-1.9c0-0.4,0.1-1.1,0.2-1.8c0.1-0.8,0.2-1.6,0.4-2.5c0.1-0.9,0.3-1.9,0.5-2.8
		c0.2-1,0.3-1.9,0.5-2.8c0.1-0.9,0.3-1.7,0.4-2.4s0.2-1.2,0.2-1.6c0-0.3,0-0.6-0.1-0.8c0-0.2-0.1-0.4-0.2-0.4
		c-0.1-0.1-0.2-0.2-0.3-0.2c-0.1,0-0.2,0-0.4,0c-0.1,0-0.3,0-0.5,0.1c-0.2,0.1-0.5,0.1-0.7,0.2c-0.3,0.1-0.6,0.2-0.9,0.3l-0.4-1.5
		c0.6-0.3,1.3-0.6,2.1-0.9c0.8-0.3,1.6-0.6,2.3-0.9c0.8-0.3,1.4-0.5,2.1-0.7s1.1-0.3,1.3-0.3c0.4,0,0.7,0.1,1,0.4
		c0.2,0.3,0.3,0.8,0.3,1.5c0,0.4-0.1,1-0.2,1.8c-0.1,0.8-0.2,1.6-0.4,2.6c-0.2,0.9-0.3,1.9-0.5,2.9c-0.2,1-0.4,2-0.5,2.9
		c-0.2,0.9-0.3,1.8-0.4,2.6c-0.1,0.8-0.2,1.4-0.2,1.8c0,0.5,0,0.8,0.1,1s0.3,0.3,0.5,0.3c0.2,0,0.4,0,0.6,0c0.2,0,0.4-0.1,0.6-0.1
		c0.2-0.1,0.4-0.1,0.7-0.2c0.2-0.1,0.5-0.2,0.8-0.3L474.2,158.1z M474.7,132.3c0,0.4-0.1,0.9-0.3,1.3c-0.2,0.4-0.4,0.9-0.8,1.2
		c-0.3,0.4-0.7,0.7-1.2,0.9c-0.5,0.2-1,0.4-1.7,0.4c-0.8,0-1.4-0.2-1.7-0.6s-0.5-0.8-0.5-1.3c0-0.4,0.1-0.8,0.3-1.3
		c0.2-0.4,0.4-0.9,0.8-1.2c0.3-0.4,0.7-0.7,1.2-1c0.5-0.3,1-0.4,1.7-0.4c0.8,0,1.4,0.2,1.7,0.6C474.6,131.3,474.7,131.8,474.7,132.3
		z"/>
	<path class="st3" d="M486.5,158.1c-0.7,0.5-1.5,0.9-2.2,1.3s-1.5,0.8-2.2,1.1c-0.7,0.3-1.4,0.5-2,0.7c-0.6,0.2-1.2,0.3-1.6,0.3
		c-0.4,0-0.8-0.2-1.1-0.7c-0.3-0.4-0.5-1.1-0.5-2c0-0.4,0.1-1,0.2-1.8c0.1-0.9,0.2-1.9,0.4-3s0.4-2.5,0.6-3.9
		c0.2-1.4,0.5-2.8,0.7-4.3s0.5-2.9,0.7-4.4c0.2-1.4,0.4-2.8,0.6-4s0.3-2.4,0.4-3.3c0.1-1,0.2-1.7,0.2-2.2c0-0.3,0-0.6-0.1-0.8
		c-0.1-0.2-0.2-0.4-0.3-0.4c-0.1-0.1-0.2-0.2-0.4-0.2c-0.1,0-0.3,0-0.4,0c-0.1,0-0.3,0-0.5,0.1c-0.2,0.1-0.5,0.1-0.7,0.2
		c-0.3,0.1-0.6,0.2-0.9,0.3l-0.4-1.5c0.6-0.3,1.4-0.6,2.2-0.9c0.8-0.3,1.6-0.6,2.4-0.9c0.8-0.3,1.5-0.5,2.1-0.7
		c0.6-0.2,1.1-0.3,1.4-0.3c0.4,0,0.8,0.1,1,0.4c0.2,0.3,0.4,0.7,0.4,1.4c0,0.6-0.1,1.4-0.2,2.4c-0.1,1-0.2,2.1-0.4,3.4
		c-0.2,1.2-0.4,2.6-0.6,4s-0.4,2.9-0.7,4.3c-0.2,1.5-0.5,2.9-0.7,4.3s-0.4,2.7-0.6,3.9c-0.2,1.2-0.3,2.3-0.4,3.2s-0.2,1.7-0.2,2.2
		s0.1,0.9,0.2,1c0.1,0.2,0.3,0.3,0.6,0.3c0.3,0,0.7-0.1,1.1-0.2c0.4-0.1,0.9-0.3,1.6-0.6L486.5,158.1z"/>
	<path class="st3" d="M498.3,158.1c-0.7,0.4-1.4,0.8-2.2,1.2s-1.4,0.8-2.1,1.1c-0.7,0.3-1.3,0.6-1.9,0.8c-0.6,0.2-1.1,0.3-1.5,0.3
		c-0.5,0-0.9-0.2-1.3-0.7c-0.4-0.5-0.5-1.1-0.5-1.9c0-0.4,0.1-1.1,0.2-1.8c0.1-0.8,0.2-1.6,0.4-2.5c0.1-0.9,0.3-1.9,0.5-2.8
		c0.2-1,0.3-1.9,0.5-2.8c0.1-0.9,0.3-1.7,0.4-2.4s0.2-1.2,0.2-1.6c0-0.3,0-0.6-0.1-0.8c0-0.2-0.1-0.4-0.2-0.4
		c-0.1-0.1-0.2-0.2-0.3-0.2c-0.1,0-0.2,0-0.4,0c-0.1,0-0.3,0-0.5,0.1c-0.2,0.1-0.5,0.1-0.7,0.2c-0.3,0.1-0.6,0.2-0.9,0.3l-0.4-1.5
		c0.6-0.3,1.3-0.6,2.1-0.9c0.8-0.3,1.6-0.6,2.3-0.9c0.8-0.3,1.4-0.5,2.1-0.7s1.1-0.3,1.3-0.3c0.4,0,0.7,0.1,1,0.4
		c0.2,0.3,0.3,0.8,0.3,1.5c0,0.4-0.1,1-0.2,1.8c-0.1,0.8-0.2,1.6-0.4,2.6c-0.2,0.9-0.3,1.9-0.5,2.9c-0.2,1-0.4,2-0.5,2.9
		c-0.2,0.9-0.3,1.8-0.4,2.6c-0.1,0.8-0.2,1.4-0.2,1.8c0,0.5,0,0.8,0.1,1s0.3,0.3,0.5,0.3c0.2,0,0.4,0,0.6,0c0.2,0,0.4-0.1,0.6-0.1
		c0.2-0.1,0.4-0.1,0.7-0.2c0.2-0.1,0.5-0.2,0.8-0.3L498.3,158.1z M498.8,132.3c0,0.4-0.1,0.9-0.3,1.3c-0.2,0.4-0.4,0.9-0.8,1.2
		c-0.3,0.4-0.7,0.7-1.2,0.9c-0.5,0.2-1,0.4-1.7,0.4c-0.8,0-1.4-0.2-1.7-0.6s-0.5-0.8-0.5-1.3c0-0.4,0.1-0.8,0.3-1.3
		c0.2-0.4,0.4-0.9,0.8-1.2c0.3-0.4,0.7-0.7,1.2-1c0.5-0.3,1-0.4,1.7-0.4c0.8,0,1.4,0.2,1.7,0.6C498.6,131.3,498.8,131.8,498.8,132.3
		z"/>
	<path class="st3" d="M517.5,143.5c0,0.4,0,0.9-0.1,1.3c-0.1,0.5-0.3,0.9-0.6,1.5c-0.3,0.5-0.7,1-1.3,1.6c-0.5,0.6-1.3,1.1-2.2,1.7
		c-0.9,0.6-2,1.2-3.3,1.8s-2.9,1.3-4.7,1.9c0.1,0.7,0.3,1.4,0.5,1.9s0.5,1.1,0.8,1.5c0.3,0.4,0.6,0.7,1,0.9s0.7,0.3,1.1,0.3
		c0.6,0,1.6-0.3,2.8-0.9c1.2-0.6,2.7-1.6,4.5-3c0.1,0,0.2,0.1,0.3,0.3s0.2,0.3,0.3,0.5c0.1,0.2,0.2,0.3,0.3,0.5
		c0.1,0.2,0.1,0.3,0.2,0.3c-1.2,1.1-2.3,2-3.3,2.7c-1,0.7-1.9,1.3-2.7,1.8s-1.6,0.8-2.3,1c-0.7,0.2-1.4,0.3-2.1,0.3
		c-0.6,0-1.3-0.1-2-0.4s-1.4-0.7-2.1-1.3c-0.6-0.6-1.2-1.4-1.6-2.4c-0.4-1-0.7-2.2-0.7-3.6c0-1.2,0.1-2.3,0.4-3.4
		c0.3-1.1,0.7-2.1,1.2-3.1c0.5-1,1.2-1.9,1.9-2.8c0.7-0.9,1.6-1.7,2.5-2.5c0.3-0.3,0.7-0.6,1.2-0.9c0.5-0.3,1-0.6,1.6-0.8
		c0.6-0.2,1.2-0.4,1.8-0.6s1.2-0.2,1.8-0.2c0.9,0,1.6,0.1,2.2,0.3s1.1,0.5,1.5,0.9c0.4,0.4,0.7,0.8,0.9,1.3S517.5,143.1,517.5,143.5
		z M507.9,144.1c-0.7,0.9-1.4,1.8-1.8,2.9c-0.5,1.1-0.7,2.4-0.8,3.8c1.5-0.7,2.7-1.3,3.5-1.8s1.5-1,2-1.5c0.4-0.5,0.7-0.9,0.9-1.4
		c0.1-0.4,0.2-0.9,0.2-1.4c0-0.7-0.2-1.2-0.5-1.6c-0.3-0.4-0.7-0.5-1.1-0.5c-0.1,0-0.3,0-0.5,0.1c-0.2,0.1-0.4,0.2-0.6,0.3
		c-0.2,0.1-0.5,0.3-0.7,0.4C508.3,143.6,508.1,143.8,507.9,144.1z"/>
	<path class="st3" d="M536,141.7c-0.3,0.3-0.5,0.7-0.9,1.1s-0.6,0.8-1,1.1s-0.6,0.6-0.9,0.9c-0.3,0.2-0.5,0.4-0.6,0.4
		c-0.2,0-0.5-0.2-0.8-0.5c-0.3-0.3-0.6-0.6-1-1s-0.8-0.7-1.2-1c-0.4-0.3-0.9-0.5-1.5-0.5c-0.8,0-1.5,0.2-1.9,0.6
		c-0.4,0.4-0.7,1-0.7,1.7c0,0.7,0.3,1.3,0.9,1.8c0.6,0.5,1.5,1.1,2.7,1.7c0.6,0.3,1.2,0.7,1.8,1c0.6,0.4,1.1,0.8,1.6,1.3
		c0.5,0.5,0.8,1,1.1,1.6s0.4,1.3,0.4,2.1c0,0.7-0.1,1.3-0.4,2c-0.3,0.6-0.7,1.2-1.2,1.8c-0.5,0.5-1.1,1-1.7,1.5s-1.3,0.8-2,1.2
		c-0.7,0.3-1.4,0.6-2.2,0.7c-0.7,0.2-1.4,0.3-2.1,0.3c-1,0-1.8-0.1-2.7-0.4c-0.8-0.2-1.5-0.5-2.1-0.9c-0.6-0.4-1.1-0.7-1.4-1.1
		s-0.5-0.8-0.5-1.1c0-0.2,0.1-0.5,0.3-1c0.2-0.5,0.5-0.9,0.8-1.4c0.3-0.5,0.6-0.9,0.9-1.2c0.3-0.4,0.5-0.5,0.7-0.5
		c0.1,0,0.3,0.1,0.4,0.4s0.3,0.5,0.5,0.9c0.2,0.4,0.4,0.7,0.7,1.1s0.6,0.8,1,1.1c0.4,0.4,0.8,0.6,1.3,0.9s1,0.4,1.7,0.4
		c1,0,1.8-0.3,2.3-0.8c0.6-0.5,0.9-1.3,0.9-2.1c0-0.5-0.1-1-0.4-1.4c-0.3-0.4-0.6-0.8-1-1.2c-0.4-0.4-0.9-0.7-1.4-1.1
		s-1.1-0.6-1.6-0.9c-0.8-0.4-1.4-0.8-2-1.2c-0.5-0.4-0.9-0.8-1.2-1.3c-0.3-0.4-0.5-0.9-0.6-1.3s-0.2-0.9-0.2-1.4
		c0-0.9,0.3-1.8,0.8-2.6c0.6-0.8,1.3-1.4,2.1-2c0.8-0.6,1.8-1,2.8-1.3c1-0.3,2-0.5,2.9-0.5c0.8,0,1.5,0.1,2.1,0.3s1.2,0.4,1.7,0.6
		s1,0.5,1.4,0.7C535.1,141.4,535.6,141.6,536,141.7z"/>
</g>
<g>
	<path class="st3" d="M247.7,183.1c-0.2,0.2-0.4,0.5-0.6,0.8c-0.2,0.3-0.5,0.6-0.7,0.8c-0.2,0.2-0.5,0.5-0.6,0.6
		c-0.2,0.2-0.4,0.3-0.5,0.3c-0.2,0-0.4-0.1-0.6-0.3c-0.2-0.2-0.5-0.5-0.7-0.7c-0.3-0.3-0.6-0.5-0.9-0.7c-0.3-0.2-0.7-0.3-1.1-0.3
		c-0.6,0-1.1,0.2-1.4,0.5c-0.3,0.3-0.5,0.7-0.5,1.3c0,0.5,0.2,1,0.7,1.3c0.4,0.4,1.1,0.8,2,1.2c0.4,0.2,0.9,0.5,1.3,0.8
		c0.4,0.3,0.8,0.6,1.2,0.9c0.3,0.4,0.6,0.8,0.8,1.2c0.2,0.4,0.3,1,0.3,1.5c0,0.5-0.1,1-0.3,1.5s-0.5,0.9-0.9,1.3
		c-0.4,0.4-0.8,0.8-1.3,1.1s-1,0.6-1.5,0.8c-0.5,0.2-1,0.4-1.6,0.5c-0.5,0.1-1,0.2-1.5,0.2c-0.7,0-1.4-0.1-2-0.3
		c-0.6-0.2-1.1-0.4-1.6-0.6c-0.4-0.3-0.8-0.5-1-0.8c-0.3-0.3-0.4-0.6-0.4-0.8c0-0.2,0.1-0.4,0.2-0.7c0.2-0.3,0.3-0.7,0.5-1
		c0.2-0.3,0.4-0.6,0.6-0.9c0.2-0.3,0.4-0.4,0.5-0.4c0.1,0,0.2,0.1,0.3,0.3s0.2,0.4,0.4,0.6c0.1,0.3,0.3,0.5,0.5,0.8s0.4,0.6,0.7,0.8
		c0.3,0.3,0.6,0.5,0.9,0.6s0.8,0.3,1.2,0.3c0.7,0,1.3-0.2,1.7-0.6s0.6-0.9,0.6-1.6c0-0.4-0.1-0.7-0.3-1c-0.2-0.3-0.4-0.6-0.7-0.9
		s-0.7-0.5-1.1-0.8c-0.4-0.2-0.8-0.5-1.2-0.7c-0.6-0.3-1.1-0.6-1.4-0.9c-0.4-0.3-0.7-0.6-0.9-0.9c-0.2-0.3-0.4-0.6-0.5-1
		s-0.1-0.7-0.1-1c0-0.7,0.2-1.3,0.6-1.9c0.4-0.6,0.9-1.1,1.5-1.5s1.3-0.7,2-1s1.5-0.3,2.1-0.3c0.6,0,1.1,0.1,1.6,0.2
		c0.4,0.1,0.9,0.3,1.2,0.5c0.4,0.2,0.7,0.3,1,0.5C247.1,182.9,247.4,183,247.7,183.1z"/>
	<path class="st3" d="M256.5,195.1c-0.5,0.3-1,0.6-1.6,0.9c-0.5,0.3-1.1,0.6-1.5,0.8c-0.5,0.2-1,0.4-1.4,0.6
		c-0.4,0.1-0.8,0.2-1.1,0.2c-0.4,0-0.7-0.2-0.9-0.5c-0.3-0.3-0.4-0.8-0.4-1.4c0-0.3,0-0.8,0.1-1.3s0.2-1.2,0.3-1.8s0.2-1.4,0.4-2.1
		c0.1-0.7,0.3-1.4,0.4-2.1c0.1-0.7,0.2-1.2,0.3-1.7s0.1-0.9,0.1-1.2c0-0.3,0-0.5,0-0.6c0-0.1-0.1-0.3-0.1-0.3s-0.1-0.1-0.2-0.1
		c-0.1,0-0.2,0-0.3,0c-0.1,0-0.2,0-0.4,0.1s-0.3,0.1-0.5,0.1c-0.2,0.1-0.4,0.1-0.6,0.2l-0.3-1.1c0.5-0.2,1-0.4,1.6-0.7
		c0.6-0.2,1.1-0.5,1.7-0.7s1.1-0.4,1.5-0.5c0.4-0.1,0.8-0.2,1-0.2c0.3,0,0.5,0.1,0.7,0.3s0.3,0.6,0.3,1.1c0,0.3,0,0.8-0.1,1.3
		c-0.1,0.6-0.2,1.2-0.3,1.9c-0.1,0.7-0.2,1.4-0.4,2.1c-0.1,0.7-0.3,1.4-0.4,2.1s-0.2,1.3-0.3,1.9c-0.1,0.6-0.1,1-0.1,1.3
		c0,0.3,0,0.6,0.1,0.7c0.1,0.2,0.2,0.2,0.4,0.2c0.2,0,0.3,0,0.5,0c0.1,0,0.3-0.1,0.5-0.1c0.2,0,0.3-0.1,0.5-0.2s0.4-0.1,0.6-0.2
		L256.5,195.1z M256.9,176.2c0,0.3-0.1,0.6-0.2,1c-0.1,0.3-0.3,0.6-0.6,0.9s-0.5,0.5-0.9,0.7c-0.4,0.2-0.8,0.3-1.2,0.3
		c-0.6,0-1-0.1-1.3-0.4c-0.3-0.3-0.4-0.6-0.4-1c0-0.3,0.1-0.6,0.2-0.9s0.3-0.6,0.6-0.9c0.2-0.3,0.5-0.5,0.9-0.7
		c0.4-0.2,0.8-0.3,1.2-0.3c0.6,0,1,0.1,1.3,0.4S256.9,175.8,256.9,176.2z"/>
	<path class="st3" d="M274.3,195.1c-0.5,0.3-1,0.6-1.6,0.9c-0.5,0.3-1.1,0.6-1.6,0.8c-0.5,0.2-1,0.4-1.4,0.6
		c-0.4,0.1-0.8,0.2-1.1,0.2c-0.4,0-0.7-0.2-1-0.5c-0.3-0.3-0.4-0.8-0.4-1.4c0-0.2,0-0.5,0.1-1c0.1-0.5,0.1-1,0.2-1.6
		c0.1-0.6,0.2-1.2,0.3-1.9c0.1-0.7,0.2-1.3,0.3-1.9c0.1-0.6,0.2-1.2,0.2-1.7c0.1-0.5,0.1-0.9,0.1-1.1c0-0.6-0.1-1.1-0.2-1.4
		s-0.3-0.4-0.7-0.4c-0.1,0-0.3,0-0.6,0.1c-0.3,0.1-0.6,0.2-0.9,0.5c-0.3,0.2-0.6,0.5-1,0.8c-0.3,0.3-0.7,0.8-1,1.3
		c-0.3,0.5-0.6,1.2-0.8,1.9c-0.2,0.7-0.4,1.6-0.5,2.7c-0.1,0.5-0.2,0.9-0.2,1.3s-0.1,0.7-0.1,1s0,0.6,0,0.8c0,0.3,0,0.5,0,0.8
		c-0.1,0.1-0.4,0.2-0.7,0.4c-0.4,0.2-0.7,0.3-1.1,0.5s-0.8,0.3-1.1,0.5c-0.4,0.2-0.6,0.3-0.7,0.4l-0.7-0.6c0.2-0.7,0.3-1.5,0.4-2.3
		c0.1-0.8,0.3-1.6,0.4-2.3c0.1-0.8,0.3-1.5,0.4-2.2c0.1-0.7,0.2-1.4,0.3-2c0.1-0.6,0.1-1.2,0.2-1.6c0-0.5,0.1-0.8,0.1-1.1
		c0-0.3,0-0.5,0-0.6s-0.1-0.3-0.1-0.3s-0.1-0.1-0.2-0.1c-0.1,0-0.2,0-0.3,0c-0.1,0-0.2,0-0.4,0.1c-0.2,0-0.4,0.1-0.5,0.1
		c-0.2,0.1-0.4,0.1-0.7,0.2l-0.3-1.1c0.5-0.2,1-0.4,1.6-0.7c0.6-0.2,1.2-0.5,1.8-0.7c0.6-0.2,1.1-0.4,1.5-0.5
		c0.5-0.1,0.8-0.2,0.9-0.2c0.2,0,0.3,0,0.4,0.1c0.1,0,0.2,0.1,0.2,0.3c0.1,0.1,0.1,0.3,0.1,0.6c0,0.2,0,0.6,0,1c0,0.2,0,0.5,0,0.8
		s0,0.6-0.1,0.9c1.2-1.2,2.4-2.1,3.5-2.6c1.2-0.6,2.2-0.9,3.2-0.9c0.3,0,0.6,0,0.9,0.1c0.3,0.1,0.5,0.2,0.7,0.4
		c0.2,0.2,0.3,0.5,0.4,0.8c0.1,0.3,0.1,0.8,0.1,1.3c0,0.4,0,0.8-0.1,1.4c-0.1,0.5-0.2,1.1-0.3,1.7c-0.1,0.6-0.2,1.2-0.3,1.8
		c-0.1,0.6-0.2,1.2-0.3,1.8c-0.1,0.6-0.2,1.1-0.3,1.6c-0.1,0.5-0.1,0.9-0.1,1.2c0,0.4,0,0.6,0.1,0.8c0.1,0.1,0.2,0.2,0.4,0.2
		c0.3,0,0.5,0,0.7-0.1c0.2-0.1,0.6-0.2,1-0.4L274.3,195.1z"/>
	<path class="st3" d="M289.6,183.4c-0.2,0.2-0.5,0.5-0.8,0.8c-0.3,0.3-0.6,0.6-1,0.8c-0.3,0.3-0.6,0.5-0.9,0.7
		c-0.3,0.2-0.5,0.3-0.7,0.3s-0.4-0.1-0.5-0.3c-0.2-0.2-0.4-0.4-0.6-0.7c-0.2-0.3-0.4-0.5-0.7-0.7c-0.3-0.2-0.5-0.3-0.9-0.3
		c-0.6,0-1.1,0.2-1.6,0.6c-0.5,0.4-0.9,0.9-1.2,1.6c-0.3,0.6-0.5,1.4-0.7,2.1c-0.2,0.8-0.2,1.6-0.2,2.3c0,0.7,0.1,1.3,0.2,1.9
		c0.1,0.6,0.3,1,0.5,1.4c0.2,0.4,0.5,0.7,0.7,0.9s0.6,0.3,1,0.3c0.6,0,1.3-0.2,2.1-0.6c0.8-0.4,1.8-1.1,3-2.1c0,0.1,0.1,0.1,0.2,0.3
		c0.1,0.1,0.2,0.2,0.2,0.4s0.2,0.2,0.2,0.3c0.1,0.1,0.1,0.2,0.1,0.2c-0.9,0.8-1.6,1.4-2.3,2c-0.7,0.5-1.4,1-2,1.3
		c-0.6,0.3-1.2,0.5-1.7,0.7c-0.5,0.1-1,0.2-1.5,0.2c-0.5,0-1-0.1-1.5-0.3s-1-0.5-1.5-1s-0.9-1.1-1.2-1.8c-0.3-0.8-0.5-1.7-0.5-2.9
		c0-0.7,0.1-1.5,0.2-2.2c0.2-0.8,0.4-1.5,0.7-2.2c0.3-0.7,0.8-1.4,1.3-2.1c0.6-0.7,1.2-1.3,2-1.8c0.3-0.2,0.7-0.4,1.1-0.6
		c0.4-0.2,0.8-0.4,1.3-0.6c0.5-0.2,0.9-0.3,1.4-0.4c0.5-0.1,1-0.2,1.4-0.2c0.5,0,0.9,0.1,1.3,0.2c0.4,0.2,0.7,0.3,1.1,0.5
		s0.6,0.4,0.9,0.6C289,183.2,289.3,183.3,289.6,183.4z"/>
	<path class="st3" d="M302.6,184.4c0,0.3,0,0.6-0.1,1c-0.1,0.3-0.2,0.7-0.4,1.1c-0.2,0.4-0.5,0.8-0.9,1.2c-0.4,0.4-0.9,0.8-1.6,1.3
		c-0.7,0.4-1.5,0.9-2.4,1.3s-2.1,0.9-3.4,1.4c0.1,0.5,0.2,1,0.3,1.4s0.3,0.8,0.5,1.1c0.2,0.3,0.4,0.5,0.7,0.7
		c0.3,0.2,0.5,0.2,0.8,0.2c0.5,0,1.1-0.2,2-0.6c0.9-0.4,2-1.2,3.3-2.2c0.1,0,0.1,0.1,0.2,0.2c0.1,0.1,0.2,0.2,0.2,0.4
		c0.1,0.1,0.1,0.2,0.2,0.4c0.1,0.1,0.1,0.2,0.1,0.2c-0.9,0.8-1.7,1.4-2.4,2c-0.7,0.5-1.4,1-2,1.3c-0.6,0.3-1.2,0.6-1.7,0.7
		s-1,0.2-1.5,0.2c-0.4,0-0.9-0.1-1.5-0.3s-1.1-0.5-1.5-1s-0.9-1-1.2-1.7c-0.3-0.7-0.5-1.6-0.5-2.6c0-0.9,0.1-1.7,0.3-2.5
		c0.2-0.8,0.5-1.5,0.9-2.2c0.4-0.7,0.9-1.4,1.4-2c0.5-0.6,1.2-1.2,1.9-1.8c0.2-0.2,0.5-0.4,0.9-0.6c0.4-0.2,0.7-0.4,1.2-0.6
		c0.4-0.2,0.8-0.3,1.3-0.4c0.4-0.1,0.9-0.2,1.3-0.2c0.6,0,1.2,0.1,1.6,0.3c0.5,0.2,0.8,0.4,1.1,0.7c0.3,0.3,0.5,0.6,0.7,0.9
		C302.5,183.7,302.6,184.1,302.6,184.4z M295.6,184.8c-0.5,0.6-1,1.4-1.3,2.2c-0.3,0.8-0.5,1.7-0.6,2.8c1.1-0.5,1.9-0.9,2.6-1.3
		c0.6-0.4,1.1-0.8,1.5-1.1c0.3-0.3,0.5-0.7,0.6-1s0.1-0.7,0.1-1c0-0.5-0.1-0.9-0.3-1.1c-0.2-0.3-0.5-0.4-0.8-0.4
		c-0.1,0-0.2,0-0.3,0.1c-0.1,0-0.3,0.1-0.5,0.2c-0.2,0.1-0.3,0.2-0.5,0.3C295.9,184.5,295.7,184.6,295.6,184.8z"/>
	<path class="st3" d="M323.9,196.9h-11.5l0.2-1.4c0.8-0.1,1.5-0.2,2-0.3s1-0.3,1.3-0.4c0.3-0.1,0.6-0.3,0.7-0.4
		c0.1-0.1,0.2-0.2,0.3-0.4l1.6-12.1c0.1-0.4,0.1-0.8,0.1-1c0-0.2,0-0.4-0.1-0.6c-0.1-0.1-0.2-0.1-0.3-0.2c-0.2,0-0.4-0.1-0.7,0
		c-0.3,0-0.7,0-1.2,0.1c-0.5,0.1-1,0.2-1.7,0.3l-0.2-1.3c0.3-0.1,0.7-0.2,1.1-0.3c0.4-0.1,0.9-0.3,1.4-0.4c0.5-0.2,1-0.3,1.5-0.5
		c0.5-0.2,1-0.4,1.5-0.6c0.5-0.2,0.9-0.4,1.3-0.5s0.7-0.3,1-0.4l0.6,0.7l-2.3,16.9c0,0.1,0,0.2,0.1,0.4c0.1,0.1,0.3,0.3,0.5,0.4
		c0.3,0.1,0.6,0.3,1.1,0.4c0.5,0.1,1.1,0.2,1.8,0.3L323.9,196.9z"/>
	<path class="st3" d="M340.1,182.8c0,1.9-0.3,3.6-0.9,5.3c-0.6,1.7-1.4,3.2-2.5,4.5s-2.5,2.4-4.2,3.3c-1.7,0.9-3.6,1.4-5.8,1.7
		l-0.2-1.5c1.3-0.3,2.5-0.7,3.5-1.2c1-0.5,1.9-1,2.6-1.7c0.7-0.7,1.3-1.4,1.8-2.3c0.5-0.9,0.8-1.8,1.1-2.9c-0.6,0.5-1.2,1-1.9,1.3
		c-0.7,0.3-1.4,0.5-2.2,0.5c-0.8,0-1.5-0.1-2-0.4c-0.6-0.3-1-0.6-1.4-1.1c-0.4-0.5-0.7-1-0.8-1.6c-0.2-0.6-0.3-1.2-0.3-1.9
		c0-0.7,0.1-1.3,0.3-2c0.2-0.7,0.4-1.3,0.8-1.9c0.3-0.6,0.7-1.2,1.2-1.7c0.5-0.5,1-1,1.6-1.4c0.6-0.4,1.2-0.7,1.9-1
		c0.7-0.2,1.4-0.3,2.1-0.3c0.8,0,1.5,0.1,2.2,0.4s1.2,0.6,1.7,1.1c0.5,0.5,0.8,1.1,1.1,1.9S340.1,181.7,340.1,182.8z M332.8,187.6
		c0.6,0,1.2-0.2,1.7-0.5s1-0.7,1.5-1.2c0.1-0.9,0.1-1.9,0.1-2.9c0-0.8-0.1-1.5-0.2-2c-0.1-0.5-0.3-1-0.5-1.3
		c-0.2-0.3-0.4-0.5-0.7-0.7c-0.3-0.1-0.6-0.2-0.9-0.2c-0.6,0-1.1,0.2-1.6,0.5c-0.4,0.3-0.7,0.8-1,1.3c-0.3,0.5-0.4,1.1-0.5,1.8
		c-0.1,0.7-0.2,1.3-0.2,1.9c0,0.6,0.1,1.1,0.2,1.6c0.1,0.4,0.3,0.8,0.5,1c0.2,0.3,0.4,0.4,0.7,0.5
		C332.3,187.5,332.6,187.6,332.8,187.6z"/>
	<path class="st3" d="M355.2,180.5c0,0.6-0.1,1.1-0.3,1.6c-0.2,0.5-0.5,0.9-0.9,1.3c-0.4,0.4-0.8,0.8-1.3,1.1
		c-0.5,0.3-0.9,0.7-1.4,1c0.4,0.2,0.8,0.5,1.2,0.8c0.4,0.3,0.7,0.6,1,1c0.3,0.4,0.5,0.8,0.7,1.4c0.2,0.5,0.3,1.1,0.3,1.8
		c0,0.9-0.2,1.8-0.6,2.7c-0.4,0.8-1,1.6-1.7,2.2c-0.7,0.6-1.5,1.2-2.5,1.5c-0.9,0.4-1.9,0.6-2.9,0.6c-1,0-1.9-0.1-2.6-0.4
		c-0.7-0.3-1.3-0.6-1.8-1c-0.5-0.4-0.8-0.9-1-1.5s-0.3-1.1-0.3-1.7c0-0.7,0.1-1.4,0.4-2s0.7-1.2,1.1-1.7s1-1,1.6-1.4
		s1.2-0.8,1.9-1.1c-0.4-0.2-0.7-0.4-1.1-0.7s-0.6-0.5-0.9-0.9c-0.3-0.3-0.5-0.7-0.6-1.1c-0.2-0.4-0.2-0.9-0.2-1.5
		c0-0.8,0.2-1.5,0.6-2.2c0.4-0.7,0.9-1.3,1.5-1.8s1.4-0.9,2.2-1.2c0.8-0.3,1.7-0.4,2.7-0.4c0.9,0,1.6,0.1,2.2,0.3
		c0.6,0.2,1.1,0.5,1.5,0.8s0.7,0.7,0.9,1.2C355.1,179.4,355.2,179.9,355.2,180.5z M350.6,191.3c0-0.5-0.1-1-0.2-1.4
		s-0.4-0.8-0.6-1.1c-0.3-0.3-0.6-0.6-0.9-0.8c-0.4-0.2-0.7-0.4-1.1-0.7c-0.4,0.3-0.7,0.7-1,1.1s-0.6,0.8-0.8,1.2
		c-0.2,0.4-0.4,0.9-0.5,1.3c-0.1,0.5-0.2,1-0.2,1.5c0,0.5,0.1,0.9,0.2,1.3s0.3,0.7,0.5,0.9c0.2,0.3,0.5,0.5,0.8,0.6
		c0.3,0.1,0.6,0.2,0.9,0.2c0.5,0,0.9-0.1,1.3-0.4c0.4-0.2,0.7-0.6,1-0.9s0.5-0.8,0.6-1.3C350.5,192.3,350.6,191.8,350.6,191.3z
		 M346.8,181.5c0,0.4,0.1,0.7,0.2,1c0.2,0.3,0.4,0.6,0.6,0.8s0.6,0.5,0.9,0.7c0.3,0.2,0.7,0.4,1.1,0.6c0.5-0.4,0.9-1,1.3-1.6
		c0.3-0.6,0.5-1.3,0.5-2.1c0-0.8-0.2-1.4-0.6-1.8c-0.4-0.4-0.9-0.6-1.6-0.6c-0.3,0-0.7,0.1-1,0.3c-0.3,0.2-0.6,0.4-0.8,0.7
		c-0.2,0.3-0.4,0.6-0.5,0.9S346.8,181.1,346.8,181.5z"/>
	<path class="st3" d="M370.7,177.4c-0.1,0.2-0.3,0.4-0.5,0.7c-0.2,0.3-0.4,0.5-0.7,0.8c-0.2,0.3-0.5,0.5-0.7,0.7s-0.4,0.4-0.5,0.5
		h-6.5c-0.1,0.3-0.2,0.7-0.3,1.1c-0.1,0.4-0.2,0.8-0.3,1.2s-0.2,0.8-0.3,1.2c-0.1,0.4-0.2,0.7-0.3,0.9c0.4-0.2,0.9-0.4,1.5-0.5
		c0.6-0.1,1.2-0.2,1.8-0.2c0.9,0,1.7,0.2,2.4,0.5s1.2,0.7,1.7,1.2c0.4,0.5,0.8,1,1,1.7c0.2,0.6,0.3,1.3,0.3,1.9c0,0.7-0.1,1.3-0.2,2
		c-0.1,0.7-0.4,1.3-0.7,1.9c-0.3,0.6-0.7,1.2-1.1,1.7s-0.9,1-1.5,1.4c-0.6,0.4-1.2,0.7-2,0.9c-0.7,0.2-1.5,0.3-2.4,0.3
		c-0.5,0-1-0.1-1.5-0.2c-0.5-0.1-1-0.3-1.5-0.5c-0.5-0.2-0.9-0.5-1.4-0.8c-0.4-0.3-0.9-0.7-1.2-1.1l0.9-1.5c0.5,0.4,1,0.7,1.4,1
		c0.4,0.3,0.8,0.5,1.2,0.6c0.4,0.1,0.7,0.2,1.1,0.3s0.7,0.1,1,0.1c0.6,0,1.2-0.1,1.7-0.4s0.9-0.7,1.3-1.2c0.4-0.5,0.6-1.1,0.8-1.7
		c0.2-0.7,0.3-1.3,0.3-2.1c0-0.5-0.1-1-0.2-1.5c-0.1-0.4-0.4-0.8-0.6-1.1c-0.3-0.3-0.6-0.6-1-0.7c-0.4-0.2-0.8-0.3-1.3-0.3
		c-0.8,0-1.5,0.1-2.2,0.4s-1.2,0.6-1.8,1l-0.7-0.5c0.1-0.4,0.3-0.9,0.4-1.4c0.2-0.5,0.3-1.1,0.5-1.7c0.2-0.6,0.3-1.2,0.5-1.9
		c0.2-0.6,0.3-1.3,0.5-1.9s0.3-1.2,0.4-1.7c0.1-0.5,0.2-1,0.3-1.4h8c0.3,0,0.5,0,0.7,0c0.2,0,0.4-0.1,0.6-0.1c0.2,0,0.3-0.1,0.5-0.2
		L370.7,177.4z"/>
</g>
</svg>
