<?xml version="1.0" encoding="utf-8"?>
<!-- Generator: Adobe Illustrator 21.1.0, SVG Export Plug-In . SVG Version: 6.00 Build 0)  -->
<svg version="1.1" id="Layer_1" xmlns="http://www.w3.org/2000/svg" xmlns:xlink="http://www.w3.org/1999/xlink" x="0px" y="0px"
	 viewBox="0 0 614 163.5" style="enable-background:new 0 0 614 163.5;" xml:space="preserve">
<style type="text/css">
	.st0{fill:#0B6DAA;}
	.st1{fill:#404040;}
	.st2{fill:#3FBFD5;}
</style>
<title>Group 10</title>
<desc>Created with Sketch.</desc>
<g id="Page-1">
	<g id="Henningsen-Website" transform="translate(-85.000000, -230.000000)">
		<g id="slide3---Insurance" transform="translate(0.000000, 81.000000)">
			<g id="Group-10" transform="translate(85.000000, 149.000000)">
				<path id="Get-your-preventive" class="st0" d="M10.6,141h7.1v9.3c-1.1,0.4-2.2,0.6-3.2,0.8s-2,0.2-3.1,0.2
					c-2.7,0-4.8-0.8-6.2-2.4S3,145,3,142.1c0-2.9,0.8-5.1,2.5-6.7c1.6-1.6,3.9-2.4,6.9-2.4c1.8,0,3.6,0.4,5.3,1.1l-1.3,3
					c-1.3-0.7-2.7-1-4.1-1c-1.6,0-2.9,0.5-3.9,1.6s-1.5,2.6-1.5,4.4c0,1.9,0.4,3.4,1.2,4.4s1.9,1.5,3.5,1.5c0.8,0,1.6-0.1,2.4-0.2
					v-3.7h-3.4V141z M27.1,139.7c-0.8,0-1.4,0.3-1.9,0.8c-0.4,0.5-0.7,1.2-0.8,2.1h5.2c0-0.9-0.3-1.6-0.7-2.1
					C28.5,140,27.8,139.7,27.1,139.7z M27.6,151.2c-2.2,0-3.9-0.6-5.2-1.8c-1.2-1.2-1.9-2.9-1.9-5.2c0-2.3,0.6-4.1,1.7-5.3
					c1.1-1.2,2.7-1.9,4.7-1.9c1.9,0,3.4,0.5,4.5,1.6s1.6,2.6,1.6,4.6v1.8h-8.8c0,1.1,0.4,1.9,0.9,2.5c0.6,0.6,1.4,0.9,2.5,0.9
					c0.8,0,1.6-0.1,2.3-0.3c0.7-0.2,1.5-0.4,2.3-0.8v2.9c-0.7,0.3-1.3,0.6-2.1,0.7C29.5,151.2,28.6,151.2,27.6,151.2z M41.7,148.3
					c0.7,0,1.4-0.1,2.3-0.4v2.8c-0.9,0.4-2.1,0.6-3.4,0.6c-1.5,0-2.6-0.4-3.3-1.1s-1-1.9-1-3.4v-6.6h-1.8v-1.6l2.1-1.2l1.1-2.9h2.4
					v2.9h3.8v2.8h-3.8v6.6c0,0.5,0.1,0.9,0.4,1.2S41.2,148.3,41.7,148.3z M51,137.4h4.1l2.6,7.7c0.2,0.7,0.4,1.5,0.5,2.4h0.1
					c0.1-0.8,0.3-1.6,0.5-2.4l2.5-7.7h4l-5.8,15.4c-0.5,1.4-1.3,2.5-2.3,3.2S55,157,53.7,157c-0.6,0-1.3-0.1-1.9-0.2v-3
					c0.4,0.1,0.9,0.2,1.5,0.2c0.7,0,1.2-0.2,1.7-0.6c0.5-0.4,0.9-1,1.2-1.8l0.2-0.7L51,137.4z M69.9,144.2c0,1.4,0.2,2.4,0.7,3.1
					s1.2,1,2.2,1c1,0,1.7-0.3,2.1-1s0.7-1.7,0.7-3.1c0-1.4-0.2-2.4-0.7-3s-1.2-1-2.2-1c-1,0-1.7,0.3-2.1,1S69.9,142.8,69.9,144.2z
					 M79.4,144.2c0,2.2-0.6,4-1.8,5.2s-2.8,1.9-4.9,1.9c-1.3,0-2.5-0.3-3.5-0.9s-1.8-1.4-2.3-2.5s-0.8-2.3-0.8-3.8
					c0-2.2,0.6-4,1.7-5.2s2.8-1.9,4.9-1.9c1.3,0,2.5,0.3,3.5,0.9s1.8,1.4,2.3,2.5S79.4,142.7,79.4,144.2z M91.9,151l-0.5-1.7h-0.2
					c-0.4,0.6-1,1.1-1.7,1.5c-0.7,0.3-1.6,0.5-2.5,0.5c-1.6,0-2.8-0.4-3.6-1.3c-0.8-0.9-1.2-2.1-1.2-3.7v-8.9h3.7v8
					c0,1,0.2,1.7,0.5,2.2c0.3,0.5,0.9,0.7,1.7,0.7c1,0,1.8-0.3,2.3-1c0.5-0.7,0.7-1.8,0.7-3.5v-6.4h3.7V151H91.9z M106.1,137.1
					c0.5,0,0.9,0,1.3,0.1l-0.3,3.5c-0.3-0.1-0.7-0.1-1.1-0.1c-1.2,0-2.1,0.3-2.8,0.9s-1,1.5-1,2.6v6.9h-3.7v-13.6h2.8l0.5,2.3h0.2
					c0.4-0.8,1-1.4,1.7-1.8C104.5,137.3,105.2,137.1,106.1,137.1z M123.4,151.2c-1.6,0-2.9-0.6-3.8-1.7h-0.2c0.1,1.1,0.2,1.8,0.2,2
					v5.5h-3.7v-19.7h3l0.5,1.8h0.2c0.9-1.4,2.2-2,3.9-2c1.6,0,2.9,0.6,3.8,1.9c0.9,1.2,1.4,3,1.4,5.2c0,1.5-0.2,2.7-0.6,3.8
					s-1,1.9-1.8,2.5S124.5,151.2,123.4,151.2z M122.3,140.1c-0.9,0-1.6,0.3-2,0.8s-0.6,1.5-0.7,2.8v0.4c0,1.5,0.2,2.5,0.7,3.1
					s1.1,1,2.1,1c1.7,0,2.5-1.4,2.5-4.1c0-1.3-0.2-2.3-0.6-3S123.2,140.1,122.3,140.1z M139.2,137.1c0.5,0,0.9,0,1.3,0.1l-0.3,3.5
					c-0.3-0.1-0.7-0.1-1.1-0.1c-1.2,0-2.1,0.3-2.8,0.9s-1,1.5-1,2.6v6.9h-3.7v-13.6h2.8l0.5,2.3h0.2c0.4-0.8,1-1.4,1.7-1.8
					S138.3,137.1,139.2,137.1z M147.9,139.7c-0.8,0-1.4,0.3-1.9,0.8c-0.4,0.5-0.7,1.2-0.8,2.1h5.2c0-0.9-0.3-1.6-0.7-2.1
					C149.3,140,148.6,139.7,147.9,139.7z M148.4,151.2c-2.2,0-3.9-0.6-5.2-1.8c-1.2-1.2-1.9-2.9-1.9-5.2c0-2.3,0.6-4.1,1.7-5.3
					c1.1-1.2,2.7-1.9,4.7-1.9c1.9,0,3.4,0.5,4.5,1.6c1.1,1.1,1.6,2.6,1.6,4.6v1.8h-8.8c0,1.1,0.4,1.9,0.9,2.5
					c0.6,0.6,1.4,0.9,2.5,0.9c0.8,0,1.6-0.1,2.3-0.3c0.7-0.2,1.5-0.4,2.3-0.8v2.9c-0.7,0.3-1.3,0.6-2.1,0.7
					C150.4,151.2,149.4,151.2,148.4,151.2z M159.5,151l-5.2-13.6h3.9l2.6,7.8c0.3,1,0.5,1.9,0.5,2.8h0.1c0-0.8,0.2-1.7,0.5-2.8
					l2.6-7.8h3.9l-5.2,13.6H159.5z M176,139.7c-0.8,0-1.4,0.3-1.9,0.8c-0.4,0.5-0.7,1.2-0.8,2.1h5.2c0-0.9-0.3-1.6-0.7-2.1
					S176.7,139.7,176,139.7z M176.5,151.2c-2.2,0-3.9-0.6-5.2-1.8s-1.9-2.9-1.9-5.2c0-2.3,0.6-4.1,1.7-5.3s2.7-1.9,4.7-1.9
					c1.9,0,3.4,0.5,4.5,1.6s1.6,2.6,1.6,4.6v1.8h-8.8c0,1.1,0.4,1.9,0.9,2.5s1.4,0.9,2.5,0.9c0.8,0,1.6-0.1,2.3-0.3s1.5-0.4,2.3-0.8
					v2.9c-0.7,0.3-1.3,0.6-2.1,0.7S177.5,151.2,176.5,151.2z M197.5,151h-3.7v-8c0-1-0.2-1.7-0.5-2.2c-0.3-0.5-0.9-0.7-1.7-0.7
					c-1,0-1.8,0.3-2.3,1s-0.7,1.8-0.7,3.5v6.4h-3.7v-13.6h2.8l0.5,1.7h0.2c0.4-0.7,1-1.2,1.7-1.5c0.7-0.3,1.6-0.5,2.5-0.5
					c1.6,0,2.8,0.4,3.6,1.3s1.2,2.1,1.2,3.7V151z M206.9,148.3c0.7,0,1.4-0.1,2.3-0.4v2.8c-0.9,0.4-2.1,0.6-3.4,0.6
					c-1.5,0-2.6-0.4-3.3-1.1c-0.7-0.8-1-1.9-1-3.4v-6.6h-1.8v-1.6l2.1-1.2l1.1-2.9h2.4v2.9h3.8v2.8h-3.8v6.6c0,0.5,0.1,0.9,0.4,1.2
					C206,148.2,206.4,148.3,206.9,148.3z M211.6,133.8c0-1.2,0.7-1.8,2-1.8c1.4,0,2,0.6,2,1.8c0,0.6-0.2,1-0.5,1.3
					c-0.3,0.3-0.8,0.5-1.5,0.5C212.3,135.7,211.6,135,211.6,133.8z M215.5,151h-3.7v-13.6h3.7V151z M222.5,151l-5.2-13.6h3.9
					l2.6,7.8c0.3,1,0.5,1.9,0.5,2.8h0.1c0-0.8,0.2-1.7,0.5-2.8l2.6-7.8h3.9l-5.2,13.6H222.5z M238.9,139.7c-0.8,0-1.4,0.3-1.9,0.8
					c-0.4,0.5-0.7,1.2-0.8,2.1h5.2c0-0.9-0.3-1.6-0.7-2.1S239.7,139.7,238.9,139.7z M239.4,151.2c-2.2,0-3.9-0.6-5.2-1.8
					s-1.9-2.9-1.9-5.2c0-2.3,0.6-4.1,1.7-5.3s2.7-1.9,4.7-1.9c1.9,0,3.4,0.5,4.5,1.6c1.1,1.1,1.6,2.6,1.6,4.6v1.8h-8.8
					c0,1.1,0.4,1.9,0.9,2.5s1.4,0.9,2.5,0.9c0.8,0,1.6-0.1,2.3-0.3s1.5-0.4,2.3-0.8v2.9c-0.7,0.3-1.3,0.6-2.1,0.7
					C241.4,151.2,240.5,151.2,239.4,151.2z M259.6,151.2c-4.2,0-6.4-2.3-6.4-7c0-2.3,0.6-4.1,1.7-5.3c1.2-1.2,2.8-1.8,5-1.8
					c1.6,0,3,0.3,4.2,0.9l-1.1,2.9c-0.6-0.2-1.1-0.4-1.6-0.6c-0.5-0.2-1-0.2-1.5-0.2c-1.9,0-2.9,1.4-2.9,4.1c0,2.7,1,4,2.9,4
					c0.7,0,1.4-0.1,2-0.3s1.2-0.5,1.8-0.9v3.2c-0.6,0.4-1.2,0.6-1.8,0.8C261.4,151.2,260.6,151.2,259.6,151.2z M275.4,151l-0.7-1.9
					h-0.1c-0.6,0.8-1.3,1.3-1.9,1.6s-1.5,0.5-2.6,0.5c-1.3,0-2.3-0.4-3.1-1.1s-1.1-1.8-1.1-3.2c0-1.4,0.5-2.5,1.5-3.2
					s2.5-1.1,4.6-1.1l2.4-0.1v-0.6c0-1.4-0.7-2.1-2.1-2.1c-1.1,0-2.4,0.3-3.8,1l-1.2-2.5c1.6-0.8,3.3-1.2,5.2-1.2
					c1.8,0,3.2,0.4,4.2,1.2s1.5,2,1.5,3.6v9.1H275.4z M274.3,144.7l-1.4,0c-1.1,0-1.9,0.2-2.4,0.6s-0.8,0.9-0.8,1.6
					c0,1,0.6,1.6,1.8,1.6c0.9,0,1.6-0.2,2.1-0.7c0.5-0.5,0.8-1.2,0.8-2V144.7z M289.3,137.1c0.5,0,0.9,0,1.3,0.1l-0.3,3.5
					c-0.3-0.1-0.7-0.1-1.1-0.1c-1.2,0-2.1,0.3-2.8,0.9c-0.7,0.6-1,1.5-1,2.6v6.9h-3.7v-13.6h2.8l0.5,2.3h0.2c0.4-0.8,1-1.4,1.7-1.8
					C287.7,137.3,288.4,137.1,289.3,137.1z M298,139.7c-0.8,0-1.4,0.3-1.9,0.8s-0.7,1.2-0.8,2.1h5.2c0-0.9-0.3-1.6-0.7-2.1
					S298.8,139.7,298,139.7z M298.5,151.2c-2.2,0-3.9-0.6-5.2-1.8c-1.2-1.2-1.9-2.9-1.9-5.2c0-2.3,0.6-4.1,1.7-5.3s2.7-1.9,4.7-1.9
					c1.9,0,3.4,0.5,4.5,1.6s1.6,2.6,1.6,4.6v1.8h-8.8c0,1.1,0.4,1.9,0.9,2.5s1.4,0.9,2.5,0.9c0.8,0,1.6-0.1,2.3-0.3s1.5-0.4,2.3-0.8
					v2.9c-0.7,0.3-1.3,0.6-2.1,0.7S299.6,151.2,298.5,151.2z M320.7,140.1h-3.2V151h-3.7v-10.9h-2.1v-1.8l2.1-1v-1
					c0-1.6,0.4-2.7,1.1-3.4c0.8-0.7,2-1.1,3.7-1.1c1.3,0,2.4,0.2,3.4,0.6l-1,2.7c-0.7-0.2-1.4-0.4-2.1-0.4c-0.5,0-0.9,0.2-1.1,0.5
					c-0.2,0.3-0.4,0.7-0.4,1.2v0.9h3.2V140.1z M325.6,144.2c0,1.4,0.2,2.4,0.7,3.1s1.2,1,2.2,1c1,0,1.7-0.3,2.1-1s0.7-1.7,0.7-3.1
					c0-1.4-0.2-2.4-0.7-3s-1.2-1-2.2-1c-1,0-1.7,0.3-2.1,1S325.6,142.8,325.6,144.2z M335.1,144.2c0,2.2-0.6,4-1.8,5.2
					s-2.8,1.9-4.9,1.9c-1.3,0-2.5-0.3-3.5-0.9s-1.8-1.4-2.3-2.5s-0.8-2.3-0.8-3.8c0-2.2,0.6-4,1.7-5.2c1.2-1.2,2.8-1.9,4.9-1.9
					c1.3,0,2.5,0.3,3.5,0.9s1.8,1.4,2.3,2.5S335.1,142.7,335.1,144.2z M345.6,137.1c0.5,0,0.9,0,1.3,0.1l-0.3,3.5
					c-0.3-0.1-0.7-0.1-1.1-0.1c-1.2,0-2.1,0.3-2.8,0.9c-0.7,0.6-1,1.5-1,2.6v6.9H338v-13.6h2.8l0.5,2.3h0.2c0.4-0.8,1-1.4,1.7-1.8
					S344.7,137.1,345.6,137.1z M364.1,151l-0.7-1.9h-0.1c-0.6,0.8-1.3,1.3-1.9,1.6c-0.7,0.3-1.5,0.5-2.6,0.5c-1.3,0-2.3-0.4-3.1-1.1
					s-1.1-1.8-1.1-3.2c0-1.4,0.5-2.5,1.5-3.2s2.5-1.1,4.6-1.1l2.4-0.1v-0.6c0-1.4-0.7-2.1-2.1-2.1c-1.1,0-2.4,0.3-3.8,1l-1.2-2.5
					c1.6-0.8,3.3-1.2,5.2-1.2c1.8,0,3.2,0.4,4.2,1.2s1.5,2,1.5,3.6v9.1H364.1z M363,144.7l-1.4,0c-1.1,0-1.9,0.2-2.4,0.6
					c-0.5,0.4-0.8,0.9-0.8,1.6c0,1,0.6,1.6,1.8,1.6c0.9,0,1.6-0.2,2.1-0.7c0.5-0.5,0.8-1.2,0.8-2V144.7z M380.3,151h-3.7v-19h3.7
					V151z M387,144.2c0,1.4,0.2,2.4,0.7,3.1c0.4,0.7,1.2,1,2.2,1c1,0,1.7-0.3,2.1-1s0.7-1.7,0.7-3.1c0-1.4-0.2-2.4-0.7-3
					s-1.2-1-2.2-1c-1,0-1.7,0.3-2.1,1S387,142.8,387,144.2z M396.5,144.2c0,2.2-0.6,4-1.8,5.2s-2.8,1.9-4.9,1.9
					c-1.3,0-2.5-0.3-3.5-0.9s-1.8-1.4-2.3-2.5s-0.8-2.3-0.8-3.8c0-2.2,0.6-4,1.7-5.2c1.2-1.2,2.8-1.9,4.9-1.9c1.3,0,2.5,0.3,3.5,0.9
					s1.8,1.4,2.3,2.5S396.5,142.7,396.5,144.2z M410,151l-1-4.8l-1.4-6h-0.1L405,151h-4l-3.9-13.6h3.7l1.6,6
					c0.3,1.1,0.5,2.6,0.8,4.5h0.1c0-0.6,0.2-1.6,0.4-2.9l0.2-1l1.7-6.5h4.1l1.6,6.5c0,0.2,0.1,0.4,0.2,0.8c0.1,0.3,0.1,0.7,0.2,1.1
					c0.1,0.4,0.1,0.8,0.2,1.2c0.1,0.4,0.1,0.7,0.1,0.9h0.1c0.1-0.6,0.2-1.4,0.4-2.4c0.2-1,0.3-1.7,0.4-2.1l1.6-6h3.6l-3.9,13.6H410z
					 M438.6,151h-3.7v-8c0-1-0.2-1.7-0.5-2.2s-0.8-0.7-1.6-0.7c-1,0-1.6,0.3-2.1,1c-0.4,0.7-0.6,1.9-0.6,3.5v6.4h-3.7v-13.6h2.8
					l0.5,1.7h0.2c0.4-0.6,0.9-1.1,1.6-1.5c0.7-0.4,1.5-0.5,2.4-0.5c2,0,3.4,0.7,4.2,2h0.3c0.4-0.6,0.9-1.1,1.6-1.5
					c0.7-0.3,1.5-0.5,2.4-0.5c1.5,0,2.7,0.4,3.5,1.2s1.2,2.1,1.2,3.8v8.9h-3.7v-8c0-1-0.2-1.7-0.5-2.2s-0.8-0.7-1.6-0.7
					c-0.9,0-1.6,0.3-2,1s-0.7,1.7-0.7,3.1V151z M453.6,144.2c0,1.4,0.2,2.4,0.7,3.1c0.4,0.7,1.2,1,2.2,1c1,0,1.7-0.3,2.1-1
					c0.4-0.7,0.7-1.7,0.7-3.1c0-1.4-0.2-2.4-0.7-3s-1.2-1-2.2-1c-1,0-1.7,0.3-2.1,1S453.6,142.8,453.6,144.2z M463.1,144.2
					c0,2.2-0.6,4-1.8,5.2s-2.8,1.9-4.9,1.9c-1.3,0-2.5-0.3-3.5-0.9s-1.8-1.4-2.3-2.5s-0.8-2.3-0.8-3.8c0-2.2,0.6-4,1.7-5.2
					c1.2-1.2,2.8-1.9,4.9-1.9c1.3,0,2.5,0.3,3.5,0.9s1.8,1.4,2.3,2.5S463.1,142.7,463.1,144.2z M478.6,151h-3.7v-8
					c0-1-0.2-1.7-0.5-2.2s-0.9-0.7-1.7-0.7c-1,0-1.8,0.3-2.3,1s-0.7,1.8-0.7,3.5v6.4H466v-13.6h2.8l0.5,1.7h0.2
					c0.4-0.7,1-1.2,1.7-1.5s1.6-0.5,2.5-0.5c1.6,0,2.8,0.4,3.6,1.3c0.8,0.9,1.2,2.1,1.2,3.7V151z M487.9,148.3
					c0.7,0,1.4-0.1,2.3-0.4v2.8c-0.9,0.4-2.1,0.6-3.4,0.6c-1.5,0-2.6-0.4-3.3-1.1c-0.7-0.8-1-1.9-1-3.4v-6.6h-1.8v-1.6l2.1-1.2
					l1.1-2.9h2.4v2.9h3.8v2.8h-3.8v6.6c0,0.5,0.1,0.9,0.4,1.2C487.1,148.2,487.5,148.3,487.9,148.3z M505.5,151h-3.7v-8
					c0-2-0.7-3-2.2-3c-1,0-1.8,0.4-2.3,1.1s-0.7,1.9-0.7,3.4v6.4h-3.7v-19h3.7v3.9c0,0.3,0,1-0.1,2.1l-0.1,1.1h0.2
					c0.8-1.3,2.1-2,4-2c1.6,0,2.8,0.4,3.6,1.3s1.2,2.1,1.2,3.7V151z M512.8,151h-3.7v-19h3.7V151z M514.6,137.4h4.1l2.6,7.7
					c0.2,0.7,0.4,1.5,0.5,2.4h0.1c0.1-0.8,0.3-1.6,0.5-2.4l2.5-7.7h4l-5.8,15.4c-0.5,1.4-1.3,2.5-2.3,3.2c-1,0.7-2.1,1.1-3.4,1.1
					c-0.6,0-1.3-0.1-1.9-0.2v-3c0.4,0.1,0.9,0.2,1.5,0.2c0.7,0,1.2-0.2,1.7-0.6c0.5-0.4,0.9-1,1.2-1.8l0.2-0.7L514.6,137.4z
					 M544.4,140.1h-3.2V151h-3.7v-10.9h-2.1v-1.8l2.1-1v-1c0-1.6,0.4-2.7,1.1-3.4c0.8-0.7,2-1.1,3.7-1.1c1.3,0,2.4,0.2,3.4,0.6
					l-1,2.7c-0.7-0.2-1.4-0.4-2.1-0.4c-0.5,0-0.9,0.2-1.1,0.5c-0.2,0.3-0.4,0.7-0.4,1.2v0.9h3.2V140.1z M552,139.7
					c-0.8,0-1.4,0.3-1.9,0.8s-0.7,1.2-0.8,2.1h5.2c0-0.9-0.3-1.6-0.7-2.1S552.8,139.7,552,139.7z M552.5,151.2
					c-2.2,0-3.9-0.6-5.2-1.8s-1.9-2.9-1.9-5.2c0-2.3,0.6-4.1,1.7-5.3c1.1-1.2,2.7-1.9,4.7-1.9c1.9,0,3.4,0.5,4.5,1.6
					s1.6,2.6,1.6,4.6v1.8h-8.8c0,1.1,0.4,1.9,0.9,2.5s1.4,0.9,2.5,0.9c0.8,0,1.6-0.1,2.3-0.3s1.5-0.4,2.3-0.8v2.9
					c-0.7,0.3-1.3,0.6-2.1,0.7C554.5,151.2,553.6,151.2,552.5,151.2z M566.6,139.7c-0.8,0-1.4,0.3-1.9,0.8s-0.7,1.2-0.8,2.1h5.2
					c0-0.9-0.3-1.6-0.7-2.1S567.3,139.7,566.6,139.7z M567.1,151.2c-2.2,0-3.9-0.6-5.2-1.8s-1.9-2.9-1.9-5.2c0-2.3,0.6-4.1,1.7-5.3
					c1.1-1.2,2.7-1.9,4.7-1.9c1.9,0,3.4,0.5,4.5,1.6s1.6,2.6,1.6,4.6v1.8h-8.8c0,1.1,0.4,1.9,0.9,2.5s1.4,0.9,2.5,0.9
					c0.8,0,1.6-0.1,2.3-0.3s1.5-0.4,2.3-0.8v2.9c-0.7,0.3-1.3,0.6-2.1,0.7S568.1,151.2,567.1,151.2z M575,149.3
					c0-0.7,0.2-1.2,0.5-1.6s0.9-0.5,1.6-0.5c0.7,0,1.2,0.2,1.6,0.5c0.4,0.4,0.6,0.9,0.6,1.5c0,0.6-0.2,1.1-0.6,1.5
					c-0.4,0.4-0.9,0.6-1.6,0.6c-0.7,0-1.2-0.2-1.6-0.5C575.1,150.4,575,149.9,575,149.3z"/>
				<path id="Our-patients-don_x2019_t-n" class="st1" d="M30.2,88.1c0,5-1.3,9-3.8,11.9s-6.1,4.3-10.6,4.3c-4.6,0-8.2-1.4-10.7-4.2
					c-2.5-2.8-3.8-6.8-3.8-12c0-5.1,1.3-9.1,3.8-11.9c2.5-2.8,6.1-4.2,10.7-4.2c4.5,0,8,1.4,10.6,4.3C28.9,79.1,30.2,83,30.2,88.1z
					 M5.2,88.1c0,4.3,0.9,7.5,2.7,9.7c1.8,2.2,4.4,3.3,7.9,3.3c3.5,0,6.1-1.1,7.9-3.3c1.8-2.2,2.7-5.4,2.7-9.7
					c0-4.2-0.9-7.4-2.7-9.6c-1.8-2.2-4.4-3.3-7.9-3.3c-3.5,0-6.1,1.1-7.9,3.3C6.1,80.7,5.2,83.9,5.2,88.1z M39.6,80.3v15.3
					c0,1.9,0.4,3.4,1.3,4.3c0.9,0.9,2.2,1.4,4.1,1.4c2.5,0,4.3-0.7,5.4-2c1.1-1.3,1.7-3.5,1.7-6.6V80.3h3.6v23.5h-2.9l-0.5-3.2h-0.2
					c-0.7,1.2-1.7,2-3,2.7c-1.3,0.6-2.8,0.9-4.4,0.9c-2.9,0-5-0.7-6.4-2c-1.4-1.4-2.1-3.5-2.1-6.5V80.3H39.6z M73.6,79.8
					c1,0,2,0.1,2.8,0.3l-0.5,3.3c-1-0.2-1.8-0.3-2.6-0.3c-1.9,0-3.5,0.8-4.9,2.3s-2,3.5-2,5.8v12.6h-3.6V80.3h2.9l0.4,4.4h0.2
					c0.9-1.5,1.9-2.7,3.2-3.5C70.8,80.2,72.2,79.8,73.6,79.8z M102.4,104.2c-1.5,0-2.9-0.3-4.2-0.8s-2.3-1.4-3.2-2.6h-0.3
					c0.2,1.4,0.3,2.7,0.3,3.9v9.7h-3.6V80.3h2.9l0.5,3.2H95c0.9-1.3,2-2.2,3.2-2.8c1.2-0.6,2.6-0.9,4.2-0.9c3.1,0,5.5,1.1,7.2,3.2
					s2.5,5.1,2.5,9c0,3.9-0.9,6.9-2.6,9C107.9,103.2,105.5,104.2,102.4,104.2z M101.9,82.9c-2.4,0-4.1,0.7-5.2,2
					c-1.1,1.3-1.6,3.5-1.7,6.4V92c0,3.3,0.6,5.7,1.7,7.1c1.1,1.4,2.9,2.1,5.3,2.1c2,0,3.6-0.8,4.8-2.5c1.2-1.6,1.7-3.9,1.7-6.8
					c0-2.9-0.6-5.2-1.7-6.8S104,82.9,101.9,82.9z M132.5,103.8l-0.7-3.4h-0.2c-1.2,1.5-2.3,2.5-3.5,3c-1.2,0.5-2.6,0.8-4.4,0.8
					c-2.3,0-4.2-0.6-5.5-1.8c-1.3-1.2-2-2.9-2-5.1c0-4.8,3.8-7.2,11.4-7.5l4-0.1v-1.5c0-1.8-0.4-3.2-1.2-4.1
					c-0.8-0.9-2.1-1.3-3.8-1.3c-2,0-4.2,0.6-6.7,1.8l-1.1-2.7c1.2-0.6,2.4-1.1,3.8-1.5c1.4-0.4,2.8-0.5,4.2-0.5
					c2.8,0,4.9,0.6,6.2,1.9c1.4,1.2,2,3.2,2,6v16.1H132.5z M124.5,101.3c2.2,0,4-0.6,5.2-1.8c1.3-1.2,1.9-2.9,1.9-5.1v-2.1l-3.6,0.2
					c-2.8,0.1-4.9,0.5-6.1,1.3c-1.3,0.8-1.9,2-1.9,3.6c0,1.3,0.4,2.3,1.2,2.9C122,100.9,123.1,101.3,124.5,101.3z M149.7,101.3
					c0.6,0,1.2,0,1.8-0.1c0.6-0.1,1.1-0.2,1.4-0.3v2.7c-0.4,0.2-1,0.3-1.7,0.5c-0.8,0.1-1.4,0.2-2,0.2c-4.6,0-6.8-2.4-6.8-7.2V83
					H139v-1.7l3.4-1.5l1.5-5h2.1v5.5h6.8V83h-6.8v13.9c0,1.4,0.3,2.5,1,3.3C147.6,100.9,148.5,101.3,149.7,101.3z M160.8,103.8h-3.6
					V80.3h3.6V103.8z M156.9,73.9c0-0.8,0.2-1.4,0.6-1.8c0.4-0.4,0.9-0.6,1.5-0.6c0.6,0,1.1,0.2,1.5,0.6c0.4,0.4,0.6,1,0.6,1.8
					c0,0.8-0.2,1.4-0.6,1.8c-0.4,0.4-0.9,0.6-1.5,0.6c-0.6,0-1.1-0.2-1.5-0.6C157.1,75.3,156.9,74.7,156.9,73.9z M177.9,104.2
					c-3.5,0-6.2-1.1-8.2-3.2c-2-2.1-3-5.1-3-8.8c0-3.8,0.9-6.8,2.8-9c1.9-2.2,4.4-3.4,7.5-3.4c3,0,5.3,1,7,2.9s2.6,4.5,2.6,7.7v2.3
					h-16.2c0.1,2.8,0.8,4.9,2.1,6.3c1.3,1.4,3.2,2.1,5.6,2.1c2.5,0,5-0.5,7.5-1.6v3.2c-1.3,0.5-2.5,0.9-3.6,1.2
					C180.9,104.1,179.5,104.2,177.9,104.2z M177,82.8c-1.9,0-3.4,0.6-4.5,1.8c-1.1,1.2-1.8,2.9-2,5.1h12.3c0-2.2-0.5-4-1.5-5.2
					C180.2,83.4,178.8,82.8,177,82.8z M208.4,103.8V88.6c0-1.9-0.4-3.4-1.3-4.3c-0.9-0.9-2.2-1.4-4.1-1.4c-2.5,0-4.3,0.7-5.4,2
					c-1.1,1.3-1.7,3.5-1.7,6.6v12.4h-3.6V80.3h2.9l0.6,3.2h0.2c0.7-1.2,1.8-2.1,3.1-2.7c1.3-0.6,2.8-1,4.4-1c2.8,0,5,0.7,6.4,2.1
					c1.4,1.4,2.1,3.6,2.1,6.6v15.4H208.4z M226.5,101.3c0.6,0,1.2,0,1.8-0.1c0.6-0.1,1.1-0.2,1.4-0.3v2.7c-0.4,0.2-1,0.3-1.7,0.5
					c-0.8,0.1-1.4,0.2-2,0.2c-4.6,0-6.8-2.4-6.8-7.2V83h-3.4v-1.7l3.4-1.5l1.5-5h2.1v5.5h6.8V83h-6.8v13.9c0,1.4,0.3,2.5,1,3.3
					C224.4,100.9,225.3,101.3,226.5,101.3z M249.2,97.4c0,2.2-0.8,3.9-2.4,5.1c-1.6,1.2-3.9,1.8-6.9,1.8c-3.1,0-5.6-0.5-7.3-1.5
					v-3.3c1.1,0.6,2.3,1,3.6,1.4c1.3,0.3,2.5,0.5,3.7,0.5c1.9,0,3.3-0.3,4.3-0.9c1-0.6,1.5-1.5,1.5-2.7c0-0.9-0.4-1.7-1.2-2.4
					s-2.3-1.4-4.7-2.3c-2.2-0.8-3.7-1.5-4.7-2.1s-1.6-1.3-2.1-2.1c-0.5-0.8-0.7-1.7-0.7-2.8c0-1.9,0.8-3.4,2.3-4.5s3.7-1.7,6.4-1.7
					c2.5,0,5,0.5,7.4,1.5l-1.3,2.9c-2.4-1-4.5-1.5-6.4-1.5c-1.7,0-3,0.3-3.8,0.8c-0.9,0.5-1.3,1.3-1.3,2.2c0,0.6,0.2,1.2,0.5,1.6
					c0.3,0.4,0.8,0.9,1.6,1.3c0.7,0.4,2.1,1,4.1,1.7c2.8,1,4.7,2,5.7,3.1C248.7,94.5,249.2,95.8,249.2,97.4z M281.6,100.6h-0.2
					c-1.6,2.4-4.1,3.6-7.4,3.6c-3.1,0-5.5-1.1-7.2-3.2c-1.7-2.1-2.6-5.1-2.6-9c0-3.9,0.9-6.9,2.6-9c1.7-2.1,4.1-3.2,7.2-3.2
					c3.2,0,5.6,1.2,7.3,3.5h0.3l-0.2-1.7l-0.1-1.7v-9.6h3.6v33.4h-2.9L281.6,100.6z M274.5,101.2c2.4,0,4.2-0.7,5.3-2
					c1.1-1.3,1.6-3.5,1.6-6.4v-0.8c0-3.3-0.6-5.7-1.7-7.1c-1.1-1.4-2.9-2.1-5.3-2.1c-2.1,0-3.7,0.8-4.8,2.4
					c-1.1,1.6-1.7,3.9-1.7,6.9c0,3,0.6,5.3,1.7,6.8C270.8,100.5,272.4,101.2,274.5,101.2z M312.5,92c0,3.8-1,6.8-2.9,9
					c-1.9,2.2-4.6,3.2-8,3.2c-2.1,0-4-0.5-5.6-1.5c-1.6-1-2.9-2.4-3.8-4.3c-0.9-1.8-1.3-4-1.3-6.5c0-3.8,1-6.8,2.9-9
					c1.9-2.1,4.6-3.2,8-3.2c3.3,0,5.9,1.1,7.9,3.3C311.5,85.3,312.5,88.3,312.5,92z M294.6,92c0,3,0.6,5.3,1.8,6.9
					c1.2,1.6,3,2.4,5.3,2.4s4.1-0.8,5.3-2.4s1.8-3.9,1.8-6.9c0-3-0.6-5.3-1.8-6.8c-1.2-1.6-3-2.3-5.4-2.3c-2.3,0-4.1,0.8-5.3,2.3
					C295.2,86.7,294.6,89,294.6,92z M334.5,103.8V88.6c0-1.9-0.4-3.4-1.3-4.3c-0.9-0.9-2.2-1.4-4.1-1.4c-2.5,0-4.3,0.7-5.4,2
					c-1.1,1.3-1.7,3.5-1.7,6.6v12.4h-3.6V80.3h2.9l0.6,3.2h0.2c0.7-1.2,1.8-2.1,3.1-2.7c1.3-0.6,2.8-1,4.4-1c2.8,0,5,0.7,6.4,2.1
					c1.4,1.4,2.1,3.6,2.1,6.6v15.4H334.5z M347.4,72.4l0.3,0.5c-0.4,1.4-0.9,3.1-1.6,5c-0.7,1.9-1.4,3.7-2.2,5.3h-2.6
					c1-4.1,1.7-7.7,2.2-10.8H347.4z M359.2,101.3c0.6,0,1.2,0,1.8-0.1c0.6-0.1,1.1-0.2,1.4-0.3v2.7c-0.4,0.2-1,0.3-1.7,0.5
					c-0.8,0.1-1.4,0.2-2,0.2c-4.6,0-6.8-2.4-6.8-7.2V83h-3.4v-1.7l3.4-1.5l1.5-5h2.1v5.5h6.8V83h-6.8v13.9c0,1.4,0.3,2.5,1,3.3
					C357.1,100.9,358,101.3,359.2,101.3z M393.9,103.8V88.6c0-1.9-0.4-3.4-1.3-4.3c-0.9-0.9-2.2-1.4-4.1-1.4c-2.5,0-4.3,0.7-5.4,2
					c-1.1,1.3-1.7,3.5-1.7,6.6v12.4h-3.6V80.3h2.9l0.6,3.2h0.2c0.7-1.2,1.8-2.1,3.1-2.7c1.3-0.6,2.8-1,4.4-1c2.8,0,5,0.7,6.4,2.1
					c1.4,1.4,2.1,3.6,2.1,6.6v15.4H393.9z M414.3,104.2c-3.5,0-6.2-1.1-8.2-3.2c-2-2.1-3-5.1-3-8.8c0-3.8,0.9-6.8,2.8-9
					c1.9-2.2,4.4-3.4,7.5-3.4c3,0,5.3,1,7,2.9c1.7,1.9,2.6,4.5,2.6,7.7v2.3h-16.2c0.1,2.8,0.8,4.9,2.1,6.3c1.3,1.4,3.2,2.1,5.6,2.1
					c2.5,0,5-0.5,7.5-1.6v3.2c-1.3,0.5-2.5,0.9-3.6,1.2C417.3,104.1,415.9,104.2,414.3,104.2z M413.4,82.8c-1.9,0-3.4,0.6-4.5,1.8
					c-1.1,1.2-1.8,2.9-2,5.1h12.3c0-2.2-0.5-4-1.5-5.2C416.6,83.4,415.2,82.8,413.4,82.8z M438.6,104.2c-3.5,0-6.2-1.1-8.2-3.2
					c-2-2.1-3-5.1-3-8.8c0-3.8,0.9-6.8,2.8-9c1.9-2.2,4.4-3.4,7.5-3.4c3,0,5.3,1,7,2.9c1.7,1.9,2.6,4.5,2.6,7.7v2.3H431
					c0.1,2.8,0.8,4.9,2.1,6.3c1.3,1.4,3.2,2.1,5.6,2.1c2.5,0,5-0.5,7.5-1.6v3.2c-1.3,0.5-2.5,0.9-3.6,1.2
					C441.6,104.1,440.2,104.2,438.6,104.2z M437.6,82.8c-1.9,0-3.4,0.6-4.5,1.8c-1.1,1.2-1.8,2.9-2,5.1h12.3c0-2.2-0.5-4-1.5-5.2
					C440.9,83.4,439.5,82.8,437.6,82.8z M469,100.6h-0.2c-1.6,2.4-4.1,3.6-7.4,3.6c-3.1,0-5.5-1.1-7.2-3.2c-1.7-2.1-2.6-5.1-2.6-9
					c0-3.9,0.9-6.9,2.6-9c1.7-2.1,4.1-3.2,7.2-3.2c3.2,0,5.6,1.2,7.3,3.5h0.3l-0.2-1.7l-0.1-1.7v-9.6h3.6v33.4h-2.9L469,100.6z
					 M461.8,101.2c2.4,0,4.2-0.7,5.3-2c1.1-1.3,1.6-3.5,1.6-6.4v-0.8c0-3.3-0.6-5.7-1.7-7.1c-1.1-1.4-2.9-2.1-5.3-2.1
					c-2.1,0-3.7,0.8-4.8,2.4c-1.1,1.6-1.7,3.9-1.7,6.9c0,3,0.6,5.3,1.7,6.8C458.1,100.5,459.7,101.2,461.8,101.2z M494.1,103.8h-3.6
					V80.3h3.6V103.8z M490.2,73.9c0-0.8,0.2-1.4,0.6-1.8c0.4-0.4,0.9-0.6,1.5-0.6c0.6,0,1.1,0.2,1.5,0.6c0.4,0.4,0.6,1,0.6,1.8
					c0,0.8-0.2,1.4-0.6,1.8s-0.9,0.6-1.5,0.6c-0.6,0-1.1-0.2-1.5-0.6C490.4,75.3,490.2,74.7,490.2,73.9z M508.9,101.3
					c0.6,0,1.2,0,1.8-0.1c0.6-0.1,1.1-0.2,1.4-0.3v2.7c-0.4,0.2-1,0.3-1.7,0.5c-0.8,0.1-1.4,0.2-2,0.2c-4.6,0-6.8-2.4-6.8-7.2V83
					h-3.4v-1.7l3.4-1.5l1.5-5h2.1v5.5h6.8V83h-6.8v13.9c0,1.4,0.3,2.5,1,3.3C506.8,100.9,507.7,101.3,508.9,101.3z M519.6,95.1h-2.3
					l-1.1-22.8h4.4L519.6,95.1z M515.9,101.5c0-1.9,0.9-2.9,2.6-2.9c0.8,0,1.5,0.3,1.9,0.8s0.7,1.2,0.7,2.2c0,0.9-0.2,1.6-0.7,2.1
					c-0.5,0.5-1.1,0.8-1.9,0.8c-0.7,0-1.4-0.2-1.8-0.7C516.1,103.3,515.9,102.6,515.9,101.5z"/>
				<path id="No-Insurance_x3F_" class="st2" d="M4.7,4.5V62h15.7V30l24.4,32h14.5V4.5H43.6v32.1L19.3,4.5H4.7z M89.9,16.8
					c15,0,24.8,9,24.8,22.9c0,13.8-9.8,22.9-24.8,22.9s-24.8-9.1-24.8-22.9C65.1,25.8,74.9,16.8,89.9,16.8z M89.9,29.9
					c-4.9,0-8.1,4-8.1,9.9c0,6,3.2,9.9,8.1,9.9c4.8,0,8-3.9,8-9.9C97.9,34,94.7,29.9,89.9,29.9z M148.6,4.5V62h17.1V4.5H148.6z
					 M207.7,16.7c-6.2,0-11.1,2.6-14.2,7.5v-6.9H177V62h16.6V39.9c0-5.1,2.8-8.6,7.3-8.7c3.9,0,6.4,2.8,6.4,7.2V62h16.6V33.7
					C223.8,23.4,217.2,16.7,207.7,16.7z M265.5,32.5l5.5-10.4c-6.1-3.5-12.9-5.4-19.6-5.4c-11.2,0-19,5.6-19,14.9
					c0,15.3,22.8,12.8,22.8,17.9c0,1.4-1.5,2.1-3.7,2.1c-4.9,0-10.6-1.9-16.2-5.5l-5.1,10.4c5.8,4.2,13.1,6.3,21,6.3
					c11.6,0,19.6-5.6,19.6-14.8c0-15.3-23.3-13-23.3-18c0-1.4,1.3-2.1,3.4-2.1C254.4,27.8,259.4,29.4,265.5,32.5z M307.6,17.4v22.1
					c0,5.1-2.6,8.6-6.9,8.7c-3.6,0-6-2.8-6-7.1V17.4h-16.6v28.3c0,10.4,6.4,17.1,15.7,17.1c6,0,10.7-2.6,13.7-7.4V62h16.6V17.4
					H307.6z M352.2,24.4v-7.1h-16.6V62h16.6V40.7c0-6.5,5.5-10.1,14-9V16.7C360.2,16.7,355.3,19.5,352.2,24.4z M393.5,16.7
					c12.5,0,20,6,20,16.3V62h-16.2v-4.9c-2.7,3.6-7.1,5.7-13,5.7c-9.5,0-15.1-5.7-15.1-14c0-8.6,6-13.4,17.2-13.5h10.9V35
					c0-3.7-2.6-5.9-7.7-5.9c-3.5,0-8.5,1.1-13.4,3.2l-4.1-11C379.4,18.4,386.6,16.7,393.5,16.7z M389.8,51.9c3.4,0,6.3-1.8,7.5-4.6
					v-4h-7.5c-3.3,0-5,1.4-5,4.2S386.6,51.9,389.8,51.9z M454.5,16.7c-6.2,0-11.1,2.6-14.2,7.5v-6.9h-16.6V62h16.6V39.9
					c0-5.1,2.8-8.6,7.3-8.7c3.9,0,6.4,2.8,6.4,7.2V62h16.6V33.7C470.6,23.4,464.1,16.7,454.5,16.7z M508.7,34.7l12.7-6.2
					c-3.8-7.4-11.2-11.6-20.6-11.6c-14.1,0-23.4,9.2-23.4,23c0,13.7,9.2,22.7,23.2,22.7c9.8,0,17.4-4.2,20.8-11.6l-12.9-6.5
					c-1.4,3.4-3.9,4.9-7.1,4.9c-4.4,0-7.4-3.9-7.4-9.7c0-5.7,3-9.5,7.4-9.5C504.6,30.3,507.1,31.9,508.7,34.7z M547.5,16.8
					c15.7,0,24.2,10.5,23.2,26.9h-30c1.3,4.3,4.4,6.6,8.7,6.6c3.5,0,6.9-1.6,9.8-4.3l8.6,8.4c-4.7,5.2-11.4,8-19.8,8
					c-14.9,0-24-9-24-22.7C524,25.9,533.4,16.8,547.5,16.8z M554.4,35.6c0.1-4.4-2.7-7.5-6.7-7.5c-3.9,0-6.5,3-7.3,7.5H554.4z
					 M574,24h12.7c0-4.7,1.8-6.9,5.3-6.9c3,0,4.6,1.3,4.6,4.3c0,7.1-9.5,8.1-9.5,20.6h12.4c0-9.2,12.4-11.2,12.4-23.3
					C611.9,9.3,605,4,593.6,4C581.3,4,574.1,11.4,574,24z M593,47.2c-4.5,0-7.7,3.1-7.7,7.6c0,4.6,3.2,7.8,7.7,7.8
					c4.6,0,7.8-3.2,7.8-7.8C600.8,50.4,597.6,47.2,593,47.2z"/>
			</g>
		</g>
	</g>
</g>
</svg>
